G75*
%MOIN*%
%OFA0B0*%
%FSLAX25Y25*%
%IPPOS*%
%LPD*%
%AMOC8*
5,1,8,0,0,1.08239X$1,22.5*
%
%ADD10C,0.01000*%
%ADD11C,0.00500*%
%ADD12C,0.00900*%
%ADD13C,0.01600*%
%ADD14C,0.00600*%
%ADD15C,0.00200*%
%ADD16C,0.00300*%
%ADD17C,0.00800*%
%ADD18R,0.02400X0.03400*%
%ADD19R,0.03400X0.02400*%
%ADD20C,0.00787*%
%ADD21R,0.10000X0.02000*%
%ADD22R,0.03000X0.07500*%
%ADD23C,0.00400*%
%ADD24R,0.05000X0.03500*%
%ADD25C,0.00700*%
%ADD26R,0.08000X0.02000*%
%ADD27R,0.02000X0.08000*%
D10*
X0037500Y0010000D02*
X0037500Y0027500D01*
X0097500Y0027500D01*
X0097500Y0010000D01*
X0037500Y0010000D01*
X0037500Y0027500D02*
X0037500Y0035000D01*
X0097500Y0035000D01*
X0097500Y0027500D01*
X0069500Y0050500D02*
X0066500Y0050500D01*
X0063500Y0050500D01*
X0063500Y0052500D02*
X0066500Y0052500D01*
X0069500Y0052500D01*
X0153000Y0072000D02*
X0153000Y0105000D01*
X0163000Y0105000D01*
X0163000Y0072000D01*
X0153000Y0072000D01*
X0155000Y0072000D02*
X0155002Y0072108D01*
X0155008Y0072216D01*
X0155018Y0072324D01*
X0155031Y0072432D01*
X0155049Y0072539D01*
X0155070Y0072645D01*
X0155095Y0072750D01*
X0155124Y0072855D01*
X0155157Y0072958D01*
X0155193Y0073060D01*
X0155234Y0073161D01*
X0155277Y0073260D01*
X0155325Y0073357D01*
X0155375Y0073453D01*
X0155429Y0073547D01*
X0155487Y0073638D01*
X0155548Y0073728D01*
X0155612Y0073816D01*
X0155679Y0073901D01*
X0155749Y0073983D01*
X0155822Y0074063D01*
X0155898Y0074140D01*
X0155977Y0074215D01*
X0156058Y0074286D01*
X0156142Y0074355D01*
X0156228Y0074421D01*
X0156316Y0074483D01*
X0156407Y0074542D01*
X0156500Y0074598D01*
X0156595Y0074651D01*
X0156691Y0074700D01*
X0156790Y0074745D01*
X0156890Y0074787D01*
X0156991Y0074825D01*
X0157094Y0074860D01*
X0157197Y0074891D01*
X0157302Y0074918D01*
X0157408Y0074941D01*
X0157515Y0074960D01*
X0157622Y0074976D01*
X0157730Y0074988D01*
X0157838Y0074996D01*
X0157946Y0075000D01*
X0158054Y0075000D01*
X0158162Y0074996D01*
X0158270Y0074988D01*
X0158378Y0074976D01*
X0158485Y0074960D01*
X0158592Y0074941D01*
X0158698Y0074918D01*
X0158803Y0074891D01*
X0158906Y0074860D01*
X0159009Y0074825D01*
X0159110Y0074787D01*
X0159210Y0074745D01*
X0159309Y0074700D01*
X0159405Y0074651D01*
X0159500Y0074598D01*
X0159593Y0074542D01*
X0159684Y0074483D01*
X0159772Y0074421D01*
X0159858Y0074355D01*
X0159942Y0074286D01*
X0160023Y0074215D01*
X0160102Y0074140D01*
X0160178Y0074063D01*
X0160251Y0073983D01*
X0160321Y0073901D01*
X0160388Y0073816D01*
X0160452Y0073728D01*
X0160513Y0073638D01*
X0160571Y0073547D01*
X0160625Y0073453D01*
X0160675Y0073357D01*
X0160723Y0073260D01*
X0160766Y0073161D01*
X0160807Y0073060D01*
X0160843Y0072958D01*
X0160876Y0072855D01*
X0160905Y0072750D01*
X0160930Y0072645D01*
X0160951Y0072539D01*
X0160969Y0072432D01*
X0160982Y0072324D01*
X0160992Y0072216D01*
X0160998Y0072108D01*
X0161000Y0072000D01*
X0224500Y0031000D02*
X0224500Y0023500D01*
X0244500Y0023500D01*
X0244500Y0006000D01*
X0224500Y0006000D01*
X0224500Y0023500D01*
X0224500Y0031000D02*
X0244500Y0031000D01*
X0244500Y0023500D01*
X0274500Y0026500D02*
X0274313Y0026743D01*
X0274121Y0026981D01*
X0273922Y0027214D01*
X0273718Y0027442D01*
X0273509Y0027665D01*
X0273294Y0027883D01*
X0273074Y0028096D01*
X0272849Y0028303D01*
X0272618Y0028505D01*
X0272383Y0028701D01*
X0272143Y0028891D01*
X0271899Y0029075D01*
X0271650Y0029253D01*
X0271396Y0029425D01*
X0271139Y0029591D01*
X0270878Y0029751D01*
X0270613Y0029904D01*
X0270344Y0030050D01*
X0270071Y0030190D01*
X0269796Y0030323D01*
X0269517Y0030449D01*
X0269235Y0030569D01*
X0268950Y0030681D01*
X0268663Y0030786D01*
X0268373Y0030885D01*
X0268081Y0030976D01*
X0267786Y0031060D01*
X0267490Y0031137D01*
X0267192Y0031207D01*
X0266892Y0031269D01*
X0266591Y0031324D01*
X0266289Y0031371D01*
X0265985Y0031411D01*
X0265681Y0031444D01*
X0265376Y0031469D01*
X0265070Y0031487D01*
X0264764Y0031497D01*
X0264458Y0031500D01*
X0264152Y0031495D01*
X0263846Y0031483D01*
X0263540Y0031463D01*
X0263236Y0031436D01*
X0262931Y0031401D01*
X0262628Y0031359D01*
X0262326Y0031310D01*
X0262025Y0031253D01*
X0261726Y0031188D01*
X0261428Y0031117D01*
X0261133Y0031038D01*
X0260839Y0030952D01*
X0260547Y0030859D01*
X0260258Y0030758D01*
X0259971Y0030651D01*
X0259687Y0030536D01*
X0259406Y0030415D01*
X0259128Y0030287D01*
X0258853Y0030152D01*
X0258582Y0030010D01*
X0258314Y0029862D01*
X0258050Y0029707D01*
X0257790Y0029546D01*
X0257534Y0029379D01*
X0257281Y0029205D01*
X0257034Y0029025D01*
X0256790Y0028839D01*
X0256552Y0028648D01*
X0256318Y0028450D01*
X0256089Y0028247D01*
X0255865Y0028038D01*
X0255646Y0027824D01*
X0255433Y0027604D01*
X0255225Y0027380D01*
X0255022Y0027150D01*
X0254826Y0026916D01*
X0254635Y0026676D01*
X0254450Y0026433D01*
X0254271Y0026184D01*
X0254098Y0025932D01*
X0253931Y0025675D01*
X0253771Y0025414D01*
X0253617Y0025149D01*
X0253470Y0024881D01*
X0253329Y0024609D01*
X0253195Y0024334D01*
X0253068Y0024055D01*
X0252947Y0023774D01*
X0252834Y0023489D01*
X0252728Y0023202D01*
X0252628Y0022913D01*
X0252536Y0022621D01*
X0252451Y0022327D01*
X0252373Y0022031D01*
X0252302Y0021733D01*
X0252239Y0021433D01*
X0252183Y0021132D01*
X0252135Y0020830D01*
X0252094Y0020527D01*
X0252060Y0020223D01*
X0252034Y0019918D01*
X0252015Y0019612D01*
X0252004Y0019306D01*
X0252000Y0019000D01*
X0252004Y0018694D01*
X0252015Y0018388D01*
X0252034Y0018082D01*
X0252060Y0017777D01*
X0252094Y0017473D01*
X0252135Y0017170D01*
X0252183Y0016868D01*
X0252239Y0016567D01*
X0252302Y0016267D01*
X0252373Y0015969D01*
X0252451Y0015673D01*
X0252536Y0015379D01*
X0252628Y0015087D01*
X0252728Y0014798D01*
X0252834Y0014511D01*
X0252947Y0014226D01*
X0253068Y0013945D01*
X0253195Y0013666D01*
X0253329Y0013391D01*
X0253470Y0013119D01*
X0253617Y0012851D01*
X0253771Y0012586D01*
X0253931Y0012325D01*
X0254098Y0012068D01*
X0254271Y0011816D01*
X0254450Y0011567D01*
X0254635Y0011324D01*
X0254826Y0011084D01*
X0255022Y0010850D01*
X0255225Y0010620D01*
X0255433Y0010396D01*
X0255646Y0010176D01*
X0255865Y0009962D01*
X0256089Y0009753D01*
X0256318Y0009550D01*
X0256552Y0009352D01*
X0256790Y0009161D01*
X0257034Y0008975D01*
X0257281Y0008795D01*
X0257534Y0008621D01*
X0257790Y0008454D01*
X0258050Y0008293D01*
X0258314Y0008138D01*
X0258582Y0007990D01*
X0258853Y0007848D01*
X0259128Y0007713D01*
X0259406Y0007585D01*
X0259687Y0007464D01*
X0259971Y0007349D01*
X0260258Y0007242D01*
X0260547Y0007141D01*
X0260839Y0007048D01*
X0261133Y0006962D01*
X0261428Y0006883D01*
X0261726Y0006812D01*
X0262025Y0006747D01*
X0262326Y0006690D01*
X0262628Y0006641D01*
X0262931Y0006599D01*
X0263236Y0006564D01*
X0263540Y0006537D01*
X0263846Y0006517D01*
X0264152Y0006505D01*
X0264458Y0006500D01*
X0264764Y0006503D01*
X0265070Y0006513D01*
X0265376Y0006531D01*
X0265681Y0006556D01*
X0265985Y0006589D01*
X0266289Y0006629D01*
X0266591Y0006676D01*
X0266892Y0006731D01*
X0267192Y0006793D01*
X0267490Y0006863D01*
X0267786Y0006940D01*
X0268081Y0007024D01*
X0268373Y0007115D01*
X0268663Y0007214D01*
X0268950Y0007319D01*
X0269235Y0007431D01*
X0269517Y0007551D01*
X0269796Y0007677D01*
X0270071Y0007810D01*
X0270344Y0007950D01*
X0270613Y0008096D01*
X0270878Y0008249D01*
X0271139Y0008409D01*
X0271396Y0008575D01*
X0271650Y0008747D01*
X0271899Y0008925D01*
X0272143Y0009109D01*
X0272383Y0009299D01*
X0272618Y0009495D01*
X0272849Y0009697D01*
X0273074Y0009904D01*
X0273294Y0010117D01*
X0273509Y0010335D01*
X0273718Y0010558D01*
X0273922Y0010786D01*
X0274121Y0011019D01*
X0274313Y0011257D01*
X0274500Y0011500D01*
X0105000Y0116500D02*
X0105000Y0119500D01*
X0105000Y0122500D01*
X0103000Y0122500D02*
X0103000Y0119500D01*
X0103000Y0116500D01*
X0114500Y0172500D02*
X0114313Y0172257D01*
X0114121Y0172019D01*
X0113922Y0171786D01*
X0113718Y0171558D01*
X0113509Y0171335D01*
X0113294Y0171117D01*
X0113074Y0170904D01*
X0112849Y0170697D01*
X0112618Y0170495D01*
X0112383Y0170299D01*
X0112143Y0170109D01*
X0111899Y0169925D01*
X0111650Y0169747D01*
X0111396Y0169575D01*
X0111139Y0169409D01*
X0110878Y0169249D01*
X0110613Y0169096D01*
X0110344Y0168950D01*
X0110071Y0168810D01*
X0109796Y0168677D01*
X0109517Y0168551D01*
X0109235Y0168431D01*
X0108950Y0168319D01*
X0108663Y0168214D01*
X0108373Y0168115D01*
X0108081Y0168024D01*
X0107786Y0167940D01*
X0107490Y0167863D01*
X0107192Y0167793D01*
X0106892Y0167731D01*
X0106591Y0167676D01*
X0106289Y0167629D01*
X0105985Y0167589D01*
X0105681Y0167556D01*
X0105376Y0167531D01*
X0105070Y0167513D01*
X0104764Y0167503D01*
X0104458Y0167500D01*
X0104152Y0167505D01*
X0103846Y0167517D01*
X0103540Y0167537D01*
X0103236Y0167564D01*
X0102931Y0167599D01*
X0102628Y0167641D01*
X0102326Y0167690D01*
X0102025Y0167747D01*
X0101726Y0167812D01*
X0101428Y0167883D01*
X0101133Y0167962D01*
X0100839Y0168048D01*
X0100547Y0168141D01*
X0100258Y0168242D01*
X0099971Y0168349D01*
X0099687Y0168464D01*
X0099406Y0168585D01*
X0099128Y0168713D01*
X0098853Y0168848D01*
X0098582Y0168990D01*
X0098314Y0169138D01*
X0098050Y0169293D01*
X0097790Y0169454D01*
X0097534Y0169621D01*
X0097281Y0169795D01*
X0097034Y0169975D01*
X0096790Y0170161D01*
X0096552Y0170352D01*
X0096318Y0170550D01*
X0096089Y0170753D01*
X0095865Y0170962D01*
X0095646Y0171176D01*
X0095433Y0171396D01*
X0095225Y0171620D01*
X0095022Y0171850D01*
X0094826Y0172084D01*
X0094635Y0172324D01*
X0094450Y0172567D01*
X0094271Y0172816D01*
X0094098Y0173068D01*
X0093931Y0173325D01*
X0093771Y0173586D01*
X0093617Y0173851D01*
X0093470Y0174119D01*
X0093329Y0174391D01*
X0093195Y0174666D01*
X0093068Y0174945D01*
X0092947Y0175226D01*
X0092834Y0175511D01*
X0092728Y0175798D01*
X0092628Y0176087D01*
X0092536Y0176379D01*
X0092451Y0176673D01*
X0092373Y0176969D01*
X0092302Y0177267D01*
X0092239Y0177567D01*
X0092183Y0177868D01*
X0092135Y0178170D01*
X0092094Y0178473D01*
X0092060Y0178777D01*
X0092034Y0179082D01*
X0092015Y0179388D01*
X0092004Y0179694D01*
X0092000Y0180000D01*
X0092004Y0180306D01*
X0092015Y0180612D01*
X0092034Y0180918D01*
X0092060Y0181223D01*
X0092094Y0181527D01*
X0092135Y0181830D01*
X0092183Y0182132D01*
X0092239Y0182433D01*
X0092302Y0182733D01*
X0092373Y0183031D01*
X0092451Y0183327D01*
X0092536Y0183621D01*
X0092628Y0183913D01*
X0092728Y0184202D01*
X0092834Y0184489D01*
X0092947Y0184774D01*
X0093068Y0185055D01*
X0093195Y0185334D01*
X0093329Y0185609D01*
X0093470Y0185881D01*
X0093617Y0186149D01*
X0093771Y0186414D01*
X0093931Y0186675D01*
X0094098Y0186932D01*
X0094271Y0187184D01*
X0094450Y0187433D01*
X0094635Y0187676D01*
X0094826Y0187916D01*
X0095022Y0188150D01*
X0095225Y0188380D01*
X0095433Y0188604D01*
X0095646Y0188824D01*
X0095865Y0189038D01*
X0096089Y0189247D01*
X0096318Y0189450D01*
X0096552Y0189648D01*
X0096790Y0189839D01*
X0097034Y0190025D01*
X0097281Y0190205D01*
X0097534Y0190379D01*
X0097790Y0190546D01*
X0098050Y0190707D01*
X0098314Y0190862D01*
X0098582Y0191010D01*
X0098853Y0191152D01*
X0099128Y0191287D01*
X0099406Y0191415D01*
X0099687Y0191536D01*
X0099971Y0191651D01*
X0100258Y0191758D01*
X0100547Y0191859D01*
X0100839Y0191952D01*
X0101133Y0192038D01*
X0101428Y0192117D01*
X0101726Y0192188D01*
X0102025Y0192253D01*
X0102326Y0192310D01*
X0102628Y0192359D01*
X0102931Y0192401D01*
X0103236Y0192436D01*
X0103540Y0192463D01*
X0103846Y0192483D01*
X0104152Y0192495D01*
X0104458Y0192500D01*
X0104764Y0192497D01*
X0105070Y0192487D01*
X0105376Y0192469D01*
X0105681Y0192444D01*
X0105985Y0192411D01*
X0106289Y0192371D01*
X0106591Y0192324D01*
X0106892Y0192269D01*
X0107192Y0192207D01*
X0107490Y0192137D01*
X0107786Y0192060D01*
X0108081Y0191976D01*
X0108373Y0191885D01*
X0108663Y0191786D01*
X0108950Y0191681D01*
X0109235Y0191569D01*
X0109517Y0191449D01*
X0109796Y0191323D01*
X0110071Y0191190D01*
X0110344Y0191050D01*
X0110613Y0190904D01*
X0110878Y0190751D01*
X0111139Y0190591D01*
X0111396Y0190425D01*
X0111650Y0190253D01*
X0111899Y0190075D01*
X0112143Y0189891D01*
X0112383Y0189701D01*
X0112618Y0189505D01*
X0112849Y0189303D01*
X0113074Y0189096D01*
X0113294Y0188883D01*
X0113509Y0188665D01*
X0113718Y0188442D01*
X0113922Y0188214D01*
X0114121Y0187981D01*
X0114313Y0187743D01*
X0114500Y0187500D01*
X0080000Y0187500D02*
X0079813Y0187743D01*
X0079621Y0187981D01*
X0079422Y0188214D01*
X0079218Y0188442D01*
X0079009Y0188665D01*
X0078794Y0188883D01*
X0078574Y0189096D01*
X0078349Y0189303D01*
X0078118Y0189505D01*
X0077883Y0189701D01*
X0077643Y0189891D01*
X0077399Y0190075D01*
X0077150Y0190253D01*
X0076896Y0190425D01*
X0076639Y0190591D01*
X0076378Y0190751D01*
X0076113Y0190904D01*
X0075844Y0191050D01*
X0075571Y0191190D01*
X0075296Y0191323D01*
X0075017Y0191449D01*
X0074735Y0191569D01*
X0074450Y0191681D01*
X0074163Y0191786D01*
X0073873Y0191885D01*
X0073581Y0191976D01*
X0073286Y0192060D01*
X0072990Y0192137D01*
X0072692Y0192207D01*
X0072392Y0192269D01*
X0072091Y0192324D01*
X0071789Y0192371D01*
X0071485Y0192411D01*
X0071181Y0192444D01*
X0070876Y0192469D01*
X0070570Y0192487D01*
X0070264Y0192497D01*
X0069958Y0192500D01*
X0069652Y0192495D01*
X0069346Y0192483D01*
X0069040Y0192463D01*
X0068736Y0192436D01*
X0068431Y0192401D01*
X0068128Y0192359D01*
X0067826Y0192310D01*
X0067525Y0192253D01*
X0067226Y0192188D01*
X0066928Y0192117D01*
X0066633Y0192038D01*
X0066339Y0191952D01*
X0066047Y0191859D01*
X0065758Y0191758D01*
X0065471Y0191651D01*
X0065187Y0191536D01*
X0064906Y0191415D01*
X0064628Y0191287D01*
X0064353Y0191152D01*
X0064082Y0191010D01*
X0063814Y0190862D01*
X0063550Y0190707D01*
X0063290Y0190546D01*
X0063034Y0190379D01*
X0062781Y0190205D01*
X0062534Y0190025D01*
X0062290Y0189839D01*
X0062052Y0189648D01*
X0061818Y0189450D01*
X0061589Y0189247D01*
X0061365Y0189038D01*
X0061146Y0188824D01*
X0060933Y0188604D01*
X0060725Y0188380D01*
X0060522Y0188150D01*
X0060326Y0187916D01*
X0060135Y0187676D01*
X0059950Y0187433D01*
X0059771Y0187184D01*
X0059598Y0186932D01*
X0059431Y0186675D01*
X0059271Y0186414D01*
X0059117Y0186149D01*
X0058970Y0185881D01*
X0058829Y0185609D01*
X0058695Y0185334D01*
X0058568Y0185055D01*
X0058447Y0184774D01*
X0058334Y0184489D01*
X0058228Y0184202D01*
X0058128Y0183913D01*
X0058036Y0183621D01*
X0057951Y0183327D01*
X0057873Y0183031D01*
X0057802Y0182733D01*
X0057739Y0182433D01*
X0057683Y0182132D01*
X0057635Y0181830D01*
X0057594Y0181527D01*
X0057560Y0181223D01*
X0057534Y0180918D01*
X0057515Y0180612D01*
X0057504Y0180306D01*
X0057500Y0180000D01*
X0057504Y0179694D01*
X0057515Y0179388D01*
X0057534Y0179082D01*
X0057560Y0178777D01*
X0057594Y0178473D01*
X0057635Y0178170D01*
X0057683Y0177868D01*
X0057739Y0177567D01*
X0057802Y0177267D01*
X0057873Y0176969D01*
X0057951Y0176673D01*
X0058036Y0176379D01*
X0058128Y0176087D01*
X0058228Y0175798D01*
X0058334Y0175511D01*
X0058447Y0175226D01*
X0058568Y0174945D01*
X0058695Y0174666D01*
X0058829Y0174391D01*
X0058970Y0174119D01*
X0059117Y0173851D01*
X0059271Y0173586D01*
X0059431Y0173325D01*
X0059598Y0173068D01*
X0059771Y0172816D01*
X0059950Y0172567D01*
X0060135Y0172324D01*
X0060326Y0172084D01*
X0060522Y0171850D01*
X0060725Y0171620D01*
X0060933Y0171396D01*
X0061146Y0171176D01*
X0061365Y0170962D01*
X0061589Y0170753D01*
X0061818Y0170550D01*
X0062052Y0170352D01*
X0062290Y0170161D01*
X0062534Y0169975D01*
X0062781Y0169795D01*
X0063034Y0169621D01*
X0063290Y0169454D01*
X0063550Y0169293D01*
X0063814Y0169138D01*
X0064082Y0168990D01*
X0064353Y0168848D01*
X0064628Y0168713D01*
X0064906Y0168585D01*
X0065187Y0168464D01*
X0065471Y0168349D01*
X0065758Y0168242D01*
X0066047Y0168141D01*
X0066339Y0168048D01*
X0066633Y0167962D01*
X0066928Y0167883D01*
X0067226Y0167812D01*
X0067525Y0167747D01*
X0067826Y0167690D01*
X0068128Y0167641D01*
X0068431Y0167599D01*
X0068736Y0167564D01*
X0069040Y0167537D01*
X0069346Y0167517D01*
X0069652Y0167505D01*
X0069958Y0167500D01*
X0070264Y0167503D01*
X0070570Y0167513D01*
X0070876Y0167531D01*
X0071181Y0167556D01*
X0071485Y0167589D01*
X0071789Y0167629D01*
X0072091Y0167676D01*
X0072392Y0167731D01*
X0072692Y0167793D01*
X0072990Y0167863D01*
X0073286Y0167940D01*
X0073581Y0168024D01*
X0073873Y0168115D01*
X0074163Y0168214D01*
X0074450Y0168319D01*
X0074735Y0168431D01*
X0075017Y0168551D01*
X0075296Y0168677D01*
X0075571Y0168810D01*
X0075844Y0168950D01*
X0076113Y0169096D01*
X0076378Y0169249D01*
X0076639Y0169409D01*
X0076896Y0169575D01*
X0077150Y0169747D01*
X0077399Y0169925D01*
X0077643Y0170109D01*
X0077883Y0170299D01*
X0078118Y0170495D01*
X0078349Y0170697D01*
X0078574Y0170904D01*
X0078794Y0171117D01*
X0079009Y0171335D01*
X0079218Y0171558D01*
X0079422Y0171786D01*
X0079621Y0172019D01*
X0079813Y0172257D01*
X0080000Y0172500D01*
D11*
X0091665Y0157255D02*
X0091248Y0156838D01*
X0091248Y0155586D01*
X0093750Y0155586D01*
X0093750Y0156838D01*
X0093333Y0157255D01*
X0091665Y0157255D01*
X0091665Y0154492D02*
X0091248Y0154075D01*
X0091248Y0153241D01*
X0091665Y0152824D01*
X0092082Y0152824D01*
X0092499Y0153241D01*
X0092499Y0154075D01*
X0092916Y0154492D01*
X0093333Y0154492D01*
X0093750Y0154075D01*
X0093750Y0153241D01*
X0093333Y0152824D01*
X0092916Y0152824D01*
X0092499Y0153241D01*
X0092499Y0154075D02*
X0092082Y0154492D01*
X0091665Y0154492D01*
X0091665Y0151730D02*
X0091248Y0151313D01*
X0091248Y0150479D01*
X0091665Y0150062D01*
X0093333Y0150062D01*
X0091665Y0151730D01*
X0093333Y0151730D01*
X0093750Y0151313D01*
X0093750Y0150479D01*
X0093333Y0150062D01*
X0093333Y0148967D02*
X0093750Y0148550D01*
X0093750Y0147716D01*
X0093333Y0147299D01*
X0092499Y0147716D02*
X0092499Y0148550D01*
X0092916Y0148967D01*
X0093333Y0148967D01*
X0092499Y0147716D02*
X0092082Y0147299D01*
X0091665Y0147299D01*
X0091248Y0147716D01*
X0091248Y0148550D01*
X0091665Y0148967D01*
X0093750Y0146205D02*
X0093750Y0144537D01*
X0091248Y0144537D01*
X0092082Y0143443D02*
X0091248Y0142609D01*
X0092082Y0141775D01*
X0093750Y0141775D01*
X0092499Y0141775D02*
X0092499Y0143443D01*
X0092082Y0143443D02*
X0093750Y0143443D01*
X0092499Y0140680D02*
X0092499Y0139012D01*
X0091248Y0140263D01*
X0093750Y0140263D01*
X0091665Y0137918D02*
X0091248Y0137918D01*
X0091248Y0136250D01*
X0091665Y0137918D02*
X0093333Y0136250D01*
X0093750Y0136250D01*
X0092656Y0121252D02*
X0090988Y0121252D01*
X0090988Y0118750D01*
X0089893Y0118750D02*
X0089893Y0120001D01*
X0089476Y0120418D01*
X0088225Y0120418D01*
X0088225Y0118750D01*
X0087131Y0119167D02*
X0086714Y0118750D01*
X0085880Y0118750D01*
X0085463Y0119167D01*
X0087131Y0120835D01*
X0087131Y0119167D01*
X0085463Y0119167D02*
X0085463Y0120835D01*
X0085880Y0121252D01*
X0086714Y0121252D01*
X0087131Y0120835D01*
X0084369Y0120835D02*
X0082701Y0119167D01*
X0083118Y0118750D01*
X0083952Y0118750D01*
X0084369Y0119167D01*
X0084369Y0120835D01*
X0083952Y0121252D01*
X0083118Y0121252D01*
X0082701Y0120835D01*
X0082701Y0119167D01*
X0081606Y0118750D02*
X0079938Y0118750D01*
X0080772Y0118750D02*
X0080772Y0121252D01*
X0079938Y0120418D01*
X0090988Y0120001D02*
X0091822Y0120001D01*
X0114725Y0116335D02*
X0114725Y0114667D01*
X0115142Y0114250D01*
X0115976Y0114250D01*
X0116393Y0114667D01*
X0117488Y0114667D02*
X0117905Y0114250D01*
X0118739Y0114250D01*
X0119156Y0114667D01*
X0119156Y0115084D01*
X0118739Y0115501D01*
X0118322Y0115501D01*
X0118739Y0115501D02*
X0119156Y0115918D01*
X0119156Y0116335D01*
X0118739Y0116752D01*
X0117905Y0116752D01*
X0117488Y0116335D01*
X0116393Y0116335D02*
X0115976Y0116752D01*
X0115142Y0116752D01*
X0114725Y0116335D01*
X0112239Y0095252D02*
X0110988Y0095252D01*
X0110988Y0092750D01*
X0112239Y0092750D01*
X0112656Y0093167D01*
X0112656Y0094835D01*
X0112239Y0095252D01*
X0109893Y0095252D02*
X0109893Y0094835D01*
X0108225Y0093167D01*
X0108225Y0092750D01*
X0107131Y0093167D02*
X0107131Y0094001D01*
X0106714Y0094418D01*
X0106297Y0094418D01*
X0105463Y0094001D01*
X0105463Y0095252D01*
X0107131Y0095252D01*
X0108225Y0095252D02*
X0109893Y0095252D01*
X0107131Y0093167D02*
X0106714Y0092750D01*
X0105880Y0092750D01*
X0105463Y0093167D01*
X0104369Y0092750D02*
X0102701Y0092750D01*
X0103535Y0092750D02*
X0103535Y0095252D01*
X0102701Y0094418D01*
X0101606Y0094835D02*
X0101189Y0095252D01*
X0100355Y0095252D01*
X0099938Y0094835D01*
X0099938Y0094418D01*
X0100355Y0094001D01*
X0101189Y0094001D01*
X0101606Y0093584D01*
X0101606Y0093167D01*
X0101189Y0092750D01*
X0100355Y0092750D01*
X0099938Y0093167D01*
X0098844Y0092750D02*
X0097176Y0092750D01*
X0097176Y0095252D01*
X0095665Y0095252D02*
X0094413Y0094001D01*
X0096082Y0094001D01*
X0095665Y0092750D02*
X0095665Y0095252D01*
X0093319Y0095252D02*
X0093319Y0094835D01*
X0091651Y0093167D01*
X0091651Y0092750D01*
X0091651Y0095252D02*
X0093319Y0095252D01*
X0069250Y0115225D02*
X0066748Y0115225D01*
X0066748Y0116476D01*
X0067165Y0116893D01*
X0067999Y0116893D01*
X0068416Y0116476D01*
X0068416Y0115225D01*
X0068416Y0116059D02*
X0069250Y0116893D01*
X0068833Y0117988D02*
X0069250Y0118405D01*
X0069250Y0119239D01*
X0068833Y0119656D01*
X0068416Y0119656D01*
X0067999Y0119239D01*
X0067999Y0117988D01*
X0068833Y0117988D01*
X0067999Y0117988D02*
X0067165Y0118822D01*
X0066748Y0119656D01*
X0057665Y0108680D02*
X0059333Y0107012D01*
X0059750Y0107012D01*
X0059750Y0105918D02*
X0058916Y0105084D01*
X0058916Y0105501D02*
X0058916Y0104250D01*
X0059750Y0104250D02*
X0057248Y0104250D01*
X0057248Y0105501D01*
X0057665Y0105918D01*
X0058499Y0105918D01*
X0058916Y0105501D01*
X0057248Y0107012D02*
X0057248Y0108680D01*
X0057665Y0108680D01*
X0049034Y0130646D02*
X0049034Y0133649D01*
X0049034Y0132147D02*
X0044530Y0132147D01*
X0046032Y0130646D01*
X0038534Y0131397D02*
X0038534Y0132898D01*
X0037784Y0133649D01*
X0037033Y0133649D01*
X0036282Y0132898D01*
X0036282Y0130646D01*
X0037784Y0130646D01*
X0038534Y0131397D01*
X0036282Y0130646D02*
X0034781Y0132147D01*
X0034030Y0133649D01*
X0058248Y0152667D02*
X0058665Y0152250D01*
X0060333Y0152250D01*
X0060750Y0152667D01*
X0060750Y0153501D01*
X0060333Y0153918D01*
X0060333Y0155012D02*
X0060750Y0155429D01*
X0060750Y0156263D01*
X0060333Y0156680D01*
X0058665Y0156680D01*
X0058248Y0156263D01*
X0058248Y0155429D01*
X0058665Y0155012D01*
X0059082Y0155012D01*
X0059499Y0155429D01*
X0059499Y0156680D01*
X0058665Y0153918D02*
X0058248Y0153501D01*
X0058248Y0152667D01*
X0113748Y0146739D02*
X0114999Y0145488D01*
X0114999Y0147156D01*
X0116250Y0146739D02*
X0113748Y0146739D01*
X0114165Y0144393D02*
X0114999Y0144393D01*
X0115416Y0143976D01*
X0115416Y0142725D01*
X0116250Y0142725D02*
X0113748Y0142725D01*
X0113748Y0143976D01*
X0114165Y0144393D01*
X0115416Y0143559D02*
X0116250Y0144393D01*
X0142250Y0143750D02*
X0142250Y0146252D01*
X0143084Y0145418D01*
X0143918Y0146252D01*
X0143918Y0143750D01*
X0145012Y0143750D02*
X0145012Y0145418D01*
X0145846Y0146252D01*
X0146680Y0145418D01*
X0146680Y0143750D01*
X0147775Y0143750D02*
X0149443Y0146252D01*
X0150537Y0145835D02*
X0150954Y0146252D01*
X0151788Y0146252D01*
X0152205Y0145835D01*
X0152205Y0145418D01*
X0150537Y0143750D01*
X0152205Y0143750D01*
X0153299Y0144167D02*
X0153716Y0143750D01*
X0154550Y0143750D01*
X0154967Y0144167D01*
X0154967Y0144584D01*
X0154550Y0145001D01*
X0154133Y0145001D01*
X0154550Y0145001D02*
X0154967Y0145418D01*
X0154967Y0145835D01*
X0154550Y0146252D01*
X0153716Y0146252D01*
X0153299Y0145835D01*
X0156062Y0145835D02*
X0156479Y0146252D01*
X0157313Y0146252D01*
X0157730Y0145835D01*
X0157730Y0145418D01*
X0156062Y0143750D01*
X0157730Y0143750D01*
X0149443Y0143750D02*
X0147775Y0146252D01*
X0146680Y0145001D02*
X0145012Y0145001D01*
X0172750Y0153667D02*
X0173167Y0153250D01*
X0174001Y0153250D01*
X0174418Y0153667D01*
X0175512Y0153667D02*
X0175929Y0153250D01*
X0176763Y0153250D01*
X0177180Y0153667D01*
X0177180Y0154084D01*
X0176763Y0154501D01*
X0175512Y0154501D01*
X0175512Y0153667D01*
X0175512Y0154501D02*
X0176346Y0155335D01*
X0177180Y0155752D01*
X0174418Y0155335D02*
X0174001Y0155752D01*
X0173167Y0155752D01*
X0172750Y0155335D01*
X0172750Y0153667D01*
X0206748Y0132739D02*
X0206748Y0131905D01*
X0207165Y0131488D01*
X0207165Y0130393D02*
X0207999Y0130393D01*
X0208416Y0129976D01*
X0208416Y0128725D01*
X0209250Y0128725D02*
X0206748Y0128725D01*
X0206748Y0129976D01*
X0207165Y0130393D01*
X0208416Y0129559D02*
X0209250Y0130393D01*
X0208833Y0131488D02*
X0209250Y0131905D01*
X0209250Y0132739D01*
X0208833Y0133156D01*
X0208416Y0133156D01*
X0207999Y0132739D01*
X0207999Y0132322D01*
X0207999Y0132739D02*
X0207582Y0133156D01*
X0207165Y0133156D01*
X0206748Y0132739D01*
X0213167Y0106252D02*
X0212750Y0105835D01*
X0212750Y0104167D01*
X0213167Y0103750D01*
X0214001Y0103750D01*
X0214418Y0104167D01*
X0215512Y0103750D02*
X0217180Y0103750D01*
X0216346Y0103750D02*
X0216346Y0106252D01*
X0215512Y0105418D01*
X0214418Y0105835D02*
X0214001Y0106252D01*
X0213167Y0106252D01*
X0184250Y0099656D02*
X0184250Y0097988D01*
X0182582Y0099656D01*
X0182165Y0099656D01*
X0181748Y0099239D01*
X0181748Y0098405D01*
X0182165Y0097988D01*
X0182165Y0096893D02*
X0182999Y0096893D01*
X0183416Y0096476D01*
X0183416Y0095225D01*
X0184250Y0095225D02*
X0181748Y0095225D01*
X0181748Y0096476D01*
X0182165Y0096893D01*
X0183416Y0096059D02*
X0184250Y0096893D01*
X0158750Y0095666D02*
X0158333Y0095666D01*
X0156665Y0097334D01*
X0156248Y0097334D01*
X0156248Y0095666D01*
X0156248Y0093737D02*
X0158750Y0093737D01*
X0158750Y0092903D02*
X0158750Y0094571D01*
X0157082Y0092903D02*
X0156248Y0093737D01*
X0156248Y0091809D02*
X0156248Y0090141D01*
X0158750Y0090141D01*
X0158333Y0089047D02*
X0157916Y0089047D01*
X0157499Y0088630D01*
X0157499Y0087379D01*
X0158333Y0087379D01*
X0158750Y0087796D01*
X0158750Y0088630D01*
X0158333Y0089047D01*
X0157499Y0090141D02*
X0157499Y0090975D01*
X0156248Y0089047D02*
X0156665Y0088213D01*
X0157499Y0087379D01*
X0158750Y0086284D02*
X0158750Y0084616D01*
X0158750Y0085450D02*
X0156248Y0085450D01*
X0157082Y0084616D01*
X0156665Y0083522D02*
X0156248Y0083105D01*
X0156248Y0082271D01*
X0156665Y0081854D01*
X0158333Y0081854D01*
X0158750Y0082271D01*
X0158750Y0083105D01*
X0158333Y0083522D01*
X0158750Y0080846D02*
X0158750Y0080012D01*
X0158750Y0080429D02*
X0156248Y0080429D01*
X0156248Y0080012D02*
X0156248Y0080846D01*
X0156665Y0078918D02*
X0157499Y0078918D01*
X0157916Y0078501D01*
X0157916Y0077250D01*
X0158750Y0077250D02*
X0156248Y0077250D01*
X0156248Y0078501D01*
X0156665Y0078918D01*
X0169059Y0063193D02*
X0113941Y0062996D01*
X0084180Y0071001D02*
X0082512Y0071001D01*
X0083763Y0072252D01*
X0083763Y0069750D01*
X0081418Y0070167D02*
X0081001Y0069750D01*
X0080167Y0069750D01*
X0079750Y0070167D01*
X0079750Y0071835D01*
X0080167Y0072252D01*
X0081001Y0072252D01*
X0081418Y0071835D01*
X0059250Y0053656D02*
X0059250Y0051988D01*
X0057582Y0053656D01*
X0057165Y0053656D01*
X0056748Y0053239D01*
X0056748Y0052405D01*
X0057165Y0051988D01*
X0057165Y0050893D02*
X0056748Y0050476D01*
X0056748Y0049642D01*
X0057165Y0049225D01*
X0058833Y0049225D01*
X0059250Y0049642D01*
X0059250Y0050476D01*
X0058833Y0050893D01*
X0113941Y0007681D02*
X0169059Y0007681D01*
X0192063Y0005500D02*
X0192065Y0005657D01*
X0192071Y0005813D01*
X0192081Y0005969D01*
X0192095Y0006125D01*
X0192113Y0006281D01*
X0192134Y0006436D01*
X0192160Y0006590D01*
X0192190Y0006744D01*
X0192223Y0006897D01*
X0192260Y0007049D01*
X0192301Y0007200D01*
X0192346Y0007350D01*
X0192395Y0007499D01*
X0192448Y0007647D01*
X0192504Y0007793D01*
X0192564Y0007938D01*
X0192627Y0008081D01*
X0192695Y0008222D01*
X0192765Y0008362D01*
X0192840Y0008500D01*
X0192917Y0008636D01*
X0192999Y0008770D01*
X0193083Y0008901D01*
X0193171Y0009031D01*
X0193262Y0009158D01*
X0193356Y0009283D01*
X0193454Y0009406D01*
X0193554Y0009526D01*
X0193658Y0009644D01*
X0193764Y0009759D01*
X0193873Y0009871D01*
X0193985Y0009980D01*
X0194100Y0010086D01*
X0194218Y0010190D01*
X0194338Y0010290D01*
X0194461Y0010388D01*
X0194586Y0010482D01*
X0194713Y0010573D01*
X0194843Y0010661D01*
X0194974Y0010745D01*
X0195108Y0010827D01*
X0195244Y0010904D01*
X0195382Y0010979D01*
X0195522Y0011049D01*
X0195663Y0011117D01*
X0195806Y0011180D01*
X0195951Y0011240D01*
X0196097Y0011296D01*
X0196245Y0011349D01*
X0196394Y0011398D01*
X0196544Y0011443D01*
X0196695Y0011484D01*
X0196847Y0011521D01*
X0197000Y0011554D01*
X0197154Y0011584D01*
X0197308Y0011610D01*
X0197463Y0011631D01*
X0197619Y0011649D01*
X0197775Y0011663D01*
X0197931Y0011673D01*
X0198087Y0011679D01*
X0198244Y0011681D01*
X0198401Y0011679D01*
X0198557Y0011673D01*
X0198713Y0011663D01*
X0198869Y0011649D01*
X0199025Y0011631D01*
X0199180Y0011610D01*
X0199334Y0011584D01*
X0199488Y0011554D01*
X0199641Y0011521D01*
X0199793Y0011484D01*
X0199944Y0011443D01*
X0200094Y0011398D01*
X0200243Y0011349D01*
X0200391Y0011296D01*
X0200537Y0011240D01*
X0200682Y0011180D01*
X0200825Y0011117D01*
X0200966Y0011049D01*
X0201106Y0010979D01*
X0201244Y0010904D01*
X0201380Y0010827D01*
X0201514Y0010745D01*
X0201645Y0010661D01*
X0201775Y0010573D01*
X0201902Y0010482D01*
X0202027Y0010388D01*
X0202150Y0010290D01*
X0202270Y0010190D01*
X0202388Y0010086D01*
X0202503Y0009980D01*
X0202615Y0009871D01*
X0202724Y0009759D01*
X0202830Y0009644D01*
X0202934Y0009526D01*
X0203034Y0009406D01*
X0203132Y0009283D01*
X0203226Y0009158D01*
X0203317Y0009031D01*
X0203405Y0008901D01*
X0203489Y0008770D01*
X0203571Y0008636D01*
X0203648Y0008500D01*
X0203723Y0008362D01*
X0203793Y0008222D01*
X0203861Y0008081D01*
X0203924Y0007938D01*
X0203984Y0007793D01*
X0204040Y0007647D01*
X0204093Y0007499D01*
X0204142Y0007350D01*
X0204187Y0007200D01*
X0204228Y0007049D01*
X0204265Y0006897D01*
X0204298Y0006744D01*
X0204328Y0006590D01*
X0204354Y0006436D01*
X0204375Y0006281D01*
X0204393Y0006125D01*
X0204407Y0005969D01*
X0204417Y0005813D01*
X0204423Y0005657D01*
X0204425Y0005500D01*
X0208244Y0005500D02*
X0208241Y0005739D01*
X0208232Y0005977D01*
X0208218Y0006216D01*
X0208198Y0006453D01*
X0208171Y0006691D01*
X0208140Y0006927D01*
X0208102Y0007163D01*
X0208059Y0007398D01*
X0208009Y0007631D01*
X0207955Y0007864D01*
X0207894Y0008095D01*
X0207828Y0008324D01*
X0207757Y0008552D01*
X0207680Y0008778D01*
X0207597Y0009002D01*
X0207509Y0009224D01*
X0207416Y0009444D01*
X0207317Y0009661D01*
X0207213Y0009876D01*
X0207104Y0010088D01*
X0206990Y0010298D01*
X0206870Y0010505D01*
X0206746Y0010708D01*
X0206617Y0010909D01*
X0206483Y0011106D01*
X0206344Y0011301D01*
X0206200Y0011491D01*
X0206052Y0011678D01*
X0205899Y0011862D01*
X0205742Y0012042D01*
X0205581Y0012218D01*
X0205415Y0012389D01*
X0205245Y0012557D01*
X0205071Y0012721D01*
X0204893Y0012880D01*
X0204712Y0013035D01*
X0204526Y0013186D01*
X0204337Y0013331D01*
X0204145Y0013473D01*
X0203949Y0013609D01*
X0203750Y0013741D01*
X0203548Y0013868D01*
X0203343Y0013990D01*
X0203134Y0014106D01*
X0202923Y0014218D01*
X0202710Y0014325D01*
X0202494Y0014426D01*
X0202275Y0014522D01*
X0202054Y0014613D01*
X0201831Y0014698D01*
X0201606Y0014778D01*
X0201379Y0014852D01*
X0201151Y0014921D01*
X0200921Y0014984D01*
X0200689Y0015042D01*
X0200456Y0015094D01*
X0200222Y0015140D01*
X0199986Y0015180D01*
X0199750Y0015215D01*
X0199513Y0015244D01*
X0199276Y0015267D01*
X0199037Y0015285D01*
X0198799Y0015296D01*
X0198560Y0015302D01*
X0198322Y0015302D01*
X0198083Y0015296D01*
X0197845Y0015285D01*
X0197606Y0015267D01*
X0197369Y0015244D01*
X0197132Y0015215D01*
X0196896Y0015180D01*
X0196660Y0015140D01*
X0196426Y0015094D01*
X0196193Y0015042D01*
X0195961Y0014984D01*
X0195731Y0014921D01*
X0195503Y0014852D01*
X0195276Y0014778D01*
X0195051Y0014698D01*
X0194828Y0014613D01*
X0194607Y0014522D01*
X0194388Y0014426D01*
X0194172Y0014325D01*
X0193959Y0014218D01*
X0193748Y0014106D01*
X0193540Y0013990D01*
X0193334Y0013868D01*
X0193132Y0013741D01*
X0192933Y0013609D01*
X0192737Y0013473D01*
X0192545Y0013331D01*
X0192356Y0013186D01*
X0192170Y0013035D01*
X0191989Y0012880D01*
X0191811Y0012721D01*
X0191637Y0012557D01*
X0191467Y0012389D01*
X0191301Y0012218D01*
X0191140Y0012042D01*
X0190983Y0011862D01*
X0190830Y0011678D01*
X0190682Y0011491D01*
X0190538Y0011301D01*
X0190399Y0011106D01*
X0190265Y0010909D01*
X0190136Y0010708D01*
X0190012Y0010505D01*
X0189892Y0010298D01*
X0189778Y0010088D01*
X0189669Y0009876D01*
X0189565Y0009661D01*
X0189466Y0009444D01*
X0189373Y0009224D01*
X0189285Y0009002D01*
X0189202Y0008778D01*
X0189125Y0008552D01*
X0189054Y0008324D01*
X0188988Y0008095D01*
X0188927Y0007864D01*
X0188873Y0007631D01*
X0188823Y0007398D01*
X0188780Y0007163D01*
X0188742Y0006927D01*
X0188711Y0006691D01*
X0188684Y0006453D01*
X0188664Y0006216D01*
X0188650Y0005977D01*
X0188641Y0005739D01*
X0188638Y0005500D01*
X0236748Y0063725D02*
X0236748Y0064976D01*
X0237165Y0065393D01*
X0238833Y0065393D01*
X0239250Y0064976D01*
X0239250Y0063725D01*
X0236748Y0063725D01*
X0237582Y0066488D02*
X0236748Y0067322D01*
X0239250Y0067322D01*
X0239250Y0066488D02*
X0239250Y0068156D01*
X0266462Y0076751D02*
X0267963Y0075250D01*
X0266462Y0076751D02*
X0270966Y0076751D01*
X0270966Y0075250D02*
X0270966Y0078253D01*
X0276962Y0078253D02*
X0277713Y0076751D01*
X0279214Y0075250D01*
X0279214Y0077502D01*
X0279964Y0078253D01*
X0280715Y0078253D01*
X0281466Y0077502D01*
X0281466Y0076001D01*
X0280715Y0075250D01*
X0279214Y0075250D01*
X0158750Y0098845D02*
X0158333Y0098428D01*
X0156665Y0100096D01*
X0158333Y0100096D01*
X0158750Y0099679D01*
X0158750Y0098845D01*
X0158333Y0098428D02*
X0156665Y0098428D01*
X0156248Y0098845D01*
X0156248Y0099679D01*
X0156665Y0100096D01*
X0156248Y0101190D02*
X0157499Y0101190D01*
X0157082Y0102024D01*
X0157082Y0102441D01*
X0157499Y0102858D01*
X0158333Y0102858D01*
X0158750Y0102441D01*
X0158750Y0101607D01*
X0158333Y0101190D01*
X0156248Y0101190D02*
X0156248Y0102858D01*
X0156918Y0111750D02*
X0156084Y0112584D01*
X0156501Y0112584D02*
X0155250Y0112584D01*
X0155250Y0111750D02*
X0155250Y0114252D01*
X0156501Y0114252D01*
X0156918Y0113835D01*
X0156918Y0113001D01*
X0156501Y0112584D01*
X0158012Y0111750D02*
X0159680Y0111750D01*
X0158846Y0111750D02*
X0158846Y0114252D01*
X0158012Y0113418D01*
X0195642Y0183250D02*
X0196476Y0183250D01*
X0196893Y0183667D01*
X0197988Y0183667D02*
X0198405Y0183250D01*
X0199239Y0183250D01*
X0199656Y0183667D01*
X0199656Y0184501D01*
X0199239Y0184918D01*
X0198822Y0184918D01*
X0197988Y0184501D01*
X0197988Y0185752D01*
X0199656Y0185752D01*
X0196893Y0185335D02*
X0196476Y0185752D01*
X0195642Y0185752D01*
X0195225Y0185335D01*
X0195225Y0183667D01*
X0195642Y0183250D01*
X0188763Y0197250D02*
X0187929Y0197250D01*
X0187512Y0197667D01*
X0187512Y0198501D02*
X0188346Y0198918D01*
X0188763Y0198918D01*
X0189180Y0198501D01*
X0189180Y0197667D01*
X0188763Y0197250D01*
X0187512Y0198501D02*
X0187512Y0199752D01*
X0189180Y0199752D01*
X0186418Y0199335D02*
X0186418Y0198501D01*
X0186001Y0198084D01*
X0184750Y0198084D01*
X0184750Y0197250D02*
X0184750Y0199752D01*
X0186001Y0199752D01*
X0186418Y0199335D01*
X0185584Y0198084D02*
X0186418Y0197250D01*
X0152156Y0189752D02*
X0152156Y0189335D01*
X0150488Y0187667D01*
X0150488Y0187250D01*
X0149393Y0187667D02*
X0148976Y0187250D01*
X0148142Y0187250D01*
X0147725Y0187667D01*
X0147725Y0189335D01*
X0148142Y0189752D01*
X0148976Y0189752D01*
X0149393Y0189335D01*
X0150488Y0189752D02*
X0152156Y0189752D01*
X0127656Y0190167D02*
X0127239Y0189750D01*
X0126405Y0189750D01*
X0125988Y0190167D01*
X0125988Y0190584D01*
X0126405Y0191001D01*
X0127239Y0191001D01*
X0127656Y0190584D01*
X0127656Y0190167D01*
X0127239Y0191001D02*
X0127656Y0191418D01*
X0127656Y0191835D01*
X0127239Y0192252D01*
X0126405Y0192252D01*
X0125988Y0191835D01*
X0125988Y0191418D01*
X0126405Y0191001D01*
X0124893Y0190167D02*
X0124476Y0189750D01*
X0123642Y0189750D01*
X0123225Y0190167D01*
X0123225Y0191835D01*
X0123642Y0192252D01*
X0124476Y0192252D01*
X0124893Y0191835D01*
D12*
X0125544Y0194450D02*
X0128947Y0197853D01*
X0125544Y0197853D02*
X0128947Y0194450D01*
X0123422Y0194450D02*
X0121721Y0196151D01*
X0122571Y0196151D02*
X0120019Y0196151D01*
X0120019Y0194450D02*
X0120019Y0199554D01*
X0122571Y0199554D01*
X0123422Y0198704D01*
X0123422Y0197002D01*
X0122571Y0196151D01*
X0112513Y0194450D02*
X0110811Y0194450D01*
X0111662Y0194450D02*
X0111662Y0199554D01*
X0110811Y0199554D01*
X0108689Y0197002D02*
X0108689Y0194450D01*
X0106137Y0194450D01*
X0105287Y0195301D01*
X0106137Y0196151D01*
X0108689Y0196151D01*
X0108689Y0197002D02*
X0107839Y0197853D01*
X0106137Y0197853D01*
X0102454Y0197853D02*
X0102454Y0194450D01*
X0101603Y0194450D02*
X0103305Y0194450D01*
X0102454Y0197853D02*
X0101603Y0197853D01*
X0102454Y0199554D02*
X0102454Y0200405D01*
X0099552Y0197853D02*
X0098701Y0197853D01*
X0096999Y0196151D01*
X0096999Y0194450D02*
X0096999Y0197853D01*
X0094878Y0197002D02*
X0094878Y0196151D01*
X0091475Y0196151D01*
X0091475Y0195301D02*
X0091475Y0197002D01*
X0092325Y0197853D01*
X0094027Y0197853D01*
X0094878Y0197002D01*
X0094027Y0194450D02*
X0092325Y0194450D01*
X0091475Y0195301D01*
X0089353Y0195301D02*
X0088502Y0194450D01*
X0086801Y0194450D01*
X0085950Y0195301D01*
X0086801Y0197002D02*
X0088502Y0197002D01*
X0089353Y0196151D01*
X0089353Y0195301D01*
X0086801Y0197002D02*
X0085950Y0197853D01*
X0085950Y0198704D01*
X0086801Y0199554D01*
X0088502Y0199554D01*
X0089353Y0198704D01*
X0072502Y0198604D02*
X0070801Y0196902D01*
X0070801Y0194350D01*
X0070801Y0196902D02*
X0069099Y0198604D01*
X0069099Y0199454D01*
X0066978Y0199454D02*
X0063575Y0199454D01*
X0063575Y0194350D01*
X0066978Y0194350D01*
X0065276Y0196902D02*
X0063575Y0196902D01*
X0061453Y0194350D02*
X0058901Y0196902D01*
X0058050Y0196051D02*
X0061453Y0199454D01*
X0058050Y0199454D02*
X0058050Y0194350D01*
X0055554Y0194550D02*
X0055554Y0192849D01*
X0055554Y0193699D02*
X0050450Y0193699D01*
X0050450Y0192849D02*
X0050450Y0194550D01*
X0048054Y0192550D02*
X0048054Y0189147D01*
X0048054Y0187025D02*
X0048054Y0184473D01*
X0047204Y0183622D01*
X0045502Y0183622D01*
X0044651Y0184473D01*
X0044651Y0187025D01*
X0042950Y0187025D02*
X0048054Y0187025D01*
X0050450Y0187464D02*
X0055554Y0187464D01*
X0055554Y0185342D02*
X0055554Y0182790D01*
X0054704Y0181939D01*
X0053002Y0181939D01*
X0052151Y0182790D01*
X0052151Y0185342D01*
X0050450Y0185342D02*
X0055554Y0185342D01*
X0055554Y0179817D02*
X0051301Y0179817D01*
X0050450Y0178967D01*
X0050450Y0177265D01*
X0051301Y0176415D01*
X0055554Y0176415D01*
X0055554Y0174293D02*
X0055554Y0170890D01*
X0055554Y0172591D02*
X0050450Y0172591D01*
X0048054Y0172573D02*
X0042950Y0172573D01*
X0040554Y0171268D02*
X0035450Y0171268D01*
X0035450Y0167865D01*
X0038002Y0169567D02*
X0038002Y0171268D01*
X0040554Y0171268D02*
X0040554Y0167865D01*
X0039704Y0173390D02*
X0040554Y0174241D01*
X0040554Y0175942D01*
X0039704Y0176793D01*
X0036301Y0176793D01*
X0035450Y0175942D01*
X0035450Y0174241D01*
X0036301Y0173390D01*
X0035450Y0178774D02*
X0035450Y0180476D01*
X0035450Y0179625D02*
X0040554Y0179625D01*
X0040554Y0180476D02*
X0040554Y0178774D01*
X0042950Y0178948D02*
X0042950Y0180650D01*
X0043801Y0181501D01*
X0047204Y0181501D01*
X0048054Y0180650D01*
X0048054Y0178948D01*
X0047204Y0178098D01*
X0043801Y0178098D01*
X0042950Y0178948D01*
X0042950Y0175976D02*
X0048054Y0175976D01*
X0046353Y0174274D01*
X0048054Y0172573D01*
X0040554Y0182598D02*
X0037151Y0182598D01*
X0035450Y0184299D01*
X0037151Y0186001D01*
X0040554Y0186001D01*
X0040554Y0188122D02*
X0040554Y0191525D01*
X0035450Y0191525D01*
X0035450Y0188122D01*
X0038002Y0189824D02*
X0038002Y0191525D01*
X0042950Y0192550D02*
X0048054Y0192550D01*
X0045502Y0192550D02*
X0045502Y0190849D01*
X0050450Y0190867D02*
X0055554Y0190867D01*
X0050450Y0187464D01*
X0044651Y0185324D02*
X0042950Y0183622D01*
X0039704Y0193647D02*
X0036301Y0193647D01*
X0035450Y0194498D01*
X0035450Y0197050D01*
X0040554Y0197050D01*
X0040554Y0194498D01*
X0039704Y0193647D01*
X0072502Y0198604D02*
X0072502Y0199454D01*
X0026054Y0119550D02*
X0020950Y0119550D01*
X0024353Y0117849D02*
X0026054Y0116147D01*
X0020950Y0116147D01*
X0021801Y0114025D02*
X0022651Y0113175D01*
X0022651Y0110622D01*
X0023502Y0110622D02*
X0020950Y0110622D01*
X0020950Y0113175D01*
X0021801Y0114025D01*
X0024353Y0113175D02*
X0024353Y0111473D01*
X0023502Y0110622D01*
X0020950Y0108501D02*
X0020950Y0106799D01*
X0020950Y0107650D02*
X0026054Y0107650D01*
X0026054Y0108501D01*
X0023502Y0104817D02*
X0021801Y0104817D01*
X0020950Y0103967D01*
X0020950Y0102265D01*
X0022651Y0101415D02*
X0022651Y0104817D01*
X0023502Y0104817D02*
X0024353Y0103967D01*
X0024353Y0102265D01*
X0023502Y0101415D01*
X0022651Y0101415D01*
X0024353Y0117849D02*
X0026054Y0119550D01*
X0119540Y0014452D02*
X0119540Y0009348D01*
X0119540Y0011049D02*
X0122943Y0014452D01*
X0125064Y0014452D02*
X0125064Y0009348D01*
X0128467Y0009348D01*
X0126766Y0011900D02*
X0125064Y0011900D01*
X0122943Y0009348D02*
X0120390Y0011900D01*
X0125064Y0014452D02*
X0128467Y0014452D01*
X0130589Y0014452D02*
X0130589Y0013601D01*
X0132291Y0011900D01*
X0132291Y0009348D01*
X0132291Y0011900D02*
X0133992Y0013601D01*
X0133992Y0014452D01*
X0136114Y0014452D02*
X0138666Y0014452D01*
X0139517Y0013601D01*
X0139517Y0012751D01*
X0138666Y0011900D01*
X0136114Y0011900D01*
X0138666Y0011900D02*
X0139517Y0011049D01*
X0139517Y0010198D01*
X0138666Y0009348D01*
X0136114Y0009348D01*
X0136114Y0014452D01*
X0141638Y0013601D02*
X0141638Y0010198D01*
X0142489Y0009348D01*
X0144191Y0009348D01*
X0145041Y0010198D01*
X0145041Y0013601D01*
X0144191Y0014452D01*
X0142489Y0014452D01*
X0141638Y0013601D01*
X0147163Y0012751D02*
X0147163Y0009348D01*
X0147163Y0011900D02*
X0150566Y0011900D01*
X0150566Y0012751D02*
X0150566Y0009348D01*
X0152688Y0009348D02*
X0152688Y0014452D01*
X0155240Y0014452D01*
X0156091Y0013601D01*
X0156091Y0011900D01*
X0155240Y0011049D01*
X0152688Y0011049D01*
X0154389Y0011049D02*
X0156091Y0009348D01*
X0158213Y0009348D02*
X0160765Y0009348D01*
X0161616Y0010198D01*
X0161616Y0013601D01*
X0160765Y0014452D01*
X0158213Y0014452D01*
X0158213Y0009348D01*
X0150566Y0012751D02*
X0148865Y0014452D01*
X0147163Y0012751D01*
X0254550Y0033350D02*
X0254550Y0038454D01*
X0257102Y0038454D01*
X0257953Y0037604D01*
X0257953Y0035902D01*
X0257102Y0035051D01*
X0254550Y0035051D01*
X0260075Y0034201D02*
X0260925Y0033350D01*
X0262627Y0033350D01*
X0263478Y0034201D01*
X0263478Y0035902D01*
X0262627Y0036753D01*
X0260925Y0036753D01*
X0260075Y0035902D01*
X0260075Y0034201D01*
X0265599Y0034201D02*
X0265599Y0036753D01*
X0269002Y0036753D02*
X0269002Y0034201D01*
X0268152Y0033350D01*
X0267301Y0034201D01*
X0266450Y0033350D01*
X0265599Y0034201D01*
X0271124Y0034201D02*
X0271124Y0035902D01*
X0271975Y0036753D01*
X0273676Y0036753D01*
X0274527Y0035902D01*
X0274527Y0035051D01*
X0271124Y0035051D01*
X0271124Y0034201D02*
X0271975Y0033350D01*
X0273676Y0033350D01*
X0276649Y0033350D02*
X0276649Y0036753D01*
X0278350Y0036753D02*
X0276649Y0035051D01*
X0278350Y0036753D02*
X0279201Y0036753D01*
X0290946Y0089950D02*
X0290946Y0093353D01*
X0293498Y0091651D02*
X0293498Y0089950D01*
X0296050Y0089950D02*
X0290946Y0089950D01*
X0293498Y0095475D02*
X0292647Y0096325D01*
X0292647Y0098027D01*
X0293498Y0098878D01*
X0294349Y0098878D01*
X0294349Y0095475D01*
X0295199Y0095475D02*
X0293498Y0095475D01*
X0295199Y0095475D02*
X0296050Y0096325D01*
X0296050Y0098027D01*
X0296050Y0100999D02*
X0292647Y0100999D01*
X0292647Y0101850D01*
X0293498Y0102701D01*
X0292647Y0103552D01*
X0293498Y0104402D01*
X0296050Y0104402D01*
X0296050Y0102701D02*
X0293498Y0102701D01*
X0295199Y0106524D02*
X0294349Y0107375D01*
X0294349Y0109927D01*
X0293498Y0109927D02*
X0296050Y0109927D01*
X0296050Y0107375D01*
X0295199Y0106524D01*
X0292647Y0107375D02*
X0292647Y0109076D01*
X0293498Y0109927D01*
X0296050Y0112049D02*
X0296050Y0113750D01*
X0296050Y0112900D02*
X0290946Y0112900D01*
X0290946Y0112049D01*
X0293498Y0115732D02*
X0292647Y0116583D01*
X0292647Y0118284D01*
X0293498Y0119135D01*
X0294349Y0119135D01*
X0294349Y0115732D01*
X0295199Y0115732D02*
X0293498Y0115732D01*
X0295199Y0115732D02*
X0296050Y0116583D01*
X0296050Y0118284D01*
X0269446Y0168950D02*
X0269446Y0172353D01*
X0269446Y0170651D02*
X0274550Y0170651D01*
X0273699Y0174475D02*
X0270296Y0174475D01*
X0269446Y0175325D01*
X0269446Y0177027D01*
X0270296Y0177878D01*
X0273699Y0177878D01*
X0274550Y0177027D01*
X0274550Y0175325D01*
X0273699Y0174475D01*
X0266050Y0173825D02*
X0265199Y0172975D01*
X0260946Y0172975D01*
X0261796Y0170853D02*
X0260946Y0170002D01*
X0260946Y0168301D01*
X0261796Y0167450D01*
X0265199Y0167450D01*
X0266050Y0168301D01*
X0266050Y0170002D01*
X0265199Y0170853D01*
X0261796Y0170853D01*
X0266050Y0173825D02*
X0266050Y0175527D01*
X0265199Y0176378D01*
X0260946Y0176378D01*
X0260946Y0178499D02*
X0260946Y0181902D01*
X0260946Y0180201D02*
X0266050Y0180201D01*
X0266050Y0184024D02*
X0260946Y0184024D01*
X0260946Y0186576D01*
X0261796Y0187427D01*
X0263498Y0187427D01*
X0264349Y0186576D01*
X0264349Y0184024D01*
X0269446Y0185524D02*
X0269446Y0188076D01*
X0270296Y0188927D01*
X0271998Y0188927D01*
X0272849Y0188076D01*
X0272849Y0185524D01*
X0274550Y0185524D02*
X0269446Y0185524D01*
X0270296Y0191049D02*
X0273699Y0191049D01*
X0274550Y0191900D01*
X0274550Y0193601D01*
X0273699Y0194452D01*
X0270296Y0194452D02*
X0269446Y0193601D01*
X0269446Y0191900D01*
X0270296Y0191049D01*
X0266050Y0190400D02*
X0266050Y0192101D01*
X0265199Y0192952D01*
X0260946Y0192952D01*
X0260946Y0195074D02*
X0260946Y0198476D01*
X0260946Y0196775D02*
X0266050Y0196775D01*
X0266050Y0190400D02*
X0265199Y0189549D01*
X0260946Y0189549D01*
D13*
X0047000Y0010500D02*
X0037000Y0010500D01*
X0042000Y0015500D01*
X0047000Y0010500D01*
X0045409Y0012091D02*
X0038591Y0012091D01*
X0040190Y0013690D02*
X0043810Y0013690D01*
X0042212Y0015288D02*
X0041788Y0015288D01*
D14*
X0061500Y0042000D02*
X0071500Y0042000D01*
X0071560Y0042002D01*
X0071621Y0042007D01*
X0071680Y0042016D01*
X0071739Y0042029D01*
X0071798Y0042045D01*
X0071855Y0042065D01*
X0071910Y0042088D01*
X0071965Y0042115D01*
X0072017Y0042144D01*
X0072068Y0042177D01*
X0072117Y0042213D01*
X0072163Y0042251D01*
X0072207Y0042293D01*
X0072249Y0042337D01*
X0072287Y0042383D01*
X0072323Y0042432D01*
X0072356Y0042483D01*
X0072385Y0042535D01*
X0072412Y0042590D01*
X0072435Y0042645D01*
X0072455Y0042702D01*
X0072471Y0042761D01*
X0072484Y0042820D01*
X0072493Y0042879D01*
X0072498Y0042940D01*
X0072500Y0043000D01*
X0072500Y0060000D01*
X0072498Y0060060D01*
X0072493Y0060121D01*
X0072484Y0060180D01*
X0072471Y0060239D01*
X0072455Y0060298D01*
X0072435Y0060355D01*
X0072412Y0060410D01*
X0072385Y0060465D01*
X0072356Y0060517D01*
X0072323Y0060568D01*
X0072287Y0060617D01*
X0072249Y0060663D01*
X0072207Y0060707D01*
X0072163Y0060749D01*
X0072117Y0060787D01*
X0072068Y0060823D01*
X0072017Y0060856D01*
X0071965Y0060885D01*
X0071910Y0060912D01*
X0071855Y0060935D01*
X0071798Y0060955D01*
X0071739Y0060971D01*
X0071680Y0060984D01*
X0071621Y0060993D01*
X0071560Y0060998D01*
X0071500Y0061000D01*
X0061500Y0061000D01*
X0061440Y0060998D01*
X0061379Y0060993D01*
X0061320Y0060984D01*
X0061261Y0060971D01*
X0061202Y0060955D01*
X0061145Y0060935D01*
X0061090Y0060912D01*
X0061035Y0060885D01*
X0060983Y0060856D01*
X0060932Y0060823D01*
X0060883Y0060787D01*
X0060837Y0060749D01*
X0060793Y0060707D01*
X0060751Y0060663D01*
X0060713Y0060617D01*
X0060677Y0060568D01*
X0060644Y0060517D01*
X0060615Y0060465D01*
X0060588Y0060410D01*
X0060565Y0060355D01*
X0060545Y0060298D01*
X0060529Y0060239D01*
X0060516Y0060180D01*
X0060507Y0060121D01*
X0060502Y0060060D01*
X0060500Y0060000D01*
X0060500Y0043000D01*
X0060502Y0042940D01*
X0060507Y0042879D01*
X0060516Y0042820D01*
X0060529Y0042761D01*
X0060545Y0042702D01*
X0060565Y0042645D01*
X0060588Y0042590D01*
X0060615Y0042535D01*
X0060644Y0042483D01*
X0060677Y0042432D01*
X0060713Y0042383D01*
X0060751Y0042337D01*
X0060793Y0042293D01*
X0060837Y0042251D01*
X0060883Y0042213D01*
X0060932Y0042177D01*
X0060983Y0042144D01*
X0061035Y0042115D01*
X0061090Y0042088D01*
X0061145Y0042065D01*
X0061202Y0042045D01*
X0061261Y0042029D01*
X0061320Y0042016D01*
X0061379Y0042007D01*
X0061440Y0042002D01*
X0061500Y0042000D01*
X0055758Y0044000D02*
X0055758Y0166000D01*
X0055689Y0166000D02*
X0005358Y0166000D01*
X0005358Y0044000D01*
X0016358Y0044000D01*
X0016358Y0166000D01*
X0017134Y0142500D02*
X0055689Y0142500D01*
X0057797Y0138435D02*
X0057797Y0136166D01*
X0061200Y0136166D01*
X0061200Y0134752D02*
X0058931Y0134752D01*
X0059499Y0136166D02*
X0059499Y0137301D01*
X0061200Y0134752D02*
X0061200Y0133050D01*
X0060633Y0132483D01*
X0058931Y0132483D01*
X0061200Y0131069D02*
X0061200Y0128800D01*
X0061200Y0129934D02*
X0057797Y0129934D01*
X0058931Y0128800D01*
X0064500Y0139000D02*
X0064500Y0141000D01*
X0065500Y0140000D02*
X0063500Y0140000D01*
X0063000Y0142000D02*
X0067000Y0142000D01*
X0071000Y0142000D01*
X0071000Y0144000D01*
X0063000Y0144000D01*
X0063000Y0142000D01*
X0067000Y0142000D02*
X0067000Y0139500D01*
X0071391Y0138313D02*
X0071553Y0138422D01*
X0071713Y0138535D01*
X0071869Y0138652D01*
X0072023Y0138773D01*
X0072173Y0138898D01*
X0072321Y0139026D01*
X0072465Y0139158D01*
X0072607Y0139293D01*
X0072744Y0139432D01*
X0072879Y0139574D01*
X0073009Y0139719D01*
X0073137Y0139868D01*
X0073260Y0140019D01*
X0073380Y0140174D01*
X0073496Y0140331D01*
X0073608Y0140491D01*
X0073717Y0140654D01*
X0073821Y0140819D01*
X0073921Y0140987D01*
X0074017Y0141158D01*
X0074109Y0141330D01*
X0074196Y0141505D01*
X0074279Y0141682D01*
X0074358Y0141861D01*
X0074433Y0142042D01*
X0074503Y0142224D01*
X0074569Y0142408D01*
X0074630Y0142594D01*
X0074686Y0142781D01*
X0074738Y0142970D01*
X0074785Y0143159D01*
X0074828Y0143350D01*
X0074866Y0143542D01*
X0074899Y0143735D01*
X0074928Y0143928D01*
X0074952Y0144122D01*
X0074971Y0144317D01*
X0074985Y0144512D01*
X0074995Y0144707D01*
X0074999Y0144902D01*
X0074999Y0145098D01*
X0074995Y0145293D01*
X0074985Y0145488D01*
X0074971Y0145683D01*
X0074952Y0145878D01*
X0074928Y0146072D01*
X0074899Y0146265D01*
X0074866Y0146458D01*
X0074828Y0146650D01*
X0074785Y0146841D01*
X0074738Y0147030D01*
X0074686Y0147219D01*
X0074630Y0147406D01*
X0074569Y0147592D01*
X0074503Y0147776D01*
X0074433Y0147958D01*
X0074358Y0148139D01*
X0074279Y0148318D01*
X0074196Y0148495D01*
X0074109Y0148670D01*
X0074017Y0148842D01*
X0073921Y0149013D01*
X0073821Y0149181D01*
X0073717Y0149346D01*
X0073608Y0149509D01*
X0073496Y0149669D01*
X0073380Y0149826D01*
X0073260Y0149981D01*
X0073137Y0150132D01*
X0073009Y0150281D01*
X0072879Y0150426D01*
X0072744Y0150568D01*
X0072607Y0150707D01*
X0072465Y0150842D01*
X0072321Y0150974D01*
X0072173Y0151102D01*
X0072023Y0151227D01*
X0071869Y0151348D01*
X0071713Y0151465D01*
X0071553Y0151578D01*
X0071391Y0151687D01*
X0067000Y0150500D02*
X0067000Y0147500D01*
X0062609Y0151687D02*
X0062447Y0151578D01*
X0062287Y0151465D01*
X0062131Y0151348D01*
X0061977Y0151227D01*
X0061827Y0151102D01*
X0061679Y0150974D01*
X0061535Y0150842D01*
X0061393Y0150707D01*
X0061256Y0150568D01*
X0061121Y0150426D01*
X0060991Y0150281D01*
X0060863Y0150132D01*
X0060740Y0149981D01*
X0060620Y0149826D01*
X0060504Y0149669D01*
X0060392Y0149509D01*
X0060283Y0149346D01*
X0060179Y0149181D01*
X0060079Y0149013D01*
X0059983Y0148842D01*
X0059891Y0148670D01*
X0059804Y0148495D01*
X0059721Y0148318D01*
X0059642Y0148139D01*
X0059567Y0147958D01*
X0059497Y0147776D01*
X0059431Y0147592D01*
X0059370Y0147406D01*
X0059314Y0147219D01*
X0059262Y0147030D01*
X0059215Y0146841D01*
X0059172Y0146650D01*
X0059134Y0146458D01*
X0059101Y0146265D01*
X0059072Y0146072D01*
X0059048Y0145878D01*
X0059029Y0145683D01*
X0059015Y0145488D01*
X0059005Y0145293D01*
X0059001Y0145098D01*
X0059001Y0144902D01*
X0059005Y0144707D01*
X0059015Y0144512D01*
X0059029Y0144317D01*
X0059048Y0144122D01*
X0059072Y0143928D01*
X0059101Y0143735D01*
X0059134Y0143542D01*
X0059172Y0143350D01*
X0059215Y0143159D01*
X0059262Y0142970D01*
X0059314Y0142781D01*
X0059370Y0142594D01*
X0059431Y0142408D01*
X0059497Y0142224D01*
X0059567Y0142042D01*
X0059642Y0141861D01*
X0059721Y0141682D01*
X0059804Y0141505D01*
X0059891Y0141330D01*
X0059983Y0141158D01*
X0060079Y0140987D01*
X0060179Y0140819D01*
X0060283Y0140654D01*
X0060392Y0140491D01*
X0060504Y0140331D01*
X0060620Y0140174D01*
X0060740Y0140019D01*
X0060863Y0139868D01*
X0060991Y0139719D01*
X0061121Y0139574D01*
X0061256Y0139432D01*
X0061393Y0139293D01*
X0061535Y0139158D01*
X0061679Y0139026D01*
X0061827Y0138898D01*
X0061977Y0138773D01*
X0062131Y0138652D01*
X0062287Y0138535D01*
X0062447Y0138422D01*
X0062609Y0138313D01*
X0085300Y0131500D02*
X0085300Y0163500D01*
X0085302Y0163576D01*
X0085308Y0163652D01*
X0085317Y0163727D01*
X0085331Y0163802D01*
X0085348Y0163876D01*
X0085369Y0163949D01*
X0085393Y0164021D01*
X0085422Y0164092D01*
X0085453Y0164161D01*
X0085488Y0164228D01*
X0085527Y0164293D01*
X0085569Y0164357D01*
X0085614Y0164418D01*
X0085662Y0164477D01*
X0085713Y0164533D01*
X0085767Y0164587D01*
X0085823Y0164638D01*
X0085882Y0164686D01*
X0085943Y0164731D01*
X0086007Y0164773D01*
X0086072Y0164812D01*
X0086139Y0164847D01*
X0086208Y0164878D01*
X0086279Y0164907D01*
X0086351Y0164931D01*
X0086424Y0164952D01*
X0086498Y0164969D01*
X0086573Y0164983D01*
X0086648Y0164992D01*
X0086724Y0164998D01*
X0086800Y0165000D01*
X0099200Y0165000D01*
X0099276Y0164998D01*
X0099352Y0164992D01*
X0099427Y0164983D01*
X0099502Y0164969D01*
X0099576Y0164952D01*
X0099649Y0164931D01*
X0099721Y0164907D01*
X0099792Y0164878D01*
X0099861Y0164847D01*
X0099928Y0164812D01*
X0099993Y0164773D01*
X0100057Y0164731D01*
X0100118Y0164686D01*
X0100177Y0164638D01*
X0100233Y0164587D01*
X0100287Y0164533D01*
X0100338Y0164477D01*
X0100386Y0164418D01*
X0100431Y0164357D01*
X0100473Y0164293D01*
X0100512Y0164228D01*
X0100547Y0164161D01*
X0100578Y0164092D01*
X0100607Y0164021D01*
X0100631Y0163949D01*
X0100652Y0163876D01*
X0100669Y0163802D01*
X0100683Y0163727D01*
X0100692Y0163652D01*
X0100698Y0163576D01*
X0100700Y0163500D01*
X0100700Y0131500D01*
X0100698Y0131424D01*
X0100692Y0131348D01*
X0100683Y0131273D01*
X0100669Y0131198D01*
X0100652Y0131124D01*
X0100631Y0131051D01*
X0100607Y0130979D01*
X0100578Y0130908D01*
X0100547Y0130839D01*
X0100512Y0130772D01*
X0100473Y0130707D01*
X0100431Y0130643D01*
X0100386Y0130582D01*
X0100338Y0130523D01*
X0100287Y0130467D01*
X0100233Y0130413D01*
X0100177Y0130362D01*
X0100118Y0130314D01*
X0100057Y0130269D01*
X0099993Y0130227D01*
X0099928Y0130188D01*
X0099861Y0130153D01*
X0099792Y0130122D01*
X0099721Y0130093D01*
X0099649Y0130069D01*
X0099576Y0130048D01*
X0099502Y0130031D01*
X0099427Y0130017D01*
X0099352Y0130008D01*
X0099276Y0130002D01*
X0099200Y0130000D01*
X0095000Y0130000D01*
X0091000Y0130000D01*
X0086800Y0130000D01*
X0086724Y0130002D01*
X0086648Y0130008D01*
X0086573Y0130017D01*
X0086498Y0130031D01*
X0086424Y0130048D01*
X0086351Y0130069D01*
X0086279Y0130093D01*
X0086208Y0130122D01*
X0086139Y0130153D01*
X0086072Y0130188D01*
X0086007Y0130227D01*
X0085943Y0130269D01*
X0085882Y0130314D01*
X0085823Y0130362D01*
X0085767Y0130413D01*
X0085713Y0130467D01*
X0085662Y0130523D01*
X0085614Y0130582D01*
X0085569Y0130643D01*
X0085527Y0130707D01*
X0085488Y0130772D01*
X0085453Y0130839D01*
X0085422Y0130908D01*
X0085393Y0130979D01*
X0085369Y0131051D01*
X0085348Y0131124D01*
X0085331Y0131198D01*
X0085317Y0131273D01*
X0085308Y0131348D01*
X0085302Y0131424D01*
X0085300Y0131500D01*
X0091000Y0130000D02*
X0091002Y0130088D01*
X0091008Y0130177D01*
X0091018Y0130265D01*
X0091031Y0130352D01*
X0091049Y0130439D01*
X0091070Y0130525D01*
X0091095Y0130610D01*
X0091124Y0130693D01*
X0091157Y0130776D01*
X0091193Y0130856D01*
X0091232Y0130935D01*
X0091275Y0131013D01*
X0091322Y0131088D01*
X0091372Y0131161D01*
X0091425Y0131232D01*
X0091481Y0131301D01*
X0091540Y0131367D01*
X0091602Y0131430D01*
X0091666Y0131490D01*
X0091733Y0131548D01*
X0091803Y0131602D01*
X0091875Y0131654D01*
X0091949Y0131702D01*
X0092026Y0131747D01*
X0092104Y0131788D01*
X0092184Y0131826D01*
X0092265Y0131860D01*
X0092348Y0131891D01*
X0092433Y0131918D01*
X0092518Y0131941D01*
X0092604Y0131960D01*
X0092692Y0131976D01*
X0092779Y0131988D01*
X0092867Y0131996D01*
X0092956Y0132000D01*
X0093044Y0132000D01*
X0093133Y0131996D01*
X0093221Y0131988D01*
X0093308Y0131976D01*
X0093396Y0131960D01*
X0093482Y0131941D01*
X0093567Y0131918D01*
X0093652Y0131891D01*
X0093735Y0131860D01*
X0093816Y0131826D01*
X0093896Y0131788D01*
X0093974Y0131747D01*
X0094051Y0131702D01*
X0094125Y0131654D01*
X0094197Y0131602D01*
X0094267Y0131548D01*
X0094334Y0131490D01*
X0094398Y0131430D01*
X0094460Y0131367D01*
X0094519Y0131301D01*
X0094575Y0131232D01*
X0094628Y0131161D01*
X0094678Y0131088D01*
X0094725Y0131013D01*
X0094768Y0130935D01*
X0094807Y0130856D01*
X0094843Y0130776D01*
X0094876Y0130693D01*
X0094905Y0130610D01*
X0094930Y0130525D01*
X0094951Y0130439D01*
X0094969Y0130352D01*
X0094982Y0130265D01*
X0094992Y0130177D01*
X0094998Y0130088D01*
X0095000Y0130000D01*
X0095500Y0125500D02*
X0112500Y0125500D01*
X0112560Y0125498D01*
X0112621Y0125493D01*
X0112680Y0125484D01*
X0112739Y0125471D01*
X0112798Y0125455D01*
X0112855Y0125435D01*
X0112910Y0125412D01*
X0112965Y0125385D01*
X0113017Y0125356D01*
X0113068Y0125323D01*
X0113117Y0125287D01*
X0113163Y0125249D01*
X0113207Y0125207D01*
X0113249Y0125163D01*
X0113287Y0125117D01*
X0113323Y0125068D01*
X0113356Y0125017D01*
X0113385Y0124965D01*
X0113412Y0124910D01*
X0113435Y0124855D01*
X0113455Y0124798D01*
X0113471Y0124739D01*
X0113484Y0124680D01*
X0113493Y0124621D01*
X0113498Y0124560D01*
X0113500Y0124500D01*
X0113500Y0114500D01*
X0113498Y0114440D01*
X0113493Y0114379D01*
X0113484Y0114320D01*
X0113471Y0114261D01*
X0113455Y0114202D01*
X0113435Y0114145D01*
X0113412Y0114090D01*
X0113385Y0114035D01*
X0113356Y0113983D01*
X0113323Y0113932D01*
X0113287Y0113883D01*
X0113249Y0113837D01*
X0113207Y0113793D01*
X0113163Y0113751D01*
X0113117Y0113713D01*
X0113068Y0113677D01*
X0113017Y0113644D01*
X0112965Y0113615D01*
X0112910Y0113588D01*
X0112855Y0113565D01*
X0112798Y0113545D01*
X0112739Y0113529D01*
X0112680Y0113516D01*
X0112621Y0113507D01*
X0112560Y0113502D01*
X0112500Y0113500D01*
X0095500Y0113500D01*
X0095440Y0113502D01*
X0095379Y0113507D01*
X0095320Y0113516D01*
X0095261Y0113529D01*
X0095202Y0113545D01*
X0095145Y0113565D01*
X0095090Y0113588D01*
X0095035Y0113615D01*
X0094983Y0113644D01*
X0094932Y0113677D01*
X0094883Y0113713D01*
X0094837Y0113751D01*
X0094793Y0113793D01*
X0094751Y0113837D01*
X0094713Y0113883D01*
X0094677Y0113932D01*
X0094644Y0113983D01*
X0094615Y0114035D01*
X0094588Y0114090D01*
X0094565Y0114145D01*
X0094545Y0114202D01*
X0094529Y0114261D01*
X0094516Y0114320D01*
X0094507Y0114379D01*
X0094502Y0114440D01*
X0094500Y0114500D01*
X0094500Y0124500D01*
X0094502Y0124560D01*
X0094507Y0124621D01*
X0094516Y0124680D01*
X0094529Y0124739D01*
X0094545Y0124798D01*
X0094565Y0124855D01*
X0094588Y0124910D01*
X0094615Y0124965D01*
X0094644Y0125017D01*
X0094677Y0125068D01*
X0094713Y0125117D01*
X0094751Y0125163D01*
X0094793Y0125207D01*
X0094837Y0125249D01*
X0094883Y0125287D01*
X0094932Y0125323D01*
X0094983Y0125356D01*
X0095035Y0125385D01*
X0095090Y0125412D01*
X0095145Y0125435D01*
X0095202Y0125455D01*
X0095261Y0125471D01*
X0095320Y0125484D01*
X0095379Y0125493D01*
X0095440Y0125498D01*
X0095500Y0125500D01*
X0102500Y0119500D02*
X0103000Y0119500D01*
X0105000Y0119500D02*
X0105500Y0119500D01*
X0118000Y0130000D02*
X0125000Y0130000D01*
X0125060Y0130002D01*
X0125121Y0130007D01*
X0125180Y0130016D01*
X0125239Y0130029D01*
X0125298Y0130045D01*
X0125355Y0130065D01*
X0125410Y0130088D01*
X0125465Y0130115D01*
X0125517Y0130144D01*
X0125568Y0130177D01*
X0125617Y0130213D01*
X0125663Y0130251D01*
X0125707Y0130293D01*
X0125749Y0130337D01*
X0125787Y0130383D01*
X0125823Y0130432D01*
X0125856Y0130483D01*
X0125885Y0130535D01*
X0125912Y0130590D01*
X0125935Y0130645D01*
X0125955Y0130702D01*
X0125971Y0130761D01*
X0125984Y0130820D01*
X0125993Y0130879D01*
X0125998Y0130940D01*
X0126000Y0131000D01*
X0126000Y0132500D01*
X0125500Y0133000D01*
X0125500Y0152000D01*
X0126000Y0152500D01*
X0126000Y0154000D01*
X0125998Y0154060D01*
X0125993Y0154121D01*
X0125984Y0154180D01*
X0125971Y0154239D01*
X0125955Y0154298D01*
X0125935Y0154355D01*
X0125912Y0154410D01*
X0125885Y0154465D01*
X0125856Y0154517D01*
X0125823Y0154568D01*
X0125787Y0154617D01*
X0125749Y0154663D01*
X0125707Y0154707D01*
X0125663Y0154749D01*
X0125617Y0154787D01*
X0125568Y0154823D01*
X0125517Y0154856D01*
X0125465Y0154885D01*
X0125410Y0154912D01*
X0125355Y0154935D01*
X0125298Y0154955D01*
X0125239Y0154971D01*
X0125180Y0154984D01*
X0125121Y0154993D01*
X0125060Y0154998D01*
X0125000Y0155000D01*
X0118000Y0155000D01*
X0117940Y0154998D01*
X0117879Y0154993D01*
X0117820Y0154984D01*
X0117761Y0154971D01*
X0117702Y0154955D01*
X0117645Y0154935D01*
X0117590Y0154912D01*
X0117535Y0154885D01*
X0117483Y0154856D01*
X0117432Y0154823D01*
X0117383Y0154787D01*
X0117337Y0154749D01*
X0117293Y0154707D01*
X0117251Y0154663D01*
X0117213Y0154617D01*
X0117177Y0154568D01*
X0117144Y0154517D01*
X0117115Y0154465D01*
X0117088Y0154410D01*
X0117065Y0154355D01*
X0117045Y0154298D01*
X0117029Y0154239D01*
X0117016Y0154180D01*
X0117007Y0154121D01*
X0117002Y0154060D01*
X0117000Y0154000D01*
X0117000Y0152500D01*
X0117500Y0152000D01*
X0117500Y0133000D01*
X0117000Y0132500D01*
X0117000Y0131000D01*
X0117002Y0130940D01*
X0117007Y0130879D01*
X0117016Y0130820D01*
X0117029Y0130761D01*
X0117045Y0130702D01*
X0117065Y0130645D01*
X0117088Y0130590D01*
X0117115Y0130535D01*
X0117144Y0130483D01*
X0117177Y0130432D01*
X0117213Y0130383D01*
X0117251Y0130337D01*
X0117293Y0130293D01*
X0117337Y0130251D01*
X0117383Y0130213D01*
X0117432Y0130177D01*
X0117483Y0130144D01*
X0117535Y0130115D01*
X0117590Y0130088D01*
X0117645Y0130065D01*
X0117702Y0130045D01*
X0117761Y0130029D01*
X0117820Y0130016D01*
X0117879Y0130007D01*
X0117940Y0130002D01*
X0118000Y0130000D01*
X0121499Y0137651D02*
X0121499Y0139919D01*
X0123200Y0139352D02*
X0119797Y0139352D01*
X0121499Y0137651D01*
X0122633Y0141334D02*
X0123200Y0141334D01*
X0122633Y0141334D02*
X0120364Y0143602D01*
X0119797Y0143602D01*
X0119797Y0141334D01*
X0120364Y0145017D02*
X0119797Y0145584D01*
X0119797Y0146718D01*
X0120364Y0147285D01*
X0122633Y0145017D01*
X0123200Y0145584D01*
X0123200Y0146718D01*
X0122633Y0147285D01*
X0120364Y0147285D01*
X0120364Y0145017D02*
X0122633Y0145017D01*
X0132000Y0150700D02*
X0132000Y0138300D01*
X0132002Y0138224D01*
X0132008Y0138148D01*
X0132017Y0138073D01*
X0132031Y0137998D01*
X0132048Y0137924D01*
X0132069Y0137851D01*
X0132093Y0137779D01*
X0132122Y0137708D01*
X0132153Y0137639D01*
X0132188Y0137572D01*
X0132227Y0137507D01*
X0132269Y0137443D01*
X0132314Y0137382D01*
X0132362Y0137323D01*
X0132413Y0137267D01*
X0132467Y0137213D01*
X0132523Y0137162D01*
X0132582Y0137114D01*
X0132643Y0137069D01*
X0132707Y0137027D01*
X0132772Y0136988D01*
X0132839Y0136953D01*
X0132908Y0136922D01*
X0132979Y0136893D01*
X0133051Y0136869D01*
X0133124Y0136848D01*
X0133198Y0136831D01*
X0133273Y0136817D01*
X0133348Y0136808D01*
X0133424Y0136802D01*
X0133500Y0136800D01*
X0170500Y0136800D01*
X0170576Y0136802D01*
X0170652Y0136808D01*
X0170727Y0136817D01*
X0170802Y0136831D01*
X0170876Y0136848D01*
X0170949Y0136869D01*
X0171021Y0136893D01*
X0171092Y0136922D01*
X0171161Y0136953D01*
X0171228Y0136988D01*
X0171293Y0137027D01*
X0171357Y0137069D01*
X0171418Y0137114D01*
X0171477Y0137162D01*
X0171533Y0137213D01*
X0171587Y0137267D01*
X0171638Y0137323D01*
X0171686Y0137382D01*
X0171731Y0137443D01*
X0171773Y0137507D01*
X0171812Y0137572D01*
X0171847Y0137639D01*
X0171878Y0137708D01*
X0171907Y0137779D01*
X0171931Y0137851D01*
X0171952Y0137924D01*
X0171969Y0137998D01*
X0171983Y0138073D01*
X0171992Y0138148D01*
X0171998Y0138224D01*
X0172000Y0138300D01*
X0172000Y0142500D01*
X0172000Y0146500D01*
X0172000Y0150700D01*
X0171998Y0150776D01*
X0171992Y0150852D01*
X0171983Y0150927D01*
X0171969Y0151002D01*
X0171952Y0151076D01*
X0171931Y0151149D01*
X0171907Y0151221D01*
X0171878Y0151292D01*
X0171847Y0151361D01*
X0171812Y0151428D01*
X0171773Y0151493D01*
X0171731Y0151557D01*
X0171686Y0151618D01*
X0171638Y0151677D01*
X0171587Y0151733D01*
X0171533Y0151787D01*
X0171477Y0151838D01*
X0171418Y0151886D01*
X0171357Y0151931D01*
X0171293Y0151973D01*
X0171228Y0152012D01*
X0171161Y0152047D01*
X0171092Y0152078D01*
X0171021Y0152107D01*
X0170949Y0152131D01*
X0170876Y0152152D01*
X0170802Y0152169D01*
X0170727Y0152183D01*
X0170652Y0152192D01*
X0170576Y0152198D01*
X0170500Y0152200D01*
X0133500Y0152200D01*
X0133424Y0152198D01*
X0133348Y0152192D01*
X0133273Y0152183D01*
X0133198Y0152169D01*
X0133124Y0152152D01*
X0133051Y0152131D01*
X0132979Y0152107D01*
X0132908Y0152078D01*
X0132839Y0152047D01*
X0132772Y0152012D01*
X0132707Y0151973D01*
X0132643Y0151931D01*
X0132582Y0151886D01*
X0132523Y0151838D01*
X0132467Y0151787D01*
X0132413Y0151733D01*
X0132362Y0151677D01*
X0132314Y0151618D01*
X0132269Y0151557D01*
X0132227Y0151493D01*
X0132188Y0151428D01*
X0132153Y0151361D01*
X0132122Y0151292D01*
X0132093Y0151221D01*
X0132069Y0151149D01*
X0132048Y0151076D01*
X0132031Y0151002D01*
X0132017Y0150927D01*
X0132008Y0150852D01*
X0132002Y0150776D01*
X0132000Y0150700D01*
X0153751Y0167800D02*
X0156019Y0167800D01*
X0154885Y0167800D02*
X0154885Y0171203D01*
X0153751Y0170069D01*
X0157434Y0170069D02*
X0157434Y0168367D01*
X0158001Y0167800D01*
X0159702Y0167800D01*
X0159702Y0170069D01*
X0161117Y0169501D02*
X0162251Y0169501D01*
X0161117Y0167800D02*
X0161117Y0171203D01*
X0163385Y0171203D01*
X0161000Y0177000D02*
X0159000Y0177000D01*
X0159000Y0185000D01*
X0161000Y0185000D01*
X0161000Y0181000D01*
X0161000Y0177000D01*
X0162000Y0178500D02*
X0164000Y0178500D01*
X0163000Y0179500D02*
X0163000Y0177500D01*
X0163500Y0181000D02*
X0161000Y0181000D01*
X0164687Y0185391D02*
X0164578Y0185553D01*
X0164465Y0185713D01*
X0164348Y0185869D01*
X0164227Y0186023D01*
X0164102Y0186173D01*
X0163974Y0186321D01*
X0163842Y0186465D01*
X0163707Y0186607D01*
X0163568Y0186744D01*
X0163426Y0186879D01*
X0163281Y0187009D01*
X0163132Y0187137D01*
X0162981Y0187260D01*
X0162826Y0187380D01*
X0162669Y0187496D01*
X0162509Y0187608D01*
X0162346Y0187717D01*
X0162181Y0187821D01*
X0162013Y0187921D01*
X0161842Y0188017D01*
X0161670Y0188109D01*
X0161495Y0188196D01*
X0161318Y0188279D01*
X0161139Y0188358D01*
X0160958Y0188433D01*
X0160776Y0188503D01*
X0160592Y0188569D01*
X0160406Y0188630D01*
X0160219Y0188686D01*
X0160030Y0188738D01*
X0159841Y0188785D01*
X0159650Y0188828D01*
X0159458Y0188866D01*
X0159265Y0188899D01*
X0159072Y0188928D01*
X0158878Y0188952D01*
X0158683Y0188971D01*
X0158488Y0188985D01*
X0158293Y0188995D01*
X0158098Y0188999D01*
X0157902Y0188999D01*
X0157707Y0188995D01*
X0157512Y0188985D01*
X0157317Y0188971D01*
X0157122Y0188952D01*
X0156928Y0188928D01*
X0156735Y0188899D01*
X0156542Y0188866D01*
X0156350Y0188828D01*
X0156159Y0188785D01*
X0155970Y0188738D01*
X0155781Y0188686D01*
X0155594Y0188630D01*
X0155408Y0188569D01*
X0155224Y0188503D01*
X0155042Y0188433D01*
X0154861Y0188358D01*
X0154682Y0188279D01*
X0154505Y0188196D01*
X0154330Y0188109D01*
X0154158Y0188017D01*
X0153987Y0187921D01*
X0153819Y0187821D01*
X0153654Y0187717D01*
X0153491Y0187608D01*
X0153331Y0187496D01*
X0153174Y0187380D01*
X0153019Y0187260D01*
X0152868Y0187137D01*
X0152719Y0187009D01*
X0152574Y0186879D01*
X0152432Y0186744D01*
X0152293Y0186607D01*
X0152158Y0186465D01*
X0152026Y0186321D01*
X0151898Y0186173D01*
X0151773Y0186023D01*
X0151652Y0185869D01*
X0151535Y0185713D01*
X0151422Y0185553D01*
X0151313Y0185391D01*
X0152500Y0181000D02*
X0155500Y0181000D01*
X0151313Y0176609D02*
X0151422Y0176447D01*
X0151535Y0176287D01*
X0151652Y0176131D01*
X0151773Y0175977D01*
X0151898Y0175827D01*
X0152026Y0175679D01*
X0152158Y0175535D01*
X0152293Y0175393D01*
X0152432Y0175256D01*
X0152574Y0175121D01*
X0152719Y0174991D01*
X0152868Y0174863D01*
X0153019Y0174740D01*
X0153174Y0174620D01*
X0153331Y0174504D01*
X0153491Y0174392D01*
X0153654Y0174283D01*
X0153819Y0174179D01*
X0153987Y0174079D01*
X0154158Y0173983D01*
X0154330Y0173891D01*
X0154505Y0173804D01*
X0154682Y0173721D01*
X0154861Y0173642D01*
X0155042Y0173567D01*
X0155224Y0173497D01*
X0155408Y0173431D01*
X0155594Y0173370D01*
X0155781Y0173314D01*
X0155970Y0173262D01*
X0156159Y0173215D01*
X0156350Y0173172D01*
X0156542Y0173134D01*
X0156735Y0173101D01*
X0156928Y0173072D01*
X0157122Y0173048D01*
X0157317Y0173029D01*
X0157512Y0173015D01*
X0157707Y0173005D01*
X0157902Y0173001D01*
X0158098Y0173001D01*
X0158293Y0173005D01*
X0158488Y0173015D01*
X0158683Y0173029D01*
X0158878Y0173048D01*
X0159072Y0173072D01*
X0159265Y0173101D01*
X0159458Y0173134D01*
X0159650Y0173172D01*
X0159841Y0173215D01*
X0160030Y0173262D01*
X0160219Y0173314D01*
X0160406Y0173370D01*
X0160592Y0173431D01*
X0160776Y0173497D01*
X0160958Y0173567D01*
X0161139Y0173642D01*
X0161318Y0173721D01*
X0161495Y0173804D01*
X0161670Y0173891D01*
X0161842Y0173983D01*
X0162013Y0174079D01*
X0162181Y0174179D01*
X0162346Y0174283D01*
X0162509Y0174392D01*
X0162669Y0174504D01*
X0162826Y0174620D01*
X0162981Y0174740D01*
X0163132Y0174863D01*
X0163281Y0174991D01*
X0163426Y0175121D01*
X0163568Y0175256D01*
X0163707Y0175393D01*
X0163842Y0175535D01*
X0163974Y0175679D01*
X0164102Y0175827D01*
X0164227Y0175977D01*
X0164348Y0176131D01*
X0164465Y0176287D01*
X0164578Y0176447D01*
X0164687Y0176609D01*
X0150435Y0176203D02*
X0148166Y0176203D01*
X0148166Y0172800D01*
X0146752Y0172800D02*
X0146752Y0175069D01*
X0148166Y0174501D02*
X0149301Y0174501D01*
X0146752Y0172800D02*
X0145050Y0172800D01*
X0144483Y0173367D01*
X0144483Y0175069D01*
X0143069Y0172800D02*
X0140800Y0172800D01*
X0141934Y0172800D02*
X0141934Y0176203D01*
X0140800Y0175069D01*
X0134500Y0177500D02*
X0134500Y0180500D01*
X0130109Y0176313D02*
X0129947Y0176422D01*
X0129787Y0176535D01*
X0129631Y0176652D01*
X0129477Y0176773D01*
X0129327Y0176898D01*
X0129179Y0177026D01*
X0129035Y0177158D01*
X0128893Y0177293D01*
X0128756Y0177432D01*
X0128621Y0177574D01*
X0128491Y0177719D01*
X0128363Y0177868D01*
X0128240Y0178019D01*
X0128120Y0178174D01*
X0128004Y0178331D01*
X0127892Y0178491D01*
X0127783Y0178654D01*
X0127679Y0178819D01*
X0127579Y0178987D01*
X0127483Y0179158D01*
X0127391Y0179330D01*
X0127304Y0179505D01*
X0127221Y0179682D01*
X0127142Y0179861D01*
X0127067Y0180042D01*
X0126997Y0180224D01*
X0126931Y0180408D01*
X0126870Y0180594D01*
X0126814Y0180781D01*
X0126762Y0180970D01*
X0126715Y0181159D01*
X0126672Y0181350D01*
X0126634Y0181542D01*
X0126601Y0181735D01*
X0126572Y0181928D01*
X0126548Y0182122D01*
X0126529Y0182317D01*
X0126515Y0182512D01*
X0126505Y0182707D01*
X0126501Y0182902D01*
X0126501Y0183098D01*
X0126505Y0183293D01*
X0126515Y0183488D01*
X0126529Y0183683D01*
X0126548Y0183878D01*
X0126572Y0184072D01*
X0126601Y0184265D01*
X0126634Y0184458D01*
X0126672Y0184650D01*
X0126715Y0184841D01*
X0126762Y0185030D01*
X0126814Y0185219D01*
X0126870Y0185406D01*
X0126931Y0185592D01*
X0126997Y0185776D01*
X0127067Y0185958D01*
X0127142Y0186139D01*
X0127221Y0186318D01*
X0127304Y0186495D01*
X0127391Y0186670D01*
X0127483Y0186842D01*
X0127579Y0187013D01*
X0127679Y0187181D01*
X0127783Y0187346D01*
X0127892Y0187509D01*
X0128004Y0187669D01*
X0128120Y0187826D01*
X0128240Y0187981D01*
X0128363Y0188132D01*
X0128491Y0188281D01*
X0128621Y0188426D01*
X0128756Y0188568D01*
X0128893Y0188707D01*
X0129035Y0188842D01*
X0129179Y0188974D01*
X0129327Y0189102D01*
X0129477Y0189227D01*
X0129631Y0189348D01*
X0129787Y0189465D01*
X0129947Y0189578D01*
X0130109Y0189687D01*
X0134500Y0188500D02*
X0134500Y0186000D01*
X0138500Y0186000D01*
X0138500Y0184000D01*
X0130500Y0184000D01*
X0130500Y0186000D01*
X0134500Y0186000D01*
X0136000Y0188000D02*
X0138000Y0188000D01*
X0137000Y0189000D02*
X0137000Y0187000D01*
X0138891Y0189687D02*
X0139053Y0189578D01*
X0139213Y0189465D01*
X0139369Y0189348D01*
X0139523Y0189227D01*
X0139673Y0189102D01*
X0139821Y0188974D01*
X0139965Y0188842D01*
X0140107Y0188707D01*
X0140244Y0188568D01*
X0140379Y0188426D01*
X0140509Y0188281D01*
X0140637Y0188132D01*
X0140760Y0187981D01*
X0140880Y0187826D01*
X0140996Y0187669D01*
X0141108Y0187509D01*
X0141217Y0187346D01*
X0141321Y0187181D01*
X0141421Y0187013D01*
X0141517Y0186842D01*
X0141609Y0186670D01*
X0141696Y0186495D01*
X0141779Y0186318D01*
X0141858Y0186139D01*
X0141933Y0185958D01*
X0142003Y0185776D01*
X0142069Y0185592D01*
X0142130Y0185406D01*
X0142186Y0185219D01*
X0142238Y0185030D01*
X0142285Y0184841D01*
X0142328Y0184650D01*
X0142366Y0184458D01*
X0142399Y0184265D01*
X0142428Y0184072D01*
X0142452Y0183878D01*
X0142471Y0183683D01*
X0142485Y0183488D01*
X0142495Y0183293D01*
X0142499Y0183098D01*
X0142499Y0182902D01*
X0142495Y0182707D01*
X0142485Y0182512D01*
X0142471Y0182317D01*
X0142452Y0182122D01*
X0142428Y0181928D01*
X0142399Y0181735D01*
X0142366Y0181542D01*
X0142328Y0181350D01*
X0142285Y0181159D01*
X0142238Y0180970D01*
X0142186Y0180781D01*
X0142130Y0180594D01*
X0142069Y0180408D01*
X0142003Y0180224D01*
X0141933Y0180042D01*
X0141858Y0179861D01*
X0141779Y0179682D01*
X0141696Y0179505D01*
X0141609Y0179330D01*
X0141517Y0179158D01*
X0141421Y0178987D01*
X0141321Y0178819D01*
X0141217Y0178654D01*
X0141108Y0178491D01*
X0140996Y0178331D01*
X0140880Y0178174D01*
X0140760Y0178019D01*
X0140637Y0177868D01*
X0140509Y0177719D01*
X0140379Y0177574D01*
X0140244Y0177432D01*
X0140107Y0177293D01*
X0139965Y0177158D01*
X0139821Y0177026D01*
X0139673Y0176898D01*
X0139523Y0176773D01*
X0139369Y0176652D01*
X0139213Y0176535D01*
X0139053Y0176422D01*
X0138891Y0176313D01*
X0094500Y0180000D02*
X0094503Y0180245D01*
X0094512Y0180491D01*
X0094527Y0180736D01*
X0094548Y0180980D01*
X0094575Y0181224D01*
X0094608Y0181467D01*
X0094647Y0181710D01*
X0094692Y0181951D01*
X0094743Y0182191D01*
X0094800Y0182430D01*
X0094862Y0182667D01*
X0094931Y0182903D01*
X0095005Y0183137D01*
X0095085Y0183369D01*
X0095170Y0183599D01*
X0095261Y0183827D01*
X0095358Y0184052D01*
X0095460Y0184276D01*
X0095568Y0184496D01*
X0095681Y0184714D01*
X0095799Y0184929D01*
X0095923Y0185141D01*
X0096051Y0185350D01*
X0096185Y0185556D01*
X0096324Y0185758D01*
X0096468Y0185957D01*
X0096617Y0186152D01*
X0096770Y0186344D01*
X0096928Y0186532D01*
X0097090Y0186716D01*
X0097258Y0186895D01*
X0097429Y0187071D01*
X0097605Y0187242D01*
X0097784Y0187410D01*
X0097968Y0187572D01*
X0098156Y0187730D01*
X0098348Y0187883D01*
X0098543Y0188032D01*
X0098742Y0188176D01*
X0098944Y0188315D01*
X0099150Y0188449D01*
X0099359Y0188577D01*
X0099571Y0188701D01*
X0099786Y0188819D01*
X0100004Y0188932D01*
X0100224Y0189040D01*
X0100448Y0189142D01*
X0100673Y0189239D01*
X0100901Y0189330D01*
X0101131Y0189415D01*
X0101363Y0189495D01*
X0101597Y0189569D01*
X0101833Y0189638D01*
X0102070Y0189700D01*
X0102309Y0189757D01*
X0102549Y0189808D01*
X0102790Y0189853D01*
X0103033Y0189892D01*
X0103276Y0189925D01*
X0103520Y0189952D01*
X0103764Y0189973D01*
X0104009Y0189988D01*
X0104255Y0189997D01*
X0104500Y0190000D01*
X0104745Y0189997D01*
X0104991Y0189988D01*
X0105236Y0189973D01*
X0105480Y0189952D01*
X0105724Y0189925D01*
X0105967Y0189892D01*
X0106210Y0189853D01*
X0106451Y0189808D01*
X0106691Y0189757D01*
X0106930Y0189700D01*
X0107167Y0189638D01*
X0107403Y0189569D01*
X0107637Y0189495D01*
X0107869Y0189415D01*
X0108099Y0189330D01*
X0108327Y0189239D01*
X0108552Y0189142D01*
X0108776Y0189040D01*
X0108996Y0188932D01*
X0109214Y0188819D01*
X0109429Y0188701D01*
X0109641Y0188577D01*
X0109850Y0188449D01*
X0110056Y0188315D01*
X0110258Y0188176D01*
X0110457Y0188032D01*
X0110652Y0187883D01*
X0110844Y0187730D01*
X0111032Y0187572D01*
X0111216Y0187410D01*
X0111395Y0187242D01*
X0111571Y0187071D01*
X0111742Y0186895D01*
X0111910Y0186716D01*
X0112072Y0186532D01*
X0112230Y0186344D01*
X0112383Y0186152D01*
X0112532Y0185957D01*
X0112676Y0185758D01*
X0112815Y0185556D01*
X0112949Y0185350D01*
X0113077Y0185141D01*
X0113201Y0184929D01*
X0113319Y0184714D01*
X0113432Y0184496D01*
X0113540Y0184276D01*
X0113642Y0184052D01*
X0113739Y0183827D01*
X0113830Y0183599D01*
X0113915Y0183369D01*
X0113995Y0183137D01*
X0114069Y0182903D01*
X0114138Y0182667D01*
X0114200Y0182430D01*
X0114257Y0182191D01*
X0114308Y0181951D01*
X0114353Y0181710D01*
X0114392Y0181467D01*
X0114425Y0181224D01*
X0114452Y0180980D01*
X0114473Y0180736D01*
X0114488Y0180491D01*
X0114497Y0180245D01*
X0114500Y0180000D01*
X0114497Y0179755D01*
X0114488Y0179509D01*
X0114473Y0179264D01*
X0114452Y0179020D01*
X0114425Y0178776D01*
X0114392Y0178533D01*
X0114353Y0178290D01*
X0114308Y0178049D01*
X0114257Y0177809D01*
X0114200Y0177570D01*
X0114138Y0177333D01*
X0114069Y0177097D01*
X0113995Y0176863D01*
X0113915Y0176631D01*
X0113830Y0176401D01*
X0113739Y0176173D01*
X0113642Y0175948D01*
X0113540Y0175724D01*
X0113432Y0175504D01*
X0113319Y0175286D01*
X0113201Y0175071D01*
X0113077Y0174859D01*
X0112949Y0174650D01*
X0112815Y0174444D01*
X0112676Y0174242D01*
X0112532Y0174043D01*
X0112383Y0173848D01*
X0112230Y0173656D01*
X0112072Y0173468D01*
X0111910Y0173284D01*
X0111742Y0173105D01*
X0111571Y0172929D01*
X0111395Y0172758D01*
X0111216Y0172590D01*
X0111032Y0172428D01*
X0110844Y0172270D01*
X0110652Y0172117D01*
X0110457Y0171968D01*
X0110258Y0171824D01*
X0110056Y0171685D01*
X0109850Y0171551D01*
X0109641Y0171423D01*
X0109429Y0171299D01*
X0109214Y0171181D01*
X0108996Y0171068D01*
X0108776Y0170960D01*
X0108552Y0170858D01*
X0108327Y0170761D01*
X0108099Y0170670D01*
X0107869Y0170585D01*
X0107637Y0170505D01*
X0107403Y0170431D01*
X0107167Y0170362D01*
X0106930Y0170300D01*
X0106691Y0170243D01*
X0106451Y0170192D01*
X0106210Y0170147D01*
X0105967Y0170108D01*
X0105724Y0170075D01*
X0105480Y0170048D01*
X0105236Y0170027D01*
X0104991Y0170012D01*
X0104745Y0170003D01*
X0104500Y0170000D01*
X0104255Y0170003D01*
X0104009Y0170012D01*
X0103764Y0170027D01*
X0103520Y0170048D01*
X0103276Y0170075D01*
X0103033Y0170108D01*
X0102790Y0170147D01*
X0102549Y0170192D01*
X0102309Y0170243D01*
X0102070Y0170300D01*
X0101833Y0170362D01*
X0101597Y0170431D01*
X0101363Y0170505D01*
X0101131Y0170585D01*
X0100901Y0170670D01*
X0100673Y0170761D01*
X0100448Y0170858D01*
X0100224Y0170960D01*
X0100004Y0171068D01*
X0099786Y0171181D01*
X0099571Y0171299D01*
X0099359Y0171423D01*
X0099150Y0171551D01*
X0098944Y0171685D01*
X0098742Y0171824D01*
X0098543Y0171968D01*
X0098348Y0172117D01*
X0098156Y0172270D01*
X0097968Y0172428D01*
X0097784Y0172590D01*
X0097605Y0172758D01*
X0097429Y0172929D01*
X0097258Y0173105D01*
X0097090Y0173284D01*
X0096928Y0173468D01*
X0096770Y0173656D01*
X0096617Y0173848D01*
X0096468Y0174043D01*
X0096324Y0174242D01*
X0096185Y0174444D01*
X0096051Y0174650D01*
X0095923Y0174859D01*
X0095799Y0175071D01*
X0095681Y0175286D01*
X0095568Y0175504D01*
X0095460Y0175724D01*
X0095358Y0175948D01*
X0095261Y0176173D01*
X0095170Y0176401D01*
X0095085Y0176631D01*
X0095005Y0176863D01*
X0094931Y0177097D01*
X0094862Y0177333D01*
X0094800Y0177570D01*
X0094743Y0177809D01*
X0094692Y0178049D01*
X0094647Y0178290D01*
X0094608Y0178533D01*
X0094575Y0178776D01*
X0094548Y0179020D01*
X0094527Y0179264D01*
X0094512Y0179509D01*
X0094503Y0179755D01*
X0094500Y0180000D01*
X0060000Y0180000D02*
X0060003Y0180245D01*
X0060012Y0180491D01*
X0060027Y0180736D01*
X0060048Y0180980D01*
X0060075Y0181224D01*
X0060108Y0181467D01*
X0060147Y0181710D01*
X0060192Y0181951D01*
X0060243Y0182191D01*
X0060300Y0182430D01*
X0060362Y0182667D01*
X0060431Y0182903D01*
X0060505Y0183137D01*
X0060585Y0183369D01*
X0060670Y0183599D01*
X0060761Y0183827D01*
X0060858Y0184052D01*
X0060960Y0184276D01*
X0061068Y0184496D01*
X0061181Y0184714D01*
X0061299Y0184929D01*
X0061423Y0185141D01*
X0061551Y0185350D01*
X0061685Y0185556D01*
X0061824Y0185758D01*
X0061968Y0185957D01*
X0062117Y0186152D01*
X0062270Y0186344D01*
X0062428Y0186532D01*
X0062590Y0186716D01*
X0062758Y0186895D01*
X0062929Y0187071D01*
X0063105Y0187242D01*
X0063284Y0187410D01*
X0063468Y0187572D01*
X0063656Y0187730D01*
X0063848Y0187883D01*
X0064043Y0188032D01*
X0064242Y0188176D01*
X0064444Y0188315D01*
X0064650Y0188449D01*
X0064859Y0188577D01*
X0065071Y0188701D01*
X0065286Y0188819D01*
X0065504Y0188932D01*
X0065724Y0189040D01*
X0065948Y0189142D01*
X0066173Y0189239D01*
X0066401Y0189330D01*
X0066631Y0189415D01*
X0066863Y0189495D01*
X0067097Y0189569D01*
X0067333Y0189638D01*
X0067570Y0189700D01*
X0067809Y0189757D01*
X0068049Y0189808D01*
X0068290Y0189853D01*
X0068533Y0189892D01*
X0068776Y0189925D01*
X0069020Y0189952D01*
X0069264Y0189973D01*
X0069509Y0189988D01*
X0069755Y0189997D01*
X0070000Y0190000D01*
X0070245Y0189997D01*
X0070491Y0189988D01*
X0070736Y0189973D01*
X0070980Y0189952D01*
X0071224Y0189925D01*
X0071467Y0189892D01*
X0071710Y0189853D01*
X0071951Y0189808D01*
X0072191Y0189757D01*
X0072430Y0189700D01*
X0072667Y0189638D01*
X0072903Y0189569D01*
X0073137Y0189495D01*
X0073369Y0189415D01*
X0073599Y0189330D01*
X0073827Y0189239D01*
X0074052Y0189142D01*
X0074276Y0189040D01*
X0074496Y0188932D01*
X0074714Y0188819D01*
X0074929Y0188701D01*
X0075141Y0188577D01*
X0075350Y0188449D01*
X0075556Y0188315D01*
X0075758Y0188176D01*
X0075957Y0188032D01*
X0076152Y0187883D01*
X0076344Y0187730D01*
X0076532Y0187572D01*
X0076716Y0187410D01*
X0076895Y0187242D01*
X0077071Y0187071D01*
X0077242Y0186895D01*
X0077410Y0186716D01*
X0077572Y0186532D01*
X0077730Y0186344D01*
X0077883Y0186152D01*
X0078032Y0185957D01*
X0078176Y0185758D01*
X0078315Y0185556D01*
X0078449Y0185350D01*
X0078577Y0185141D01*
X0078701Y0184929D01*
X0078819Y0184714D01*
X0078932Y0184496D01*
X0079040Y0184276D01*
X0079142Y0184052D01*
X0079239Y0183827D01*
X0079330Y0183599D01*
X0079415Y0183369D01*
X0079495Y0183137D01*
X0079569Y0182903D01*
X0079638Y0182667D01*
X0079700Y0182430D01*
X0079757Y0182191D01*
X0079808Y0181951D01*
X0079853Y0181710D01*
X0079892Y0181467D01*
X0079925Y0181224D01*
X0079952Y0180980D01*
X0079973Y0180736D01*
X0079988Y0180491D01*
X0079997Y0180245D01*
X0080000Y0180000D01*
X0079997Y0179755D01*
X0079988Y0179509D01*
X0079973Y0179264D01*
X0079952Y0179020D01*
X0079925Y0178776D01*
X0079892Y0178533D01*
X0079853Y0178290D01*
X0079808Y0178049D01*
X0079757Y0177809D01*
X0079700Y0177570D01*
X0079638Y0177333D01*
X0079569Y0177097D01*
X0079495Y0176863D01*
X0079415Y0176631D01*
X0079330Y0176401D01*
X0079239Y0176173D01*
X0079142Y0175948D01*
X0079040Y0175724D01*
X0078932Y0175504D01*
X0078819Y0175286D01*
X0078701Y0175071D01*
X0078577Y0174859D01*
X0078449Y0174650D01*
X0078315Y0174444D01*
X0078176Y0174242D01*
X0078032Y0174043D01*
X0077883Y0173848D01*
X0077730Y0173656D01*
X0077572Y0173468D01*
X0077410Y0173284D01*
X0077242Y0173105D01*
X0077071Y0172929D01*
X0076895Y0172758D01*
X0076716Y0172590D01*
X0076532Y0172428D01*
X0076344Y0172270D01*
X0076152Y0172117D01*
X0075957Y0171968D01*
X0075758Y0171824D01*
X0075556Y0171685D01*
X0075350Y0171551D01*
X0075141Y0171423D01*
X0074929Y0171299D01*
X0074714Y0171181D01*
X0074496Y0171068D01*
X0074276Y0170960D01*
X0074052Y0170858D01*
X0073827Y0170761D01*
X0073599Y0170670D01*
X0073369Y0170585D01*
X0073137Y0170505D01*
X0072903Y0170431D01*
X0072667Y0170362D01*
X0072430Y0170300D01*
X0072191Y0170243D01*
X0071951Y0170192D01*
X0071710Y0170147D01*
X0071467Y0170108D01*
X0071224Y0170075D01*
X0070980Y0170048D01*
X0070736Y0170027D01*
X0070491Y0170012D01*
X0070245Y0170003D01*
X0070000Y0170000D01*
X0069755Y0170003D01*
X0069509Y0170012D01*
X0069264Y0170027D01*
X0069020Y0170048D01*
X0068776Y0170075D01*
X0068533Y0170108D01*
X0068290Y0170147D01*
X0068049Y0170192D01*
X0067809Y0170243D01*
X0067570Y0170300D01*
X0067333Y0170362D01*
X0067097Y0170431D01*
X0066863Y0170505D01*
X0066631Y0170585D01*
X0066401Y0170670D01*
X0066173Y0170761D01*
X0065948Y0170858D01*
X0065724Y0170960D01*
X0065504Y0171068D01*
X0065286Y0171181D01*
X0065071Y0171299D01*
X0064859Y0171423D01*
X0064650Y0171551D01*
X0064444Y0171685D01*
X0064242Y0171824D01*
X0064043Y0171968D01*
X0063848Y0172117D01*
X0063656Y0172270D01*
X0063468Y0172428D01*
X0063284Y0172590D01*
X0063105Y0172758D01*
X0062929Y0172929D01*
X0062758Y0173105D01*
X0062590Y0173284D01*
X0062428Y0173468D01*
X0062270Y0173656D01*
X0062117Y0173848D01*
X0061968Y0174043D01*
X0061824Y0174242D01*
X0061685Y0174444D01*
X0061551Y0174650D01*
X0061423Y0174859D01*
X0061299Y0175071D01*
X0061181Y0175286D01*
X0061068Y0175504D01*
X0060960Y0175724D01*
X0060858Y0175948D01*
X0060761Y0176173D01*
X0060670Y0176401D01*
X0060585Y0176631D01*
X0060505Y0176863D01*
X0060431Y0177097D01*
X0060362Y0177333D01*
X0060300Y0177570D01*
X0060243Y0177809D01*
X0060192Y0178049D01*
X0060147Y0178290D01*
X0060108Y0178533D01*
X0060075Y0178776D01*
X0060048Y0179020D01*
X0060027Y0179264D01*
X0060012Y0179509D01*
X0060003Y0179755D01*
X0060000Y0180000D01*
X0144500Y0123000D02*
X0144500Y0116000D01*
X0144502Y0115940D01*
X0144507Y0115879D01*
X0144516Y0115820D01*
X0144529Y0115761D01*
X0144545Y0115702D01*
X0144565Y0115645D01*
X0144588Y0115590D01*
X0144615Y0115535D01*
X0144644Y0115483D01*
X0144677Y0115432D01*
X0144713Y0115383D01*
X0144751Y0115337D01*
X0144793Y0115293D01*
X0144837Y0115251D01*
X0144883Y0115213D01*
X0144932Y0115177D01*
X0144983Y0115144D01*
X0145035Y0115115D01*
X0145090Y0115088D01*
X0145145Y0115065D01*
X0145202Y0115045D01*
X0145261Y0115029D01*
X0145320Y0115016D01*
X0145379Y0115007D01*
X0145440Y0115002D01*
X0145500Y0115000D01*
X0147000Y0115000D01*
X0147500Y0115500D01*
X0166500Y0115500D01*
X0167000Y0115000D01*
X0168500Y0115000D01*
X0168560Y0115002D01*
X0168621Y0115007D01*
X0168680Y0115016D01*
X0168739Y0115029D01*
X0168798Y0115045D01*
X0168855Y0115065D01*
X0168910Y0115088D01*
X0168965Y0115115D01*
X0169017Y0115144D01*
X0169068Y0115177D01*
X0169117Y0115213D01*
X0169163Y0115251D01*
X0169207Y0115293D01*
X0169249Y0115337D01*
X0169287Y0115383D01*
X0169323Y0115432D01*
X0169356Y0115483D01*
X0169385Y0115535D01*
X0169412Y0115590D01*
X0169435Y0115645D01*
X0169455Y0115702D01*
X0169471Y0115761D01*
X0169484Y0115820D01*
X0169493Y0115879D01*
X0169498Y0115940D01*
X0169500Y0116000D01*
X0169500Y0123000D01*
X0169498Y0123060D01*
X0169493Y0123121D01*
X0169484Y0123180D01*
X0169471Y0123239D01*
X0169455Y0123298D01*
X0169435Y0123355D01*
X0169412Y0123410D01*
X0169385Y0123465D01*
X0169356Y0123517D01*
X0169323Y0123568D01*
X0169287Y0123617D01*
X0169249Y0123663D01*
X0169207Y0123707D01*
X0169163Y0123749D01*
X0169117Y0123787D01*
X0169068Y0123823D01*
X0169017Y0123856D01*
X0168965Y0123885D01*
X0168910Y0123912D01*
X0168855Y0123935D01*
X0168798Y0123955D01*
X0168739Y0123971D01*
X0168680Y0123984D01*
X0168621Y0123993D01*
X0168560Y0123998D01*
X0168500Y0124000D01*
X0167000Y0124000D01*
X0166500Y0123500D01*
X0147500Y0123500D01*
X0147000Y0124000D01*
X0145500Y0124000D01*
X0145440Y0123998D01*
X0145379Y0123993D01*
X0145320Y0123984D01*
X0145261Y0123971D01*
X0145202Y0123955D01*
X0145145Y0123935D01*
X0145090Y0123912D01*
X0145035Y0123885D01*
X0144983Y0123856D01*
X0144932Y0123823D01*
X0144883Y0123787D01*
X0144837Y0123749D01*
X0144793Y0123707D01*
X0144751Y0123663D01*
X0144713Y0123617D01*
X0144677Y0123568D01*
X0144644Y0123517D01*
X0144615Y0123465D01*
X0144588Y0123410D01*
X0144565Y0123355D01*
X0144545Y0123298D01*
X0144529Y0123239D01*
X0144516Y0123180D01*
X0144507Y0123121D01*
X0144502Y0123060D01*
X0144500Y0123000D01*
X0151400Y0119501D02*
X0153669Y0119501D01*
X0153101Y0117800D02*
X0153101Y0121203D01*
X0151400Y0119501D01*
X0155083Y0118367D02*
X0155083Y0117800D01*
X0155083Y0118367D02*
X0157352Y0120636D01*
X0157352Y0121203D01*
X0155083Y0121203D01*
X0158766Y0120636D02*
X0158766Y0118367D01*
X0161035Y0120636D01*
X0161035Y0118367D01*
X0160468Y0117800D01*
X0159333Y0117800D01*
X0158766Y0118367D01*
X0158766Y0120636D02*
X0159333Y0121203D01*
X0160468Y0121203D01*
X0161035Y0120636D01*
X0179751Y0126300D02*
X0182019Y0126300D01*
X0180885Y0126300D02*
X0180885Y0129703D01*
X0179751Y0128569D01*
X0183434Y0128569D02*
X0183434Y0126867D01*
X0184001Y0126300D01*
X0185702Y0126300D01*
X0185702Y0128569D01*
X0187117Y0128001D02*
X0188251Y0128001D01*
X0187117Y0126300D02*
X0187117Y0129703D01*
X0189385Y0129703D01*
X0199297Y0129834D02*
X0199297Y0132102D01*
X0199864Y0132102D01*
X0202133Y0129834D01*
X0202700Y0129834D01*
X0202700Y0127852D02*
X0199297Y0127852D01*
X0200999Y0126151D01*
X0200999Y0128419D01*
X0202133Y0133517D02*
X0199864Y0133517D01*
X0199297Y0134084D01*
X0199297Y0135218D01*
X0199864Y0135785D01*
X0202133Y0133517D01*
X0202700Y0134084D01*
X0202700Y0135218D01*
X0202133Y0135785D01*
X0199864Y0135785D01*
X0197500Y0141000D02*
X0197500Y0122000D01*
X0197000Y0121500D01*
X0197000Y0120000D01*
X0197002Y0119940D01*
X0197007Y0119879D01*
X0197016Y0119820D01*
X0197029Y0119761D01*
X0197045Y0119702D01*
X0197065Y0119645D01*
X0197088Y0119590D01*
X0197115Y0119535D01*
X0197144Y0119483D01*
X0197177Y0119432D01*
X0197213Y0119383D01*
X0197251Y0119337D01*
X0197293Y0119293D01*
X0197337Y0119251D01*
X0197383Y0119213D01*
X0197432Y0119177D01*
X0197483Y0119144D01*
X0197535Y0119115D01*
X0197590Y0119088D01*
X0197645Y0119065D01*
X0197702Y0119045D01*
X0197761Y0119029D01*
X0197820Y0119016D01*
X0197879Y0119007D01*
X0197940Y0119002D01*
X0198000Y0119000D01*
X0205000Y0119000D01*
X0205060Y0119002D01*
X0205121Y0119007D01*
X0205180Y0119016D01*
X0205239Y0119029D01*
X0205298Y0119045D01*
X0205355Y0119065D01*
X0205410Y0119088D01*
X0205465Y0119115D01*
X0205517Y0119144D01*
X0205568Y0119177D01*
X0205617Y0119213D01*
X0205663Y0119251D01*
X0205707Y0119293D01*
X0205749Y0119337D01*
X0205787Y0119383D01*
X0205823Y0119432D01*
X0205856Y0119483D01*
X0205885Y0119535D01*
X0205912Y0119590D01*
X0205935Y0119645D01*
X0205955Y0119702D01*
X0205971Y0119761D01*
X0205984Y0119820D01*
X0205993Y0119879D01*
X0205998Y0119940D01*
X0206000Y0120000D01*
X0206000Y0121500D01*
X0205500Y0122000D01*
X0205500Y0141000D01*
X0206000Y0141500D01*
X0206000Y0143000D01*
X0205998Y0143060D01*
X0205993Y0143121D01*
X0205984Y0143180D01*
X0205971Y0143239D01*
X0205955Y0143298D01*
X0205935Y0143355D01*
X0205912Y0143410D01*
X0205885Y0143465D01*
X0205856Y0143517D01*
X0205823Y0143568D01*
X0205787Y0143617D01*
X0205749Y0143663D01*
X0205707Y0143707D01*
X0205663Y0143749D01*
X0205617Y0143787D01*
X0205568Y0143823D01*
X0205517Y0143856D01*
X0205465Y0143885D01*
X0205410Y0143912D01*
X0205355Y0143935D01*
X0205298Y0143955D01*
X0205239Y0143971D01*
X0205180Y0143984D01*
X0205121Y0143993D01*
X0205060Y0143998D01*
X0205000Y0144000D01*
X0198000Y0144000D01*
X0197940Y0143998D01*
X0197879Y0143993D01*
X0197820Y0143984D01*
X0197761Y0143971D01*
X0197702Y0143955D01*
X0197645Y0143935D01*
X0197590Y0143912D01*
X0197535Y0143885D01*
X0197483Y0143856D01*
X0197432Y0143823D01*
X0197383Y0143787D01*
X0197337Y0143749D01*
X0197293Y0143707D01*
X0197251Y0143663D01*
X0197213Y0143617D01*
X0197177Y0143568D01*
X0197144Y0143517D01*
X0197115Y0143465D01*
X0197088Y0143410D01*
X0197065Y0143355D01*
X0197045Y0143298D01*
X0197029Y0143239D01*
X0197016Y0143180D01*
X0197007Y0143121D01*
X0197002Y0143060D01*
X0197000Y0143000D01*
X0197000Y0141500D01*
X0197500Y0141000D01*
X0187000Y0146000D02*
X0187000Y0148000D01*
X0183000Y0148000D01*
X0179000Y0148000D01*
X0179000Y0146000D01*
X0187000Y0146000D01*
X0178609Y0151687D02*
X0178447Y0151578D01*
X0178287Y0151465D01*
X0178131Y0151348D01*
X0177977Y0151227D01*
X0177827Y0151102D01*
X0177679Y0150974D01*
X0177535Y0150842D01*
X0177393Y0150707D01*
X0177256Y0150568D01*
X0177121Y0150426D01*
X0176991Y0150281D01*
X0176863Y0150132D01*
X0176740Y0149981D01*
X0176620Y0149826D01*
X0176504Y0149669D01*
X0176392Y0149509D01*
X0176283Y0149346D01*
X0176179Y0149181D01*
X0176079Y0149013D01*
X0175983Y0148842D01*
X0175891Y0148670D01*
X0175804Y0148495D01*
X0175721Y0148318D01*
X0175642Y0148139D01*
X0175567Y0147958D01*
X0175497Y0147776D01*
X0175431Y0147592D01*
X0175370Y0147406D01*
X0175314Y0147219D01*
X0175262Y0147030D01*
X0175215Y0146841D01*
X0175172Y0146650D01*
X0175134Y0146458D01*
X0175101Y0146265D01*
X0175072Y0146072D01*
X0175048Y0145878D01*
X0175029Y0145683D01*
X0175015Y0145488D01*
X0175005Y0145293D01*
X0175001Y0145098D01*
X0175001Y0144902D01*
X0175005Y0144707D01*
X0175015Y0144512D01*
X0175029Y0144317D01*
X0175048Y0144122D01*
X0175072Y0143928D01*
X0175101Y0143735D01*
X0175134Y0143542D01*
X0175172Y0143350D01*
X0175215Y0143159D01*
X0175262Y0142970D01*
X0175314Y0142781D01*
X0175370Y0142594D01*
X0175431Y0142408D01*
X0175497Y0142224D01*
X0175567Y0142042D01*
X0175642Y0141861D01*
X0175721Y0141682D01*
X0175804Y0141505D01*
X0175891Y0141330D01*
X0175983Y0141158D01*
X0176079Y0140987D01*
X0176179Y0140819D01*
X0176283Y0140654D01*
X0176392Y0140491D01*
X0176504Y0140331D01*
X0176620Y0140174D01*
X0176740Y0140019D01*
X0176863Y0139868D01*
X0176991Y0139719D01*
X0177121Y0139574D01*
X0177256Y0139432D01*
X0177393Y0139293D01*
X0177535Y0139158D01*
X0177679Y0139026D01*
X0177827Y0138898D01*
X0177977Y0138773D01*
X0178131Y0138652D01*
X0178287Y0138535D01*
X0178447Y0138422D01*
X0178609Y0138313D01*
X0183000Y0139500D02*
X0183000Y0142500D01*
X0187391Y0138313D02*
X0187553Y0138422D01*
X0187713Y0138535D01*
X0187869Y0138652D01*
X0188023Y0138773D01*
X0188173Y0138898D01*
X0188321Y0139026D01*
X0188465Y0139158D01*
X0188607Y0139293D01*
X0188744Y0139432D01*
X0188879Y0139574D01*
X0189009Y0139719D01*
X0189137Y0139868D01*
X0189260Y0140019D01*
X0189380Y0140174D01*
X0189496Y0140331D01*
X0189608Y0140491D01*
X0189717Y0140654D01*
X0189821Y0140819D01*
X0189921Y0140987D01*
X0190017Y0141158D01*
X0190109Y0141330D01*
X0190196Y0141505D01*
X0190279Y0141682D01*
X0190358Y0141861D01*
X0190433Y0142042D01*
X0190503Y0142224D01*
X0190569Y0142408D01*
X0190630Y0142594D01*
X0190686Y0142781D01*
X0190738Y0142970D01*
X0190785Y0143159D01*
X0190828Y0143350D01*
X0190866Y0143542D01*
X0190899Y0143735D01*
X0190928Y0143928D01*
X0190952Y0144122D01*
X0190971Y0144317D01*
X0190985Y0144512D01*
X0190995Y0144707D01*
X0190999Y0144902D01*
X0190999Y0145098D01*
X0190995Y0145293D01*
X0190985Y0145488D01*
X0190971Y0145683D01*
X0190952Y0145878D01*
X0190928Y0146072D01*
X0190899Y0146265D01*
X0190866Y0146458D01*
X0190828Y0146650D01*
X0190785Y0146841D01*
X0190738Y0147030D01*
X0190686Y0147219D01*
X0190630Y0147406D01*
X0190569Y0147592D01*
X0190503Y0147776D01*
X0190433Y0147958D01*
X0190358Y0148139D01*
X0190279Y0148318D01*
X0190196Y0148495D01*
X0190109Y0148670D01*
X0190017Y0148842D01*
X0189921Y0149013D01*
X0189821Y0149181D01*
X0189717Y0149346D01*
X0189608Y0149509D01*
X0189496Y0149669D01*
X0189380Y0149826D01*
X0189260Y0149981D01*
X0189137Y0150132D01*
X0189009Y0150281D01*
X0188879Y0150426D01*
X0188744Y0150568D01*
X0188607Y0150707D01*
X0188465Y0150842D01*
X0188321Y0150974D01*
X0188173Y0151102D01*
X0188023Y0151227D01*
X0187869Y0151348D01*
X0187713Y0151465D01*
X0187553Y0151578D01*
X0187391Y0151687D01*
X0186500Y0150000D02*
X0184500Y0150000D01*
X0185500Y0151000D02*
X0185500Y0149000D01*
X0183000Y0148000D02*
X0183000Y0150500D01*
X0172000Y0146500D02*
X0171912Y0146498D01*
X0171823Y0146492D01*
X0171735Y0146482D01*
X0171648Y0146469D01*
X0171561Y0146451D01*
X0171475Y0146430D01*
X0171390Y0146405D01*
X0171307Y0146376D01*
X0171224Y0146343D01*
X0171144Y0146307D01*
X0171065Y0146268D01*
X0170987Y0146225D01*
X0170912Y0146178D01*
X0170839Y0146128D01*
X0170768Y0146075D01*
X0170699Y0146019D01*
X0170633Y0145960D01*
X0170570Y0145898D01*
X0170510Y0145834D01*
X0170452Y0145767D01*
X0170398Y0145697D01*
X0170346Y0145625D01*
X0170298Y0145551D01*
X0170253Y0145474D01*
X0170212Y0145396D01*
X0170174Y0145316D01*
X0170140Y0145235D01*
X0170109Y0145152D01*
X0170082Y0145067D01*
X0170059Y0144982D01*
X0170040Y0144896D01*
X0170024Y0144808D01*
X0170012Y0144721D01*
X0170004Y0144633D01*
X0170000Y0144544D01*
X0170000Y0144456D01*
X0170004Y0144367D01*
X0170012Y0144279D01*
X0170024Y0144192D01*
X0170040Y0144104D01*
X0170059Y0144018D01*
X0170082Y0143933D01*
X0170109Y0143848D01*
X0170140Y0143765D01*
X0170174Y0143684D01*
X0170212Y0143604D01*
X0170253Y0143526D01*
X0170298Y0143449D01*
X0170346Y0143375D01*
X0170398Y0143303D01*
X0170452Y0143233D01*
X0170510Y0143166D01*
X0170570Y0143102D01*
X0170633Y0143040D01*
X0170699Y0142981D01*
X0170768Y0142925D01*
X0170839Y0142872D01*
X0170912Y0142822D01*
X0170987Y0142775D01*
X0171065Y0142732D01*
X0171144Y0142693D01*
X0171224Y0142657D01*
X0171307Y0142624D01*
X0171390Y0142595D01*
X0171475Y0142570D01*
X0171561Y0142549D01*
X0171648Y0142531D01*
X0171735Y0142518D01*
X0171823Y0142508D01*
X0171912Y0142502D01*
X0172000Y0142500D01*
X0187251Y0163800D02*
X0189519Y0163800D01*
X0188385Y0163800D02*
X0188385Y0167203D01*
X0187251Y0166069D01*
X0190934Y0166069D02*
X0190934Y0164367D01*
X0191501Y0163800D01*
X0193202Y0163800D01*
X0193202Y0166069D01*
X0194617Y0165501D02*
X0195751Y0165501D01*
X0194617Y0163800D02*
X0194617Y0167203D01*
X0196885Y0167203D01*
X0193500Y0173000D02*
X0193500Y0175000D01*
X0194500Y0174000D02*
X0192500Y0174000D01*
X0191500Y0172500D02*
X0191500Y0176500D01*
X0191500Y0180500D01*
X0189500Y0180500D01*
X0189500Y0172500D01*
X0191500Y0172500D01*
X0191500Y0176500D02*
X0194000Y0176500D01*
X0195187Y0180891D02*
X0195078Y0181053D01*
X0194965Y0181213D01*
X0194848Y0181369D01*
X0194727Y0181523D01*
X0194602Y0181673D01*
X0194474Y0181821D01*
X0194342Y0181965D01*
X0194207Y0182107D01*
X0194068Y0182244D01*
X0193926Y0182379D01*
X0193781Y0182509D01*
X0193632Y0182637D01*
X0193481Y0182760D01*
X0193326Y0182880D01*
X0193169Y0182996D01*
X0193009Y0183108D01*
X0192846Y0183217D01*
X0192681Y0183321D01*
X0192513Y0183421D01*
X0192342Y0183517D01*
X0192170Y0183609D01*
X0191995Y0183696D01*
X0191818Y0183779D01*
X0191639Y0183858D01*
X0191458Y0183933D01*
X0191276Y0184003D01*
X0191092Y0184069D01*
X0190906Y0184130D01*
X0190719Y0184186D01*
X0190530Y0184238D01*
X0190341Y0184285D01*
X0190150Y0184328D01*
X0189958Y0184366D01*
X0189765Y0184399D01*
X0189572Y0184428D01*
X0189378Y0184452D01*
X0189183Y0184471D01*
X0188988Y0184485D01*
X0188793Y0184495D01*
X0188598Y0184499D01*
X0188402Y0184499D01*
X0188207Y0184495D01*
X0188012Y0184485D01*
X0187817Y0184471D01*
X0187622Y0184452D01*
X0187428Y0184428D01*
X0187235Y0184399D01*
X0187042Y0184366D01*
X0186850Y0184328D01*
X0186659Y0184285D01*
X0186470Y0184238D01*
X0186281Y0184186D01*
X0186094Y0184130D01*
X0185908Y0184069D01*
X0185724Y0184003D01*
X0185542Y0183933D01*
X0185361Y0183858D01*
X0185182Y0183779D01*
X0185005Y0183696D01*
X0184830Y0183609D01*
X0184658Y0183517D01*
X0184487Y0183421D01*
X0184319Y0183321D01*
X0184154Y0183217D01*
X0183991Y0183108D01*
X0183831Y0182996D01*
X0183674Y0182880D01*
X0183519Y0182760D01*
X0183368Y0182637D01*
X0183219Y0182509D01*
X0183074Y0182379D01*
X0182932Y0182244D01*
X0182793Y0182107D01*
X0182658Y0181965D01*
X0182526Y0181821D01*
X0182398Y0181673D01*
X0182273Y0181523D01*
X0182152Y0181369D01*
X0182035Y0181213D01*
X0181922Y0181053D01*
X0181813Y0180891D01*
X0183000Y0176500D02*
X0186000Y0176500D01*
X0181813Y0172109D02*
X0181922Y0171947D01*
X0182035Y0171787D01*
X0182152Y0171631D01*
X0182273Y0171477D01*
X0182398Y0171327D01*
X0182526Y0171179D01*
X0182658Y0171035D01*
X0182793Y0170893D01*
X0182932Y0170756D01*
X0183074Y0170621D01*
X0183219Y0170491D01*
X0183368Y0170363D01*
X0183519Y0170240D01*
X0183674Y0170120D01*
X0183831Y0170004D01*
X0183991Y0169892D01*
X0184154Y0169783D01*
X0184319Y0169679D01*
X0184487Y0169579D01*
X0184658Y0169483D01*
X0184830Y0169391D01*
X0185005Y0169304D01*
X0185182Y0169221D01*
X0185361Y0169142D01*
X0185542Y0169067D01*
X0185724Y0168997D01*
X0185908Y0168931D01*
X0186094Y0168870D01*
X0186281Y0168814D01*
X0186470Y0168762D01*
X0186659Y0168715D01*
X0186850Y0168672D01*
X0187042Y0168634D01*
X0187235Y0168601D01*
X0187428Y0168572D01*
X0187622Y0168548D01*
X0187817Y0168529D01*
X0188012Y0168515D01*
X0188207Y0168505D01*
X0188402Y0168501D01*
X0188598Y0168501D01*
X0188793Y0168505D01*
X0188988Y0168515D01*
X0189183Y0168529D01*
X0189378Y0168548D01*
X0189572Y0168572D01*
X0189765Y0168601D01*
X0189958Y0168634D01*
X0190150Y0168672D01*
X0190341Y0168715D01*
X0190530Y0168762D01*
X0190719Y0168814D01*
X0190906Y0168870D01*
X0191092Y0168931D01*
X0191276Y0168997D01*
X0191458Y0169067D01*
X0191639Y0169142D01*
X0191818Y0169221D01*
X0191995Y0169304D01*
X0192170Y0169391D01*
X0192342Y0169483D01*
X0192513Y0169579D01*
X0192681Y0169679D01*
X0192846Y0169783D01*
X0193009Y0169892D01*
X0193169Y0170004D01*
X0193326Y0170120D01*
X0193481Y0170240D01*
X0193632Y0170363D01*
X0193781Y0170491D01*
X0193926Y0170621D01*
X0194068Y0170756D01*
X0194207Y0170893D01*
X0194342Y0171035D01*
X0194474Y0171179D01*
X0194602Y0171327D01*
X0194727Y0171477D01*
X0194848Y0171631D01*
X0194965Y0171787D01*
X0195078Y0171947D01*
X0195187Y0172109D01*
X0213000Y0177500D02*
X0216500Y0177500D01*
X0216500Y0183500D01*
X0213000Y0183500D01*
X0213000Y0191000D01*
X0254000Y0191000D01*
X0254000Y0183500D01*
X0250500Y0183500D01*
X0250500Y0177500D01*
X0254000Y0177500D01*
X0254000Y0128500D01*
X0213000Y0128500D01*
X0213000Y0177500D01*
X0200000Y0188500D02*
X0200000Y0195500D01*
X0199998Y0195560D01*
X0199993Y0195621D01*
X0199984Y0195680D01*
X0199971Y0195739D01*
X0199955Y0195798D01*
X0199935Y0195855D01*
X0199912Y0195910D01*
X0199885Y0195965D01*
X0199856Y0196017D01*
X0199823Y0196068D01*
X0199787Y0196117D01*
X0199749Y0196163D01*
X0199707Y0196207D01*
X0199663Y0196249D01*
X0199617Y0196287D01*
X0199568Y0196323D01*
X0199517Y0196356D01*
X0199465Y0196385D01*
X0199410Y0196412D01*
X0199355Y0196435D01*
X0199298Y0196455D01*
X0199239Y0196471D01*
X0199180Y0196484D01*
X0199121Y0196493D01*
X0199060Y0196498D01*
X0199000Y0196500D01*
X0197500Y0196500D01*
X0197000Y0196000D01*
X0178000Y0196000D01*
X0177500Y0196500D01*
X0176000Y0196500D01*
X0175940Y0196498D01*
X0175879Y0196493D01*
X0175820Y0196484D01*
X0175761Y0196471D01*
X0175702Y0196455D01*
X0175645Y0196435D01*
X0175590Y0196412D01*
X0175535Y0196385D01*
X0175483Y0196356D01*
X0175432Y0196323D01*
X0175383Y0196287D01*
X0175337Y0196249D01*
X0175293Y0196207D01*
X0175251Y0196163D01*
X0175213Y0196117D01*
X0175177Y0196068D01*
X0175144Y0196017D01*
X0175115Y0195965D01*
X0175088Y0195910D01*
X0175065Y0195855D01*
X0175045Y0195798D01*
X0175029Y0195739D01*
X0175016Y0195680D01*
X0175007Y0195621D01*
X0175002Y0195560D01*
X0175000Y0195500D01*
X0175000Y0188500D01*
X0175002Y0188440D01*
X0175007Y0188379D01*
X0175016Y0188320D01*
X0175029Y0188261D01*
X0175045Y0188202D01*
X0175065Y0188145D01*
X0175088Y0188090D01*
X0175115Y0188035D01*
X0175144Y0187983D01*
X0175177Y0187932D01*
X0175213Y0187883D01*
X0175251Y0187837D01*
X0175293Y0187793D01*
X0175337Y0187751D01*
X0175383Y0187713D01*
X0175432Y0187677D01*
X0175483Y0187644D01*
X0175535Y0187615D01*
X0175590Y0187588D01*
X0175645Y0187565D01*
X0175702Y0187545D01*
X0175761Y0187529D01*
X0175820Y0187516D01*
X0175879Y0187507D01*
X0175940Y0187502D01*
X0176000Y0187500D01*
X0177500Y0187500D01*
X0178000Y0188000D01*
X0197000Y0188000D01*
X0197500Y0187500D01*
X0199000Y0187500D01*
X0199060Y0187502D01*
X0199121Y0187507D01*
X0199180Y0187516D01*
X0199239Y0187529D01*
X0199298Y0187545D01*
X0199355Y0187565D01*
X0199410Y0187588D01*
X0199465Y0187615D01*
X0199517Y0187644D01*
X0199568Y0187677D01*
X0199617Y0187713D01*
X0199663Y0187751D01*
X0199707Y0187793D01*
X0199749Y0187837D01*
X0199787Y0187883D01*
X0199823Y0187932D01*
X0199856Y0187983D01*
X0199885Y0188035D01*
X0199912Y0188090D01*
X0199935Y0188145D01*
X0199955Y0188202D01*
X0199971Y0188261D01*
X0199984Y0188320D01*
X0199993Y0188379D01*
X0199998Y0188440D01*
X0200000Y0188500D01*
X0191832Y0190300D02*
X0190131Y0191434D01*
X0191832Y0192569D01*
X0190131Y0193703D02*
X0190131Y0190300D01*
X0188716Y0190867D02*
X0188716Y0193136D01*
X0186448Y0190867D01*
X0187015Y0190300D01*
X0188149Y0190300D01*
X0188716Y0190867D01*
X0186448Y0190867D02*
X0186448Y0193136D01*
X0187015Y0193703D01*
X0188149Y0193703D01*
X0188716Y0193136D01*
X0185033Y0190300D02*
X0182764Y0190300D01*
X0183899Y0190300D02*
X0183899Y0193703D01*
X0182764Y0192569D01*
X0226400Y0177500D02*
X0226402Y0177674D01*
X0226409Y0177848D01*
X0226419Y0178022D01*
X0226434Y0178196D01*
X0226453Y0178369D01*
X0226477Y0178542D01*
X0226505Y0178714D01*
X0226536Y0178885D01*
X0226573Y0179056D01*
X0226613Y0179225D01*
X0226657Y0179394D01*
X0226706Y0179561D01*
X0226758Y0179727D01*
X0226815Y0179892D01*
X0226876Y0180055D01*
X0226940Y0180217D01*
X0227009Y0180377D01*
X0227082Y0180536D01*
X0227158Y0180692D01*
X0227238Y0180847D01*
X0227322Y0181000D01*
X0227410Y0181150D01*
X0227502Y0181298D01*
X0227597Y0181445D01*
X0227695Y0181588D01*
X0227797Y0181729D01*
X0227903Y0181868D01*
X0228012Y0182004D01*
X0228124Y0182138D01*
X0228239Y0182268D01*
X0228358Y0182396D01*
X0228480Y0182520D01*
X0228604Y0182642D01*
X0228732Y0182761D01*
X0228862Y0182876D01*
X0228996Y0182988D01*
X0229132Y0183097D01*
X0229271Y0183203D01*
X0229412Y0183305D01*
X0229555Y0183403D01*
X0229702Y0183498D01*
X0229850Y0183590D01*
X0230000Y0183678D01*
X0230153Y0183762D01*
X0230308Y0183842D01*
X0230464Y0183918D01*
X0230623Y0183991D01*
X0230783Y0184060D01*
X0230945Y0184124D01*
X0231108Y0184185D01*
X0231273Y0184242D01*
X0231439Y0184294D01*
X0231606Y0184343D01*
X0231775Y0184387D01*
X0231944Y0184427D01*
X0232115Y0184464D01*
X0232286Y0184495D01*
X0232458Y0184523D01*
X0232631Y0184547D01*
X0232804Y0184566D01*
X0232978Y0184581D01*
X0233152Y0184591D01*
X0233326Y0184598D01*
X0233500Y0184600D01*
X0233674Y0184598D01*
X0233848Y0184591D01*
X0234022Y0184581D01*
X0234196Y0184566D01*
X0234369Y0184547D01*
X0234542Y0184523D01*
X0234714Y0184495D01*
X0234885Y0184464D01*
X0235056Y0184427D01*
X0235225Y0184387D01*
X0235394Y0184343D01*
X0235561Y0184294D01*
X0235727Y0184242D01*
X0235892Y0184185D01*
X0236055Y0184124D01*
X0236217Y0184060D01*
X0236377Y0183991D01*
X0236536Y0183918D01*
X0236692Y0183842D01*
X0236847Y0183762D01*
X0237000Y0183678D01*
X0237150Y0183590D01*
X0237298Y0183498D01*
X0237445Y0183403D01*
X0237588Y0183305D01*
X0237729Y0183203D01*
X0237868Y0183097D01*
X0238004Y0182988D01*
X0238138Y0182876D01*
X0238268Y0182761D01*
X0238396Y0182642D01*
X0238520Y0182520D01*
X0238642Y0182396D01*
X0238761Y0182268D01*
X0238876Y0182138D01*
X0238988Y0182004D01*
X0239097Y0181868D01*
X0239203Y0181729D01*
X0239305Y0181588D01*
X0239403Y0181445D01*
X0239498Y0181298D01*
X0239590Y0181150D01*
X0239678Y0181000D01*
X0239762Y0180847D01*
X0239842Y0180692D01*
X0239918Y0180536D01*
X0239991Y0180377D01*
X0240060Y0180217D01*
X0240124Y0180055D01*
X0240185Y0179892D01*
X0240242Y0179727D01*
X0240294Y0179561D01*
X0240343Y0179394D01*
X0240387Y0179225D01*
X0240427Y0179056D01*
X0240464Y0178885D01*
X0240495Y0178714D01*
X0240523Y0178542D01*
X0240547Y0178369D01*
X0240566Y0178196D01*
X0240581Y0178022D01*
X0240591Y0177848D01*
X0240598Y0177674D01*
X0240600Y0177500D01*
X0240598Y0177326D01*
X0240591Y0177152D01*
X0240581Y0176978D01*
X0240566Y0176804D01*
X0240547Y0176631D01*
X0240523Y0176458D01*
X0240495Y0176286D01*
X0240464Y0176115D01*
X0240427Y0175944D01*
X0240387Y0175775D01*
X0240343Y0175606D01*
X0240294Y0175439D01*
X0240242Y0175273D01*
X0240185Y0175108D01*
X0240124Y0174945D01*
X0240060Y0174783D01*
X0239991Y0174623D01*
X0239918Y0174464D01*
X0239842Y0174308D01*
X0239762Y0174153D01*
X0239678Y0174000D01*
X0239590Y0173850D01*
X0239498Y0173702D01*
X0239403Y0173555D01*
X0239305Y0173412D01*
X0239203Y0173271D01*
X0239097Y0173132D01*
X0238988Y0172996D01*
X0238876Y0172862D01*
X0238761Y0172732D01*
X0238642Y0172604D01*
X0238520Y0172480D01*
X0238396Y0172358D01*
X0238268Y0172239D01*
X0238138Y0172124D01*
X0238004Y0172012D01*
X0237868Y0171903D01*
X0237729Y0171797D01*
X0237588Y0171695D01*
X0237445Y0171597D01*
X0237298Y0171502D01*
X0237150Y0171410D01*
X0237000Y0171322D01*
X0236847Y0171238D01*
X0236692Y0171158D01*
X0236536Y0171082D01*
X0236377Y0171009D01*
X0236217Y0170940D01*
X0236055Y0170876D01*
X0235892Y0170815D01*
X0235727Y0170758D01*
X0235561Y0170706D01*
X0235394Y0170657D01*
X0235225Y0170613D01*
X0235056Y0170573D01*
X0234885Y0170536D01*
X0234714Y0170505D01*
X0234542Y0170477D01*
X0234369Y0170453D01*
X0234196Y0170434D01*
X0234022Y0170419D01*
X0233848Y0170409D01*
X0233674Y0170402D01*
X0233500Y0170400D01*
X0233326Y0170402D01*
X0233152Y0170409D01*
X0232978Y0170419D01*
X0232804Y0170434D01*
X0232631Y0170453D01*
X0232458Y0170477D01*
X0232286Y0170505D01*
X0232115Y0170536D01*
X0231944Y0170573D01*
X0231775Y0170613D01*
X0231606Y0170657D01*
X0231439Y0170706D01*
X0231273Y0170758D01*
X0231108Y0170815D01*
X0230945Y0170876D01*
X0230783Y0170940D01*
X0230623Y0171009D01*
X0230464Y0171082D01*
X0230308Y0171158D01*
X0230153Y0171238D01*
X0230000Y0171322D01*
X0229850Y0171410D01*
X0229702Y0171502D01*
X0229555Y0171597D01*
X0229412Y0171695D01*
X0229271Y0171797D01*
X0229132Y0171903D01*
X0228996Y0172012D01*
X0228862Y0172124D01*
X0228732Y0172239D01*
X0228604Y0172358D01*
X0228480Y0172480D01*
X0228358Y0172604D01*
X0228239Y0172732D01*
X0228124Y0172862D01*
X0228012Y0172996D01*
X0227903Y0173132D01*
X0227797Y0173271D01*
X0227695Y0173412D01*
X0227597Y0173555D01*
X0227502Y0173702D01*
X0227410Y0173850D01*
X0227322Y0174000D01*
X0227238Y0174153D01*
X0227158Y0174308D01*
X0227082Y0174464D01*
X0227009Y0174623D01*
X0226940Y0174783D01*
X0226876Y0174945D01*
X0226815Y0175108D01*
X0226758Y0175273D01*
X0226706Y0175439D01*
X0226657Y0175606D01*
X0226613Y0175775D01*
X0226573Y0175944D01*
X0226536Y0176115D01*
X0226505Y0176286D01*
X0226477Y0176458D01*
X0226453Y0176631D01*
X0226434Y0176804D01*
X0226419Y0176978D01*
X0226409Y0177152D01*
X0226402Y0177326D01*
X0226400Y0177500D01*
X0259742Y0166000D02*
X0259742Y0044000D01*
X0259811Y0044000D02*
X0310142Y0044000D01*
X0310142Y0166000D01*
X0299142Y0166000D01*
X0299142Y0044000D01*
X0298366Y0067500D02*
X0259811Y0067500D01*
X0250500Y0075000D02*
X0240500Y0075000D01*
X0240500Y0059000D01*
X0250500Y0059000D01*
X0250500Y0075000D01*
X0245500Y0069500D02*
X0245500Y0067000D01*
X0243000Y0067000D01*
X0245500Y0067000D02*
X0248000Y0067000D01*
X0245500Y0067000D02*
X0248000Y0063000D01*
X0243000Y0063000D01*
X0245500Y0067000D01*
X0245500Y0061000D01*
X0231849Y0071300D02*
X0231849Y0074703D01*
X0234118Y0074703D01*
X0232984Y0073001D02*
X0231849Y0073001D01*
X0230435Y0073569D02*
X0230435Y0071300D01*
X0228733Y0071300D01*
X0228166Y0071867D01*
X0228166Y0073569D01*
X0226752Y0074136D02*
X0224483Y0071867D01*
X0224483Y0071300D01*
X0222501Y0071300D02*
X0222501Y0074703D01*
X0220800Y0073001D01*
X0223069Y0073001D01*
X0224483Y0074703D02*
X0226752Y0074703D01*
X0226752Y0074136D01*
X0209000Y0089500D02*
X0209004Y0089831D01*
X0209016Y0090162D01*
X0209037Y0090493D01*
X0209065Y0090823D01*
X0209102Y0091153D01*
X0209146Y0091481D01*
X0209199Y0091808D01*
X0209259Y0092134D01*
X0209328Y0092458D01*
X0209405Y0092780D01*
X0209489Y0093101D01*
X0209581Y0093419D01*
X0209681Y0093735D01*
X0209789Y0094048D01*
X0209905Y0094359D01*
X0210028Y0094666D01*
X0210158Y0094971D01*
X0210296Y0095272D01*
X0210441Y0095570D01*
X0210594Y0095864D01*
X0210754Y0096154D01*
X0210921Y0096440D01*
X0211094Y0096722D01*
X0211275Y0097000D01*
X0211463Y0097273D01*
X0211657Y0097542D01*
X0211857Y0097806D01*
X0212064Y0098064D01*
X0212278Y0098318D01*
X0212497Y0098566D01*
X0212723Y0098809D01*
X0212954Y0099046D01*
X0213191Y0099277D01*
X0213434Y0099503D01*
X0213682Y0099722D01*
X0213936Y0099936D01*
X0214194Y0100143D01*
X0214458Y0100343D01*
X0214727Y0100537D01*
X0215000Y0100725D01*
X0215278Y0100906D01*
X0215560Y0101079D01*
X0215846Y0101246D01*
X0216136Y0101406D01*
X0216430Y0101559D01*
X0216728Y0101704D01*
X0217029Y0101842D01*
X0217334Y0101972D01*
X0217641Y0102095D01*
X0217952Y0102211D01*
X0218265Y0102319D01*
X0218581Y0102419D01*
X0218899Y0102511D01*
X0219220Y0102595D01*
X0219542Y0102672D01*
X0219866Y0102741D01*
X0220192Y0102801D01*
X0220519Y0102854D01*
X0220847Y0102898D01*
X0221177Y0102935D01*
X0221507Y0102963D01*
X0221838Y0102984D01*
X0222169Y0102996D01*
X0222500Y0103000D01*
X0222831Y0102996D01*
X0223162Y0102984D01*
X0223493Y0102963D01*
X0223823Y0102935D01*
X0224153Y0102898D01*
X0224481Y0102854D01*
X0224808Y0102801D01*
X0225134Y0102741D01*
X0225458Y0102672D01*
X0225780Y0102595D01*
X0226101Y0102511D01*
X0226419Y0102419D01*
X0226735Y0102319D01*
X0227048Y0102211D01*
X0227359Y0102095D01*
X0227666Y0101972D01*
X0227971Y0101842D01*
X0228272Y0101704D01*
X0228570Y0101559D01*
X0228864Y0101406D01*
X0229154Y0101246D01*
X0229440Y0101079D01*
X0229722Y0100906D01*
X0230000Y0100725D01*
X0230273Y0100537D01*
X0230542Y0100343D01*
X0230806Y0100143D01*
X0231064Y0099936D01*
X0231318Y0099722D01*
X0231566Y0099503D01*
X0231809Y0099277D01*
X0232046Y0099046D01*
X0232277Y0098809D01*
X0232503Y0098566D01*
X0232722Y0098318D01*
X0232936Y0098064D01*
X0233143Y0097806D01*
X0233343Y0097542D01*
X0233537Y0097273D01*
X0233725Y0097000D01*
X0233906Y0096722D01*
X0234079Y0096440D01*
X0234246Y0096154D01*
X0234406Y0095864D01*
X0234559Y0095570D01*
X0234704Y0095272D01*
X0234842Y0094971D01*
X0234972Y0094666D01*
X0235095Y0094359D01*
X0235211Y0094048D01*
X0235319Y0093735D01*
X0235419Y0093419D01*
X0235511Y0093101D01*
X0235595Y0092780D01*
X0235672Y0092458D01*
X0235741Y0092134D01*
X0235801Y0091808D01*
X0235854Y0091481D01*
X0235898Y0091153D01*
X0235935Y0090823D01*
X0235963Y0090493D01*
X0235984Y0090162D01*
X0235996Y0089831D01*
X0236000Y0089500D01*
X0235996Y0089169D01*
X0235984Y0088838D01*
X0235963Y0088507D01*
X0235935Y0088177D01*
X0235898Y0087847D01*
X0235854Y0087519D01*
X0235801Y0087192D01*
X0235741Y0086866D01*
X0235672Y0086542D01*
X0235595Y0086220D01*
X0235511Y0085899D01*
X0235419Y0085581D01*
X0235319Y0085265D01*
X0235211Y0084952D01*
X0235095Y0084641D01*
X0234972Y0084334D01*
X0234842Y0084029D01*
X0234704Y0083728D01*
X0234559Y0083430D01*
X0234406Y0083136D01*
X0234246Y0082846D01*
X0234079Y0082560D01*
X0233906Y0082278D01*
X0233725Y0082000D01*
X0233537Y0081727D01*
X0233343Y0081458D01*
X0233143Y0081194D01*
X0232936Y0080936D01*
X0232722Y0080682D01*
X0232503Y0080434D01*
X0232277Y0080191D01*
X0232046Y0079954D01*
X0231809Y0079723D01*
X0231566Y0079497D01*
X0231318Y0079278D01*
X0231064Y0079064D01*
X0230806Y0078857D01*
X0230542Y0078657D01*
X0230273Y0078463D01*
X0230000Y0078275D01*
X0229722Y0078094D01*
X0229440Y0077921D01*
X0229154Y0077754D01*
X0228864Y0077594D01*
X0228570Y0077441D01*
X0228272Y0077296D01*
X0227971Y0077158D01*
X0227666Y0077028D01*
X0227359Y0076905D01*
X0227048Y0076789D01*
X0226735Y0076681D01*
X0226419Y0076581D01*
X0226101Y0076489D01*
X0225780Y0076405D01*
X0225458Y0076328D01*
X0225134Y0076259D01*
X0224808Y0076199D01*
X0224481Y0076146D01*
X0224153Y0076102D01*
X0223823Y0076065D01*
X0223493Y0076037D01*
X0223162Y0076016D01*
X0222831Y0076004D01*
X0222500Y0076000D01*
X0222169Y0076004D01*
X0221838Y0076016D01*
X0221507Y0076037D01*
X0221177Y0076065D01*
X0220847Y0076102D01*
X0220519Y0076146D01*
X0220192Y0076199D01*
X0219866Y0076259D01*
X0219542Y0076328D01*
X0219220Y0076405D01*
X0218899Y0076489D01*
X0218581Y0076581D01*
X0218265Y0076681D01*
X0217952Y0076789D01*
X0217641Y0076905D01*
X0217334Y0077028D01*
X0217029Y0077158D01*
X0216728Y0077296D01*
X0216430Y0077441D01*
X0216136Y0077594D01*
X0215846Y0077754D01*
X0215560Y0077921D01*
X0215278Y0078094D01*
X0215000Y0078275D01*
X0214727Y0078463D01*
X0214458Y0078657D01*
X0214194Y0078857D01*
X0213936Y0079064D01*
X0213682Y0079278D01*
X0213434Y0079497D01*
X0213191Y0079723D01*
X0212954Y0079954D01*
X0212723Y0080191D01*
X0212497Y0080434D01*
X0212278Y0080682D01*
X0212064Y0080936D01*
X0211857Y0081194D01*
X0211657Y0081458D01*
X0211463Y0081727D01*
X0211275Y0082000D01*
X0211094Y0082278D01*
X0210921Y0082560D01*
X0210754Y0082846D01*
X0210594Y0083136D01*
X0210441Y0083430D01*
X0210296Y0083728D01*
X0210158Y0084029D01*
X0210028Y0084334D01*
X0209905Y0084641D01*
X0209789Y0084952D01*
X0209681Y0085265D01*
X0209581Y0085581D01*
X0209489Y0085899D01*
X0209405Y0086220D01*
X0209328Y0086542D01*
X0209259Y0086866D01*
X0209199Y0087192D01*
X0209146Y0087519D01*
X0209102Y0087847D01*
X0209065Y0088177D01*
X0209037Y0088507D01*
X0209016Y0088838D01*
X0209004Y0089169D01*
X0209000Y0089500D01*
X0210500Y0089500D02*
X0213500Y0089500D01*
X0212000Y0088000D02*
X0212000Y0091000D01*
X0194000Y0088000D02*
X0194000Y0086500D01*
X0193998Y0086440D01*
X0193993Y0086379D01*
X0193984Y0086320D01*
X0193971Y0086261D01*
X0193955Y0086202D01*
X0193935Y0086145D01*
X0193912Y0086090D01*
X0193885Y0086035D01*
X0193856Y0085983D01*
X0193823Y0085932D01*
X0193787Y0085883D01*
X0193749Y0085837D01*
X0193707Y0085793D01*
X0193663Y0085751D01*
X0193617Y0085713D01*
X0193568Y0085677D01*
X0193517Y0085644D01*
X0193465Y0085615D01*
X0193410Y0085588D01*
X0193355Y0085565D01*
X0193298Y0085545D01*
X0193239Y0085529D01*
X0193180Y0085516D01*
X0193121Y0085507D01*
X0193060Y0085502D01*
X0193000Y0085500D01*
X0186000Y0085500D01*
X0185940Y0085502D01*
X0185879Y0085507D01*
X0185820Y0085516D01*
X0185761Y0085529D01*
X0185702Y0085545D01*
X0185645Y0085565D01*
X0185590Y0085588D01*
X0185535Y0085615D01*
X0185483Y0085644D01*
X0185432Y0085677D01*
X0185383Y0085713D01*
X0185337Y0085751D01*
X0185293Y0085793D01*
X0185251Y0085837D01*
X0185213Y0085883D01*
X0185177Y0085932D01*
X0185144Y0085983D01*
X0185115Y0086035D01*
X0185088Y0086090D01*
X0185065Y0086145D01*
X0185045Y0086202D01*
X0185029Y0086261D01*
X0185016Y0086320D01*
X0185007Y0086379D01*
X0185002Y0086440D01*
X0185000Y0086500D01*
X0185000Y0088000D01*
X0185500Y0088500D01*
X0185500Y0107500D01*
X0185000Y0108000D01*
X0185000Y0109500D01*
X0185002Y0109560D01*
X0185007Y0109621D01*
X0185016Y0109680D01*
X0185029Y0109739D01*
X0185045Y0109798D01*
X0185065Y0109855D01*
X0185088Y0109910D01*
X0185115Y0109965D01*
X0185144Y0110017D01*
X0185177Y0110068D01*
X0185213Y0110117D01*
X0185251Y0110163D01*
X0185293Y0110207D01*
X0185337Y0110249D01*
X0185383Y0110287D01*
X0185432Y0110323D01*
X0185483Y0110356D01*
X0185535Y0110385D01*
X0185590Y0110412D01*
X0185645Y0110435D01*
X0185702Y0110455D01*
X0185761Y0110471D01*
X0185820Y0110484D01*
X0185879Y0110493D01*
X0185940Y0110498D01*
X0186000Y0110500D01*
X0193000Y0110500D01*
X0193060Y0110498D01*
X0193121Y0110493D01*
X0193180Y0110484D01*
X0193239Y0110471D01*
X0193298Y0110455D01*
X0193355Y0110435D01*
X0193410Y0110412D01*
X0193465Y0110385D01*
X0193517Y0110356D01*
X0193568Y0110323D01*
X0193617Y0110287D01*
X0193663Y0110249D01*
X0193707Y0110207D01*
X0193749Y0110163D01*
X0193787Y0110117D01*
X0193823Y0110068D01*
X0193856Y0110017D01*
X0193885Y0109965D01*
X0193912Y0109910D01*
X0193935Y0109855D01*
X0193955Y0109798D01*
X0193971Y0109739D01*
X0193984Y0109680D01*
X0193993Y0109621D01*
X0193998Y0109560D01*
X0194000Y0109500D01*
X0194000Y0108000D01*
X0193500Y0107500D01*
X0193500Y0088500D01*
X0194000Y0088000D01*
X0189499Y0092764D02*
X0189499Y0095033D01*
X0191200Y0094466D02*
X0187797Y0094466D01*
X0189499Y0092764D01*
X0190633Y0096448D02*
X0191200Y0096448D01*
X0190633Y0096448D02*
X0188364Y0098716D01*
X0187797Y0098716D01*
X0187797Y0096448D01*
X0187797Y0100131D02*
X0191200Y0100131D01*
X0190066Y0100131D02*
X0188931Y0101832D01*
X0190066Y0100131D02*
X0191200Y0101832D01*
X0121000Y0100700D02*
X0121000Y0096500D01*
X0121000Y0092500D01*
X0121000Y0088300D01*
X0120998Y0088224D01*
X0120992Y0088148D01*
X0120983Y0088073D01*
X0120969Y0087998D01*
X0120952Y0087924D01*
X0120931Y0087851D01*
X0120907Y0087779D01*
X0120878Y0087708D01*
X0120847Y0087639D01*
X0120812Y0087572D01*
X0120773Y0087507D01*
X0120731Y0087443D01*
X0120686Y0087382D01*
X0120638Y0087323D01*
X0120587Y0087267D01*
X0120533Y0087213D01*
X0120477Y0087162D01*
X0120418Y0087114D01*
X0120357Y0087069D01*
X0120293Y0087027D01*
X0120228Y0086988D01*
X0120161Y0086953D01*
X0120092Y0086922D01*
X0120021Y0086893D01*
X0119949Y0086869D01*
X0119876Y0086848D01*
X0119802Y0086831D01*
X0119727Y0086817D01*
X0119652Y0086808D01*
X0119576Y0086802D01*
X0119500Y0086800D01*
X0082500Y0086800D01*
X0082424Y0086802D01*
X0082348Y0086808D01*
X0082273Y0086817D01*
X0082198Y0086831D01*
X0082124Y0086848D01*
X0082051Y0086869D01*
X0081979Y0086893D01*
X0081908Y0086922D01*
X0081839Y0086953D01*
X0081772Y0086988D01*
X0081707Y0087027D01*
X0081643Y0087069D01*
X0081582Y0087114D01*
X0081523Y0087162D01*
X0081467Y0087213D01*
X0081413Y0087267D01*
X0081362Y0087323D01*
X0081314Y0087382D01*
X0081269Y0087443D01*
X0081227Y0087507D01*
X0081188Y0087572D01*
X0081153Y0087639D01*
X0081122Y0087708D01*
X0081093Y0087779D01*
X0081069Y0087851D01*
X0081048Y0087924D01*
X0081031Y0087998D01*
X0081017Y0088073D01*
X0081008Y0088148D01*
X0081002Y0088224D01*
X0081000Y0088300D01*
X0081000Y0100700D01*
X0081002Y0100776D01*
X0081008Y0100852D01*
X0081017Y0100927D01*
X0081031Y0101002D01*
X0081048Y0101076D01*
X0081069Y0101149D01*
X0081093Y0101221D01*
X0081122Y0101292D01*
X0081153Y0101361D01*
X0081188Y0101428D01*
X0081227Y0101493D01*
X0081269Y0101557D01*
X0081314Y0101618D01*
X0081362Y0101677D01*
X0081413Y0101733D01*
X0081467Y0101787D01*
X0081523Y0101838D01*
X0081582Y0101886D01*
X0081643Y0101931D01*
X0081707Y0101973D01*
X0081772Y0102012D01*
X0081839Y0102047D01*
X0081908Y0102078D01*
X0081979Y0102107D01*
X0082051Y0102131D01*
X0082124Y0102152D01*
X0082198Y0102169D01*
X0082273Y0102183D01*
X0082348Y0102192D01*
X0082424Y0102198D01*
X0082500Y0102200D01*
X0119500Y0102200D01*
X0119576Y0102198D01*
X0119652Y0102192D01*
X0119727Y0102183D01*
X0119802Y0102169D01*
X0119876Y0102152D01*
X0119949Y0102131D01*
X0120021Y0102107D01*
X0120092Y0102078D01*
X0120161Y0102047D01*
X0120228Y0102012D01*
X0120293Y0101973D01*
X0120357Y0101931D01*
X0120418Y0101886D01*
X0120477Y0101838D01*
X0120533Y0101787D01*
X0120587Y0101733D01*
X0120638Y0101677D01*
X0120686Y0101618D01*
X0120731Y0101557D01*
X0120773Y0101493D01*
X0120812Y0101428D01*
X0120847Y0101361D01*
X0120878Y0101292D01*
X0120907Y0101221D01*
X0120931Y0101149D01*
X0120952Y0101076D01*
X0120969Y0101002D01*
X0120983Y0100927D01*
X0120992Y0100852D01*
X0120998Y0100776D01*
X0121000Y0100700D01*
X0121000Y0096500D02*
X0120912Y0096498D01*
X0120823Y0096492D01*
X0120735Y0096482D01*
X0120648Y0096469D01*
X0120561Y0096451D01*
X0120475Y0096430D01*
X0120390Y0096405D01*
X0120307Y0096376D01*
X0120224Y0096343D01*
X0120144Y0096307D01*
X0120065Y0096268D01*
X0119987Y0096225D01*
X0119912Y0096178D01*
X0119839Y0096128D01*
X0119768Y0096075D01*
X0119699Y0096019D01*
X0119633Y0095960D01*
X0119570Y0095898D01*
X0119510Y0095834D01*
X0119452Y0095767D01*
X0119398Y0095697D01*
X0119346Y0095625D01*
X0119298Y0095551D01*
X0119253Y0095474D01*
X0119212Y0095396D01*
X0119174Y0095316D01*
X0119140Y0095235D01*
X0119109Y0095152D01*
X0119082Y0095067D01*
X0119059Y0094982D01*
X0119040Y0094896D01*
X0119024Y0094808D01*
X0119012Y0094721D01*
X0119004Y0094633D01*
X0119000Y0094544D01*
X0119000Y0094456D01*
X0119004Y0094367D01*
X0119012Y0094279D01*
X0119024Y0094192D01*
X0119040Y0094104D01*
X0119059Y0094018D01*
X0119082Y0093933D01*
X0119109Y0093848D01*
X0119140Y0093765D01*
X0119174Y0093684D01*
X0119212Y0093604D01*
X0119253Y0093526D01*
X0119298Y0093449D01*
X0119346Y0093375D01*
X0119398Y0093303D01*
X0119452Y0093233D01*
X0119510Y0093166D01*
X0119570Y0093102D01*
X0119633Y0093040D01*
X0119699Y0092981D01*
X0119768Y0092925D01*
X0119839Y0092872D01*
X0119912Y0092822D01*
X0119987Y0092775D01*
X0120065Y0092732D01*
X0120144Y0092693D01*
X0120224Y0092657D01*
X0120307Y0092624D01*
X0120390Y0092595D01*
X0120475Y0092570D01*
X0120561Y0092549D01*
X0120648Y0092531D01*
X0120735Y0092518D01*
X0120823Y0092508D01*
X0120912Y0092502D01*
X0121000Y0092500D01*
X0078500Y0091500D02*
X0078500Y0090000D01*
X0078498Y0089940D01*
X0078493Y0089879D01*
X0078484Y0089820D01*
X0078471Y0089761D01*
X0078455Y0089702D01*
X0078435Y0089645D01*
X0078412Y0089590D01*
X0078385Y0089535D01*
X0078356Y0089483D01*
X0078323Y0089432D01*
X0078287Y0089383D01*
X0078249Y0089337D01*
X0078207Y0089293D01*
X0078163Y0089251D01*
X0078117Y0089213D01*
X0078068Y0089177D01*
X0078017Y0089144D01*
X0077965Y0089115D01*
X0077910Y0089088D01*
X0077855Y0089065D01*
X0077798Y0089045D01*
X0077739Y0089029D01*
X0077680Y0089016D01*
X0077621Y0089007D01*
X0077560Y0089002D01*
X0077500Y0089000D01*
X0070500Y0089000D01*
X0070440Y0089002D01*
X0070379Y0089007D01*
X0070320Y0089016D01*
X0070261Y0089029D01*
X0070202Y0089045D01*
X0070145Y0089065D01*
X0070090Y0089088D01*
X0070035Y0089115D01*
X0069983Y0089144D01*
X0069932Y0089177D01*
X0069883Y0089213D01*
X0069837Y0089251D01*
X0069793Y0089293D01*
X0069751Y0089337D01*
X0069713Y0089383D01*
X0069677Y0089432D01*
X0069644Y0089483D01*
X0069615Y0089535D01*
X0069588Y0089590D01*
X0069565Y0089645D01*
X0069545Y0089702D01*
X0069529Y0089761D01*
X0069516Y0089820D01*
X0069507Y0089879D01*
X0069502Y0089940D01*
X0069500Y0090000D01*
X0069500Y0091500D01*
X0070000Y0092000D01*
X0070000Y0111000D01*
X0069500Y0111500D01*
X0069500Y0113000D01*
X0069502Y0113060D01*
X0069507Y0113121D01*
X0069516Y0113180D01*
X0069529Y0113239D01*
X0069545Y0113298D01*
X0069565Y0113355D01*
X0069588Y0113410D01*
X0069615Y0113465D01*
X0069644Y0113517D01*
X0069677Y0113568D01*
X0069713Y0113617D01*
X0069751Y0113663D01*
X0069793Y0113707D01*
X0069837Y0113749D01*
X0069883Y0113787D01*
X0069932Y0113823D01*
X0069983Y0113856D01*
X0070035Y0113885D01*
X0070090Y0113912D01*
X0070145Y0113935D01*
X0070202Y0113955D01*
X0070261Y0113971D01*
X0070320Y0113984D01*
X0070379Y0113993D01*
X0070440Y0113998D01*
X0070500Y0114000D01*
X0077500Y0114000D01*
X0077560Y0113998D01*
X0077621Y0113993D01*
X0077680Y0113984D01*
X0077739Y0113971D01*
X0077798Y0113955D01*
X0077855Y0113935D01*
X0077910Y0113912D01*
X0077965Y0113885D01*
X0078017Y0113856D01*
X0078068Y0113823D01*
X0078117Y0113787D01*
X0078163Y0113749D01*
X0078207Y0113707D01*
X0078249Y0113663D01*
X0078287Y0113617D01*
X0078323Y0113568D01*
X0078356Y0113517D01*
X0078385Y0113465D01*
X0078412Y0113410D01*
X0078435Y0113355D01*
X0078455Y0113298D01*
X0078471Y0113239D01*
X0078484Y0113180D01*
X0078493Y0113121D01*
X0078498Y0113060D01*
X0078500Y0113000D01*
X0078500Y0111500D01*
X0078000Y0111000D01*
X0078000Y0092000D01*
X0078500Y0091500D01*
X0075700Y0095764D02*
X0075700Y0098033D01*
X0075700Y0096899D02*
X0072297Y0096899D01*
X0073431Y0095764D01*
X0072864Y0099448D02*
X0072297Y0100015D01*
X0072297Y0101149D01*
X0072864Y0101716D01*
X0075133Y0099448D01*
X0075700Y0100015D01*
X0075700Y0101149D01*
X0075133Y0101716D01*
X0072864Y0101716D01*
X0072297Y0103131D02*
X0075700Y0103131D01*
X0074566Y0103131D02*
X0073431Y0104832D01*
X0074566Y0103131D02*
X0075700Y0104832D01*
X0068500Y0101500D02*
X0068500Y0100000D01*
X0068000Y0099500D01*
X0068000Y0080500D01*
X0068500Y0080000D01*
X0068500Y0078500D01*
X0068498Y0078440D01*
X0068493Y0078379D01*
X0068484Y0078320D01*
X0068471Y0078261D01*
X0068455Y0078202D01*
X0068435Y0078145D01*
X0068412Y0078090D01*
X0068385Y0078035D01*
X0068356Y0077983D01*
X0068323Y0077932D01*
X0068287Y0077883D01*
X0068249Y0077837D01*
X0068207Y0077793D01*
X0068163Y0077751D01*
X0068117Y0077713D01*
X0068068Y0077677D01*
X0068017Y0077644D01*
X0067965Y0077615D01*
X0067910Y0077588D01*
X0067855Y0077565D01*
X0067798Y0077545D01*
X0067739Y0077529D01*
X0067680Y0077516D01*
X0067621Y0077507D01*
X0067560Y0077502D01*
X0067500Y0077500D01*
X0060500Y0077500D01*
X0060440Y0077502D01*
X0060379Y0077507D01*
X0060320Y0077516D01*
X0060261Y0077529D01*
X0060202Y0077545D01*
X0060145Y0077565D01*
X0060090Y0077588D01*
X0060035Y0077615D01*
X0059983Y0077644D01*
X0059932Y0077677D01*
X0059883Y0077713D01*
X0059837Y0077751D01*
X0059793Y0077793D01*
X0059751Y0077837D01*
X0059713Y0077883D01*
X0059677Y0077932D01*
X0059644Y0077983D01*
X0059615Y0078035D01*
X0059588Y0078090D01*
X0059565Y0078145D01*
X0059545Y0078202D01*
X0059529Y0078261D01*
X0059516Y0078320D01*
X0059507Y0078379D01*
X0059502Y0078440D01*
X0059500Y0078500D01*
X0059500Y0080000D01*
X0060000Y0080500D01*
X0060000Y0099500D01*
X0059500Y0100000D01*
X0059500Y0101500D01*
X0059502Y0101560D01*
X0059507Y0101621D01*
X0059516Y0101680D01*
X0059529Y0101739D01*
X0059545Y0101798D01*
X0059565Y0101855D01*
X0059588Y0101910D01*
X0059615Y0101965D01*
X0059644Y0102017D01*
X0059677Y0102068D01*
X0059713Y0102117D01*
X0059751Y0102163D01*
X0059793Y0102207D01*
X0059837Y0102249D01*
X0059883Y0102287D01*
X0059932Y0102323D01*
X0059983Y0102356D01*
X0060035Y0102385D01*
X0060090Y0102412D01*
X0060145Y0102435D01*
X0060202Y0102455D01*
X0060261Y0102471D01*
X0060320Y0102484D01*
X0060379Y0102493D01*
X0060440Y0102498D01*
X0060500Y0102500D01*
X0067500Y0102500D01*
X0067560Y0102498D01*
X0067621Y0102493D01*
X0067680Y0102484D01*
X0067739Y0102471D01*
X0067798Y0102455D01*
X0067855Y0102435D01*
X0067910Y0102412D01*
X0067965Y0102385D01*
X0068017Y0102356D01*
X0068068Y0102323D01*
X0068117Y0102287D01*
X0068163Y0102249D01*
X0068207Y0102207D01*
X0068249Y0102163D01*
X0068287Y0102117D01*
X0068323Y0102068D01*
X0068356Y0102017D01*
X0068385Y0101965D01*
X0068412Y0101910D01*
X0068435Y0101855D01*
X0068455Y0101798D01*
X0068471Y0101739D01*
X0068484Y0101680D01*
X0068493Y0101621D01*
X0068498Y0101560D01*
X0068500Y0101500D01*
X0072864Y0099448D02*
X0075133Y0099448D01*
X0065700Y0093968D02*
X0064566Y0092266D01*
X0063431Y0093968D01*
X0062297Y0092266D02*
X0065700Y0092266D01*
X0065133Y0090852D02*
X0065700Y0090285D01*
X0065700Y0089150D01*
X0065133Y0088583D01*
X0065133Y0087169D02*
X0065700Y0086601D01*
X0065700Y0085467D01*
X0065133Y0084900D01*
X0063999Y0086034D02*
X0063999Y0086601D01*
X0064566Y0087169D01*
X0065133Y0087169D01*
X0063999Y0086601D02*
X0063431Y0087169D01*
X0062864Y0087169D01*
X0062297Y0086601D01*
X0062297Y0085467D01*
X0062864Y0084900D01*
X0062864Y0088583D02*
X0062297Y0089150D01*
X0062297Y0090285D01*
X0062864Y0090852D01*
X0063431Y0090852D01*
X0063999Y0090285D01*
X0064566Y0090852D01*
X0065133Y0090852D01*
X0063999Y0090285D02*
X0063999Y0089717D01*
X0055689Y0067500D02*
X0017134Y0067500D01*
X0016358Y0044000D02*
X0055689Y0044000D01*
X0066500Y0050000D02*
X0066500Y0050500D01*
X0066500Y0052500D02*
X0066500Y0053000D01*
X0074297Y0050952D02*
X0074297Y0049818D01*
X0074864Y0049251D01*
X0077133Y0049251D01*
X0074864Y0051519D01*
X0077133Y0051519D01*
X0077700Y0050952D01*
X0077700Y0049818D01*
X0077133Y0049251D01*
X0077133Y0047836D02*
X0074864Y0047836D01*
X0077133Y0045567D01*
X0077700Y0046135D01*
X0077700Y0047269D01*
X0077133Y0047836D01*
X0077133Y0045567D02*
X0074864Y0045567D01*
X0074297Y0046135D01*
X0074297Y0047269D01*
X0074864Y0047836D01*
X0074297Y0050952D02*
X0074864Y0051519D01*
X0075431Y0052934D02*
X0075431Y0054635D01*
X0075999Y0055202D01*
X0077700Y0055202D01*
X0077700Y0056617D02*
X0074297Y0056617D01*
X0074297Y0058885D01*
X0075999Y0057751D02*
X0075999Y0056617D01*
X0075431Y0052934D02*
X0077700Y0052934D01*
X0082500Y0059000D02*
X0085500Y0059000D01*
X0084000Y0057500D02*
X0084000Y0060500D01*
X0081000Y0059000D02*
X0081004Y0059331D01*
X0081016Y0059662D01*
X0081037Y0059993D01*
X0081065Y0060323D01*
X0081102Y0060653D01*
X0081146Y0060981D01*
X0081199Y0061308D01*
X0081259Y0061634D01*
X0081328Y0061958D01*
X0081405Y0062280D01*
X0081489Y0062601D01*
X0081581Y0062919D01*
X0081681Y0063235D01*
X0081789Y0063548D01*
X0081905Y0063859D01*
X0082028Y0064166D01*
X0082158Y0064471D01*
X0082296Y0064772D01*
X0082441Y0065070D01*
X0082594Y0065364D01*
X0082754Y0065654D01*
X0082921Y0065940D01*
X0083094Y0066222D01*
X0083275Y0066500D01*
X0083463Y0066773D01*
X0083657Y0067042D01*
X0083857Y0067306D01*
X0084064Y0067564D01*
X0084278Y0067818D01*
X0084497Y0068066D01*
X0084723Y0068309D01*
X0084954Y0068546D01*
X0085191Y0068777D01*
X0085434Y0069003D01*
X0085682Y0069222D01*
X0085936Y0069436D01*
X0086194Y0069643D01*
X0086458Y0069843D01*
X0086727Y0070037D01*
X0087000Y0070225D01*
X0087278Y0070406D01*
X0087560Y0070579D01*
X0087846Y0070746D01*
X0088136Y0070906D01*
X0088430Y0071059D01*
X0088728Y0071204D01*
X0089029Y0071342D01*
X0089334Y0071472D01*
X0089641Y0071595D01*
X0089952Y0071711D01*
X0090265Y0071819D01*
X0090581Y0071919D01*
X0090899Y0072011D01*
X0091220Y0072095D01*
X0091542Y0072172D01*
X0091866Y0072241D01*
X0092192Y0072301D01*
X0092519Y0072354D01*
X0092847Y0072398D01*
X0093177Y0072435D01*
X0093507Y0072463D01*
X0093838Y0072484D01*
X0094169Y0072496D01*
X0094500Y0072500D01*
X0094831Y0072496D01*
X0095162Y0072484D01*
X0095493Y0072463D01*
X0095823Y0072435D01*
X0096153Y0072398D01*
X0096481Y0072354D01*
X0096808Y0072301D01*
X0097134Y0072241D01*
X0097458Y0072172D01*
X0097780Y0072095D01*
X0098101Y0072011D01*
X0098419Y0071919D01*
X0098735Y0071819D01*
X0099048Y0071711D01*
X0099359Y0071595D01*
X0099666Y0071472D01*
X0099971Y0071342D01*
X0100272Y0071204D01*
X0100570Y0071059D01*
X0100864Y0070906D01*
X0101154Y0070746D01*
X0101440Y0070579D01*
X0101722Y0070406D01*
X0102000Y0070225D01*
X0102273Y0070037D01*
X0102542Y0069843D01*
X0102806Y0069643D01*
X0103064Y0069436D01*
X0103318Y0069222D01*
X0103566Y0069003D01*
X0103809Y0068777D01*
X0104046Y0068546D01*
X0104277Y0068309D01*
X0104503Y0068066D01*
X0104722Y0067818D01*
X0104936Y0067564D01*
X0105143Y0067306D01*
X0105343Y0067042D01*
X0105537Y0066773D01*
X0105725Y0066500D01*
X0105906Y0066222D01*
X0106079Y0065940D01*
X0106246Y0065654D01*
X0106406Y0065364D01*
X0106559Y0065070D01*
X0106704Y0064772D01*
X0106842Y0064471D01*
X0106972Y0064166D01*
X0107095Y0063859D01*
X0107211Y0063548D01*
X0107319Y0063235D01*
X0107419Y0062919D01*
X0107511Y0062601D01*
X0107595Y0062280D01*
X0107672Y0061958D01*
X0107741Y0061634D01*
X0107801Y0061308D01*
X0107854Y0060981D01*
X0107898Y0060653D01*
X0107935Y0060323D01*
X0107963Y0059993D01*
X0107984Y0059662D01*
X0107996Y0059331D01*
X0108000Y0059000D01*
X0107996Y0058669D01*
X0107984Y0058338D01*
X0107963Y0058007D01*
X0107935Y0057677D01*
X0107898Y0057347D01*
X0107854Y0057019D01*
X0107801Y0056692D01*
X0107741Y0056366D01*
X0107672Y0056042D01*
X0107595Y0055720D01*
X0107511Y0055399D01*
X0107419Y0055081D01*
X0107319Y0054765D01*
X0107211Y0054452D01*
X0107095Y0054141D01*
X0106972Y0053834D01*
X0106842Y0053529D01*
X0106704Y0053228D01*
X0106559Y0052930D01*
X0106406Y0052636D01*
X0106246Y0052346D01*
X0106079Y0052060D01*
X0105906Y0051778D01*
X0105725Y0051500D01*
X0105537Y0051227D01*
X0105343Y0050958D01*
X0105143Y0050694D01*
X0104936Y0050436D01*
X0104722Y0050182D01*
X0104503Y0049934D01*
X0104277Y0049691D01*
X0104046Y0049454D01*
X0103809Y0049223D01*
X0103566Y0048997D01*
X0103318Y0048778D01*
X0103064Y0048564D01*
X0102806Y0048357D01*
X0102542Y0048157D01*
X0102273Y0047963D01*
X0102000Y0047775D01*
X0101722Y0047594D01*
X0101440Y0047421D01*
X0101154Y0047254D01*
X0100864Y0047094D01*
X0100570Y0046941D01*
X0100272Y0046796D01*
X0099971Y0046658D01*
X0099666Y0046528D01*
X0099359Y0046405D01*
X0099048Y0046289D01*
X0098735Y0046181D01*
X0098419Y0046081D01*
X0098101Y0045989D01*
X0097780Y0045905D01*
X0097458Y0045828D01*
X0097134Y0045759D01*
X0096808Y0045699D01*
X0096481Y0045646D01*
X0096153Y0045602D01*
X0095823Y0045565D01*
X0095493Y0045537D01*
X0095162Y0045516D01*
X0094831Y0045504D01*
X0094500Y0045500D01*
X0094169Y0045504D01*
X0093838Y0045516D01*
X0093507Y0045537D01*
X0093177Y0045565D01*
X0092847Y0045602D01*
X0092519Y0045646D01*
X0092192Y0045699D01*
X0091866Y0045759D01*
X0091542Y0045828D01*
X0091220Y0045905D01*
X0090899Y0045989D01*
X0090581Y0046081D01*
X0090265Y0046181D01*
X0089952Y0046289D01*
X0089641Y0046405D01*
X0089334Y0046528D01*
X0089029Y0046658D01*
X0088728Y0046796D01*
X0088430Y0046941D01*
X0088136Y0047094D01*
X0087846Y0047254D01*
X0087560Y0047421D01*
X0087278Y0047594D01*
X0087000Y0047775D01*
X0086727Y0047963D01*
X0086458Y0048157D01*
X0086194Y0048357D01*
X0085936Y0048564D01*
X0085682Y0048778D01*
X0085434Y0048997D01*
X0085191Y0049223D01*
X0084954Y0049454D01*
X0084723Y0049691D01*
X0084497Y0049934D01*
X0084278Y0050182D01*
X0084064Y0050436D01*
X0083857Y0050694D01*
X0083657Y0050958D01*
X0083463Y0051227D01*
X0083275Y0051500D01*
X0083094Y0051778D01*
X0082921Y0052060D01*
X0082754Y0052346D01*
X0082594Y0052636D01*
X0082441Y0052930D01*
X0082296Y0053228D01*
X0082158Y0053529D01*
X0082028Y0053834D01*
X0081905Y0054141D01*
X0081789Y0054452D01*
X0081681Y0054765D01*
X0081581Y0055081D01*
X0081489Y0055399D01*
X0081405Y0055720D01*
X0081328Y0056042D01*
X0081259Y0056366D01*
X0081199Y0056692D01*
X0081146Y0057019D01*
X0081102Y0057347D01*
X0081065Y0057677D01*
X0081037Y0058007D01*
X0081016Y0058338D01*
X0081004Y0058669D01*
X0081000Y0059000D01*
X0077700Y0044153D02*
X0077700Y0041884D01*
X0077700Y0043019D02*
X0074297Y0043019D01*
X0075431Y0041884D01*
X0087800Y0042501D02*
X0090069Y0042501D01*
X0089501Y0040800D02*
X0089501Y0044203D01*
X0087800Y0042501D01*
X0091483Y0041367D02*
X0091483Y0040800D01*
X0091483Y0041367D02*
X0093752Y0043636D01*
X0093752Y0044203D01*
X0091483Y0044203D01*
X0095166Y0043069D02*
X0095166Y0041367D01*
X0095733Y0040800D01*
X0097435Y0040800D01*
X0097435Y0043069D01*
X0098849Y0042501D02*
X0099984Y0042501D01*
X0098849Y0040800D02*
X0098849Y0044203D01*
X0101118Y0044203D01*
X0224429Y0035636D02*
X0224429Y0033367D01*
X0224996Y0032800D01*
X0226130Y0032800D01*
X0226697Y0033367D01*
X0228112Y0033367D02*
X0228112Y0035636D01*
X0228679Y0036203D01*
X0229813Y0036203D01*
X0230381Y0035636D01*
X0230381Y0033367D01*
X0229813Y0032800D01*
X0228679Y0032800D01*
X0228112Y0033367D01*
X0226697Y0035636D02*
X0226130Y0036203D01*
X0224996Y0036203D01*
X0224429Y0035636D01*
X0231795Y0036203D02*
X0231795Y0032800D01*
X0234064Y0032800D02*
X0231795Y0036203D01*
X0234064Y0036203D02*
X0234064Y0032800D01*
X0235478Y0032800D02*
X0235478Y0036203D01*
X0237747Y0036203D01*
X0239161Y0036203D02*
X0240296Y0036203D01*
X0239729Y0036203D02*
X0239729Y0032800D01*
X0240296Y0032800D02*
X0239161Y0032800D01*
X0241617Y0033367D02*
X0241617Y0035636D01*
X0242184Y0036203D01*
X0243318Y0036203D01*
X0243885Y0035636D01*
X0243885Y0034501D02*
X0242751Y0034501D01*
X0243885Y0034501D02*
X0243885Y0033367D01*
X0243318Y0032800D01*
X0242184Y0032800D01*
X0241617Y0033367D01*
X0236613Y0034501D02*
X0235478Y0034501D01*
X0254500Y0019000D02*
X0254503Y0019245D01*
X0254512Y0019491D01*
X0254527Y0019736D01*
X0254548Y0019980D01*
X0254575Y0020224D01*
X0254608Y0020467D01*
X0254647Y0020710D01*
X0254692Y0020951D01*
X0254743Y0021191D01*
X0254800Y0021430D01*
X0254862Y0021667D01*
X0254931Y0021903D01*
X0255005Y0022137D01*
X0255085Y0022369D01*
X0255170Y0022599D01*
X0255261Y0022827D01*
X0255358Y0023052D01*
X0255460Y0023276D01*
X0255568Y0023496D01*
X0255681Y0023714D01*
X0255799Y0023929D01*
X0255923Y0024141D01*
X0256051Y0024350D01*
X0256185Y0024556D01*
X0256324Y0024758D01*
X0256468Y0024957D01*
X0256617Y0025152D01*
X0256770Y0025344D01*
X0256928Y0025532D01*
X0257090Y0025716D01*
X0257258Y0025895D01*
X0257429Y0026071D01*
X0257605Y0026242D01*
X0257784Y0026410D01*
X0257968Y0026572D01*
X0258156Y0026730D01*
X0258348Y0026883D01*
X0258543Y0027032D01*
X0258742Y0027176D01*
X0258944Y0027315D01*
X0259150Y0027449D01*
X0259359Y0027577D01*
X0259571Y0027701D01*
X0259786Y0027819D01*
X0260004Y0027932D01*
X0260224Y0028040D01*
X0260448Y0028142D01*
X0260673Y0028239D01*
X0260901Y0028330D01*
X0261131Y0028415D01*
X0261363Y0028495D01*
X0261597Y0028569D01*
X0261833Y0028638D01*
X0262070Y0028700D01*
X0262309Y0028757D01*
X0262549Y0028808D01*
X0262790Y0028853D01*
X0263033Y0028892D01*
X0263276Y0028925D01*
X0263520Y0028952D01*
X0263764Y0028973D01*
X0264009Y0028988D01*
X0264255Y0028997D01*
X0264500Y0029000D01*
X0264745Y0028997D01*
X0264991Y0028988D01*
X0265236Y0028973D01*
X0265480Y0028952D01*
X0265724Y0028925D01*
X0265967Y0028892D01*
X0266210Y0028853D01*
X0266451Y0028808D01*
X0266691Y0028757D01*
X0266930Y0028700D01*
X0267167Y0028638D01*
X0267403Y0028569D01*
X0267637Y0028495D01*
X0267869Y0028415D01*
X0268099Y0028330D01*
X0268327Y0028239D01*
X0268552Y0028142D01*
X0268776Y0028040D01*
X0268996Y0027932D01*
X0269214Y0027819D01*
X0269429Y0027701D01*
X0269641Y0027577D01*
X0269850Y0027449D01*
X0270056Y0027315D01*
X0270258Y0027176D01*
X0270457Y0027032D01*
X0270652Y0026883D01*
X0270844Y0026730D01*
X0271032Y0026572D01*
X0271216Y0026410D01*
X0271395Y0026242D01*
X0271571Y0026071D01*
X0271742Y0025895D01*
X0271910Y0025716D01*
X0272072Y0025532D01*
X0272230Y0025344D01*
X0272383Y0025152D01*
X0272532Y0024957D01*
X0272676Y0024758D01*
X0272815Y0024556D01*
X0272949Y0024350D01*
X0273077Y0024141D01*
X0273201Y0023929D01*
X0273319Y0023714D01*
X0273432Y0023496D01*
X0273540Y0023276D01*
X0273642Y0023052D01*
X0273739Y0022827D01*
X0273830Y0022599D01*
X0273915Y0022369D01*
X0273995Y0022137D01*
X0274069Y0021903D01*
X0274138Y0021667D01*
X0274200Y0021430D01*
X0274257Y0021191D01*
X0274308Y0020951D01*
X0274353Y0020710D01*
X0274392Y0020467D01*
X0274425Y0020224D01*
X0274452Y0019980D01*
X0274473Y0019736D01*
X0274488Y0019491D01*
X0274497Y0019245D01*
X0274500Y0019000D01*
X0274497Y0018755D01*
X0274488Y0018509D01*
X0274473Y0018264D01*
X0274452Y0018020D01*
X0274425Y0017776D01*
X0274392Y0017533D01*
X0274353Y0017290D01*
X0274308Y0017049D01*
X0274257Y0016809D01*
X0274200Y0016570D01*
X0274138Y0016333D01*
X0274069Y0016097D01*
X0273995Y0015863D01*
X0273915Y0015631D01*
X0273830Y0015401D01*
X0273739Y0015173D01*
X0273642Y0014948D01*
X0273540Y0014724D01*
X0273432Y0014504D01*
X0273319Y0014286D01*
X0273201Y0014071D01*
X0273077Y0013859D01*
X0272949Y0013650D01*
X0272815Y0013444D01*
X0272676Y0013242D01*
X0272532Y0013043D01*
X0272383Y0012848D01*
X0272230Y0012656D01*
X0272072Y0012468D01*
X0271910Y0012284D01*
X0271742Y0012105D01*
X0271571Y0011929D01*
X0271395Y0011758D01*
X0271216Y0011590D01*
X0271032Y0011428D01*
X0270844Y0011270D01*
X0270652Y0011117D01*
X0270457Y0010968D01*
X0270258Y0010824D01*
X0270056Y0010685D01*
X0269850Y0010551D01*
X0269641Y0010423D01*
X0269429Y0010299D01*
X0269214Y0010181D01*
X0268996Y0010068D01*
X0268776Y0009960D01*
X0268552Y0009858D01*
X0268327Y0009761D01*
X0268099Y0009670D01*
X0267869Y0009585D01*
X0267637Y0009505D01*
X0267403Y0009431D01*
X0267167Y0009362D01*
X0266930Y0009300D01*
X0266691Y0009243D01*
X0266451Y0009192D01*
X0266210Y0009147D01*
X0265967Y0009108D01*
X0265724Y0009075D01*
X0265480Y0009048D01*
X0265236Y0009027D01*
X0264991Y0009012D01*
X0264745Y0009003D01*
X0264500Y0009000D01*
X0264255Y0009003D01*
X0264009Y0009012D01*
X0263764Y0009027D01*
X0263520Y0009048D01*
X0263276Y0009075D01*
X0263033Y0009108D01*
X0262790Y0009147D01*
X0262549Y0009192D01*
X0262309Y0009243D01*
X0262070Y0009300D01*
X0261833Y0009362D01*
X0261597Y0009431D01*
X0261363Y0009505D01*
X0261131Y0009585D01*
X0260901Y0009670D01*
X0260673Y0009761D01*
X0260448Y0009858D01*
X0260224Y0009960D01*
X0260004Y0010068D01*
X0259786Y0010181D01*
X0259571Y0010299D01*
X0259359Y0010423D01*
X0259150Y0010551D01*
X0258944Y0010685D01*
X0258742Y0010824D01*
X0258543Y0010968D01*
X0258348Y0011117D01*
X0258156Y0011270D01*
X0257968Y0011428D01*
X0257784Y0011590D01*
X0257605Y0011758D01*
X0257429Y0011929D01*
X0257258Y0012105D01*
X0257090Y0012284D01*
X0256928Y0012468D01*
X0256770Y0012656D01*
X0256617Y0012848D01*
X0256468Y0013043D01*
X0256324Y0013242D01*
X0256185Y0013444D01*
X0256051Y0013650D01*
X0255923Y0013859D01*
X0255799Y0014071D01*
X0255681Y0014286D01*
X0255568Y0014504D01*
X0255460Y0014724D01*
X0255358Y0014948D01*
X0255261Y0015173D01*
X0255170Y0015401D01*
X0255085Y0015631D01*
X0255005Y0015863D01*
X0254931Y0016097D01*
X0254862Y0016333D01*
X0254800Y0016570D01*
X0254743Y0016809D01*
X0254692Y0017049D01*
X0254647Y0017290D01*
X0254608Y0017533D01*
X0254575Y0017776D01*
X0254548Y0018020D01*
X0254527Y0018264D01*
X0254512Y0018509D01*
X0254503Y0018755D01*
X0254500Y0019000D01*
X0259811Y0142500D02*
X0298366Y0142500D01*
X0299142Y0166000D02*
X0259811Y0166000D01*
D15*
X0251500Y0163500D02*
X0215500Y0163500D01*
X0215500Y0131000D01*
X0251500Y0131000D01*
X0251500Y0163500D01*
X0172000Y0150800D02*
X0132000Y0150800D01*
X0099300Y0165000D02*
X0099300Y0130000D01*
X0081000Y0100800D02*
X0121000Y0100800D01*
D16*
X0130872Y0061156D02*
X0131840Y0061156D01*
X0132323Y0060672D01*
X0132323Y0060188D01*
X0131840Y0059704D01*
X0130872Y0059704D01*
X0130389Y0060188D01*
X0130389Y0060672D01*
X0130872Y0061156D01*
X0130872Y0059704D02*
X0130389Y0059221D01*
X0130389Y0058737D01*
X0130872Y0058253D01*
X0131840Y0058253D01*
X0132323Y0058737D01*
X0132323Y0059221D01*
X0131840Y0059704D01*
X0131662Y0051313D02*
X0129727Y0051313D01*
X0129727Y0049862D01*
X0130695Y0050346D01*
X0131178Y0050346D01*
X0131662Y0049862D01*
X0131662Y0048894D01*
X0131178Y0048411D01*
X0130211Y0048411D01*
X0129727Y0048894D01*
X0138341Y0048253D02*
X0140276Y0050188D01*
X0140276Y0050672D01*
X0139793Y0051156D01*
X0138825Y0051156D01*
X0138341Y0050672D01*
X0138341Y0048253D02*
X0140276Y0048253D01*
X0147703Y0048253D02*
X0149638Y0048253D01*
X0148671Y0048253D02*
X0148671Y0051156D01*
X0147703Y0050188D01*
X0156735Y0050672D02*
X0157219Y0051156D01*
X0158186Y0051156D01*
X0158670Y0050672D01*
X0158670Y0050188D01*
X0158186Y0049704D01*
X0158670Y0049221D01*
X0158670Y0048737D01*
X0158186Y0048253D01*
X0157219Y0048253D01*
X0156735Y0048737D01*
X0157702Y0049704D02*
X0158186Y0049704D01*
X0158485Y0058096D02*
X0157518Y0058096D01*
X0157034Y0058579D01*
X0157034Y0059547D01*
X0158485Y0059547D01*
X0158969Y0059063D01*
X0158969Y0058579D01*
X0158485Y0058096D01*
X0157034Y0059547D02*
X0158002Y0060514D01*
X0158969Y0060998D01*
D17*
X0274500Y0026500D02*
X0274500Y0011500D01*
X0114500Y0172500D02*
X0114500Y0187500D01*
X0080000Y0187500D02*
X0080000Y0172500D01*
D18*
X0121500Y0156700D03*
X0121500Y0128300D03*
X0074000Y0115700D03*
X0064000Y0104200D03*
X0074000Y0087300D03*
X0064000Y0075800D03*
X0189500Y0083800D03*
X0189500Y0112200D03*
X0201500Y0117300D03*
X0201500Y0145700D03*
D19*
X0171200Y0119500D03*
X0142800Y0119500D03*
X0173300Y0192000D03*
X0201700Y0192000D03*
D20*
X0217870Y0071142D02*
X0178500Y0071142D01*
X0178500Y0005394D01*
X0217870Y0005394D01*
X0217870Y0071142D01*
D21*
X0245500Y0072500D03*
D22*
X0245500Y0078750D03*
X0245500Y0055250D03*
D23*
X0238885Y0164700D02*
X0238885Y0166451D01*
X0238301Y0167035D01*
X0237717Y0166451D01*
X0237717Y0164700D01*
X0236549Y0164700D02*
X0236549Y0167035D01*
X0237133Y0167035D01*
X0237717Y0166451D01*
X0235294Y0166451D02*
X0235294Y0164700D01*
X0234126Y0164700D02*
X0234126Y0166451D01*
X0234710Y0167035D01*
X0235294Y0166451D01*
X0234126Y0166451D02*
X0233542Y0167035D01*
X0232958Y0167035D01*
X0232958Y0164700D01*
X0231703Y0164700D02*
X0229367Y0164700D01*
X0231703Y0167035D01*
X0231703Y0167619D01*
X0231119Y0168203D01*
X0229951Y0168203D01*
X0229367Y0167619D01*
X0228141Y0165284D02*
X0227557Y0165284D01*
X0227557Y0164700D01*
X0228141Y0164700D01*
X0228141Y0165284D01*
X0228141Y0164700D02*
X0226973Y0163532D01*
X0225717Y0165284D02*
X0225134Y0164700D01*
X0223966Y0164700D01*
X0223382Y0165284D01*
X0223382Y0166451D02*
X0224550Y0167035D01*
X0225134Y0167035D01*
X0225717Y0166451D01*
X0225717Y0165284D01*
X0223382Y0166451D02*
X0223382Y0168203D01*
X0225717Y0168203D01*
X0220959Y0168203D02*
X0220959Y0164700D01*
X0222126Y0164700D02*
X0219791Y0164700D01*
X0218535Y0164700D02*
X0218535Y0167035D01*
X0217368Y0168203D01*
X0216200Y0167035D01*
X0216200Y0164700D01*
X0216200Y0166451D02*
X0218535Y0166451D01*
X0219791Y0167035D02*
X0220959Y0168203D01*
D24*
X0223500Y0126750D03*
X0233500Y0126750D03*
X0243500Y0126750D03*
D25*
X0243839Y0192850D02*
X0241737Y0192850D01*
X0240686Y0193901D01*
X0240686Y0196003D02*
X0242788Y0197054D01*
X0243839Y0197054D01*
X0244890Y0196003D01*
X0244890Y0193901D01*
X0243839Y0192850D01*
X0240686Y0196003D02*
X0240686Y0199155D01*
X0244890Y0199155D01*
X0238445Y0198104D02*
X0238445Y0193901D01*
X0237394Y0192850D01*
X0235292Y0192850D01*
X0234241Y0193901D01*
X0238445Y0198104D01*
X0237394Y0199155D01*
X0235292Y0199155D01*
X0234241Y0198104D01*
X0234241Y0193901D01*
X0231999Y0193901D02*
X0230948Y0192850D01*
X0228846Y0192850D01*
X0227795Y0193901D01*
X0227795Y0194952D01*
X0228846Y0196003D01*
X0230948Y0196003D01*
X0231999Y0194952D01*
X0231999Y0193901D01*
X0230948Y0196003D02*
X0231999Y0197054D01*
X0231999Y0198104D01*
X0230948Y0199155D01*
X0228846Y0199155D01*
X0227795Y0198104D01*
X0227795Y0197054D01*
X0228846Y0196003D01*
X0225554Y0198104D02*
X0221350Y0193901D01*
X0221350Y0192850D01*
X0221350Y0199155D02*
X0225554Y0199155D01*
X0225554Y0198104D01*
D26*
X0183000Y0143000D03*
X0134500Y0181000D03*
X0067000Y0147000D03*
D27*
X0156000Y0181000D03*
X0186500Y0176500D03*
M02*
