%
M48
M72
T01C0.02400
T02C0.03200
T03C0.03543
T04C0.03937
T05C0.04000
T06C0.04400
T07C0.04700
T08C0.09843
T09C0.12205
T10C0.12598
T11C0.12750
T12C0.13000
T13C0.14567
T14C0.15000
%
T01
X92600Y69700
X60400Y79500
X87000Y92100
X122000Y99100
X138800Y87900
X160200Y67500
X141600Y54300
X178000Y96300
X172400Y114500
X147200Y114500
X129000Y134100
X112200Y128500
X105200Y127100
X129000Y153700
X137400Y164900
X54800Y149500
X289900Y161700
T02
X207500Y192000
X198500Y176500
X178500Y176500
X168000Y181000
X167500Y192000
X148000Y181000
X134500Y173000
X121500Y162500
X109500Y180000
X99500Y180000
X75000Y180000
X65000Y180000
X67000Y155000
X67000Y135000
X74000Y121500
X64000Y110000
X99000Y119500
X109000Y119500
X121500Y122500
X137000Y119500
X177000Y119500
X189500Y118000
X201500Y111500
X217500Y89500
X227500Y89500
X189500Y78000
X183000Y135000
X201500Y151500
X183000Y155000
X134500Y193000
X74000Y81500
X64000Y70000
X66500Y56500
X66500Y46500
X89500Y59000
X99500Y59000
X259500Y19000
X269500Y19000
T03
X154886Y46264
X146618Y46264
X136382Y46264
X128114Y46264
X128114Y56106
X154886Y55909
T04
X92500Y22500
X82500Y22500
X72500Y22500
X62500Y22500
X52500Y22500
X42500Y22500
X229500Y18500
X239500Y18500
T05
X243500Y118500
X233500Y118500
X223500Y118500
T06
X245500Y87000
X245500Y47000
T07
X267495Y83200
X278690Y88650
X267495Y94100
X278690Y99550
X267495Y105000
X278690Y110450
X267495Y115900
X278690Y121350
X267495Y126800
X48005Y126800
X36810Y121350
X48005Y115900
X36810Y110450
X48005Y105000
X36810Y99550
X48005Y94100
X36810Y88650
X48005Y83200
T08
X114728Y34453
X168075Y34453
T09
X141500Y33000
T10
X197791Y35315
X217083Y47323
T11
X273095Y56000
X273095Y154000
X42405Y154000
X42405Y56000
T12
X233500Y177500
T13
X197791Y58937
T14
X25000Y22500
X25500Y183000
X290000Y182500
X290000Y22000
M30
