G75*
%MOIN*%
%OFA0B0*%
%FSLAX25Y25*%
%IPPOS*%
%LPD*%
%AMOC8*
5,1,8,0,0,1.08239X$1,22.5*
%
%ADD10C,0.01600*%
%ADD11R,0.02600X0.08000*%
%ADD12R,0.08661X0.02362*%
%ADD13R,0.08000X0.02600*%
D10*
X0214000Y0129000D02*
X0214000Y0163000D01*
X0253500Y0163500D01*
X0253500Y0129000D01*
X0214000Y0129000D01*
X0214000Y0130381D02*
X0253500Y0130381D01*
X0253500Y0131979D02*
X0214000Y0131979D01*
X0214000Y0133578D02*
X0253500Y0133578D01*
X0253500Y0135176D02*
X0214000Y0135176D01*
X0214000Y0136775D02*
X0253500Y0136775D01*
X0253500Y0138373D02*
X0214000Y0138373D01*
X0214000Y0139972D02*
X0253500Y0139972D01*
X0253500Y0141570D02*
X0214000Y0141570D01*
X0214000Y0143169D02*
X0253500Y0143169D01*
X0253500Y0144768D02*
X0214000Y0144768D01*
X0214000Y0146366D02*
X0253500Y0146366D01*
X0253500Y0147965D02*
X0214000Y0147965D01*
X0214000Y0149563D02*
X0253500Y0149563D01*
X0253500Y0151162D02*
X0214000Y0151162D01*
X0214000Y0152760D02*
X0253500Y0152760D01*
X0253500Y0154359D02*
X0214000Y0154359D01*
X0214000Y0155957D02*
X0253500Y0155957D01*
X0253500Y0157556D02*
X0214000Y0157556D01*
X0214000Y0159154D02*
X0253500Y0159154D01*
X0253500Y0160753D02*
X0214000Y0160753D01*
X0214000Y0162351D02*
X0253500Y0162351D01*
D11*
X0083500Y0082400D03*
X0088500Y0082400D03*
X0093500Y0082400D03*
X0098500Y0082400D03*
X0103500Y0082400D03*
X0108500Y0082400D03*
X0113500Y0082400D03*
X0118500Y0082400D03*
X0118500Y0106600D03*
X0113500Y0106600D03*
X0108500Y0106600D03*
X0103500Y0106600D03*
X0098500Y0106600D03*
X0093500Y0106600D03*
X0088500Y0106600D03*
X0083500Y0106600D03*
X0134500Y0132400D03*
X0139500Y0132400D03*
X0144500Y0132400D03*
X0149500Y0132400D03*
X0154500Y0132400D03*
X0159500Y0132400D03*
X0164500Y0132400D03*
X0169500Y0132400D03*
X0169500Y0156600D03*
X0164500Y0156600D03*
X0159500Y0156600D03*
X0154500Y0156600D03*
X0149500Y0156600D03*
X0144500Y0156600D03*
X0139500Y0156600D03*
X0134500Y0156600D03*
D12*
X0147764Y0103500D03*
X0147764Y0098500D03*
X0147764Y0093500D03*
X0147764Y0088500D03*
X0147764Y0083500D03*
X0147764Y0078500D03*
X0147764Y0073500D03*
X0168236Y0073500D03*
X0168236Y0078500D03*
X0168236Y0083500D03*
X0168236Y0088500D03*
X0168236Y0093500D03*
X0168236Y0098500D03*
X0168236Y0103500D03*
D13*
X0105100Y0132500D03*
X0105100Y0137500D03*
X0105100Y0142500D03*
X0105100Y0147500D03*
X0105100Y0152500D03*
X0105100Y0157500D03*
X0105100Y0162500D03*
X0080900Y0162500D03*
X0080900Y0157500D03*
X0080900Y0152500D03*
X0080900Y0147500D03*
X0080900Y0142500D03*
X0080900Y0137500D03*
X0080900Y0132500D03*
M02*
