G75*
%MOIN*%
%OFA0B0*%
%FSLAX25Y25*%
%IPPOS*%
%LPD*%
%AMOC8*
5,1,8,0,0,1.08239X$1,22.5*
%
%ADD10C,0.15800*%
%ADD11OC8,0.07100*%
%ADD12C,0.07100*%
%ADD13OC8,0.06000*%
%ADD14C,0.06737*%
%ADD15C,0.16548*%
%ADD16OC8,0.06400*%
%ADD17C,0.18516*%
%ADD18C,0.19304*%
%ADD19C,0.21272*%
%ADD20C,0.07400*%
%ADD21C,0.06800*%
%ADD22C,0.13800*%
%ADD23C,0.08300*%
%ADD24OC8,0.08300*%
%ADD25OC8,0.07850*%
%ADD26C,0.17550*%
%ADD27C,0.04800*%
D10*
X0025000Y0022500D03*
X0025500Y0183000D03*
X0290000Y0182500D03*
X0290000Y0022000D03*
D11*
X0227500Y0089500D03*
X0099500Y0059000D03*
D12*
X0089500Y0059000D03*
X0217500Y0089500D03*
D13*
X0189500Y0078000D03*
X0201500Y0111500D03*
X0189500Y0118000D03*
X0177000Y0119500D03*
X0137000Y0119500D03*
X0121500Y0122500D03*
X0109000Y0119500D03*
X0099000Y0119500D03*
X0074000Y0121500D03*
X0064000Y0110000D03*
X0074000Y0081500D03*
X0064000Y0070000D03*
X0066500Y0056500D03*
X0066500Y0046500D03*
X0201500Y0151500D03*
X0207500Y0192000D03*
X0167500Y0192000D03*
X0121500Y0162500D03*
X0109500Y0180000D03*
X0099500Y0180000D03*
X0075000Y0180000D03*
X0065000Y0180000D03*
X0259500Y0019000D03*
X0269500Y0019000D03*
D14*
X0239500Y0021469D02*
X0239500Y0015531D01*
X0229500Y0015531D02*
X0229500Y0021469D01*
X0092500Y0019531D02*
X0092500Y0025469D01*
X0082500Y0025469D02*
X0082500Y0019531D01*
X0072500Y0019531D02*
X0072500Y0025469D01*
X0062500Y0025469D02*
X0062500Y0019531D01*
X0052500Y0019531D02*
X0052500Y0025469D01*
X0042500Y0025469D02*
X0042500Y0019531D01*
D15*
X0114728Y0034453D03*
X0168075Y0034453D03*
D16*
X0154886Y0046264D03*
X0146618Y0046264D03*
X0136382Y0046264D03*
X0128114Y0046264D03*
X0128114Y0056106D03*
X0154886Y0055909D03*
D17*
X0141500Y0033000D03*
D18*
X0197791Y0035315D03*
X0217083Y0047323D03*
D19*
X0197791Y0058937D03*
D20*
X0245500Y0047000D03*
X0245500Y0087000D03*
D21*
X0243500Y0115500D02*
X0243500Y0121500D01*
X0233500Y0121500D02*
X0233500Y0115500D01*
X0223500Y0115500D02*
X0223500Y0121500D01*
D22*
X0233500Y0177500D03*
D23*
X0198500Y0176500D03*
X0168000Y0181000D03*
X0134500Y0193000D03*
X0183000Y0155000D03*
X0067000Y0135000D03*
D24*
X0067000Y0155000D03*
X0134500Y0173000D03*
X0148000Y0181000D03*
X0178500Y0176500D03*
X0183000Y0135000D03*
D25*
X0267495Y0126800D03*
X0278690Y0121350D03*
X0267495Y0115900D03*
X0278690Y0110450D03*
X0267495Y0105000D03*
X0278690Y0099550D03*
X0267495Y0094100D03*
X0278690Y0088650D03*
X0267495Y0083200D03*
X0048005Y0083200D03*
X0036810Y0088650D03*
X0048005Y0094100D03*
X0036810Y0099550D03*
X0048005Y0105000D03*
X0036810Y0110450D03*
X0048005Y0115900D03*
X0036810Y0121350D03*
X0048005Y0126800D03*
D26*
X0042405Y0154000D03*
X0042405Y0056000D03*
X0273095Y0056000D03*
X0273095Y0154000D03*
D27*
X0289900Y0161700D03*
X0178000Y0096300D03*
X0172400Y0114500D03*
X0147200Y0114500D03*
X0122000Y0099100D03*
X0138800Y0087900D03*
X0160200Y0067500D03*
X0141600Y0054300D03*
X0092600Y0069700D03*
X0060400Y0079500D03*
X0087000Y0092100D03*
X0105200Y0127100D03*
X0112200Y0128500D03*
X0129000Y0134100D03*
X0129000Y0153700D03*
X0137400Y0164900D03*
X0054800Y0149500D03*
M02*
