G75*
%MOIN*%
%OFA0B0*%
%FSLAX25Y25*%
%IPPOS*%
%LPD*%
%AMOC8*
5,1,8,0,0,1.08239X$1,22.5*
%
%ADD10C,0.00000*%
%ADD11C,0.01600*%
%ADD12OC8,0.06300*%
%ADD13C,0.06300*%
%ADD14OC8,0.05200*%
%ADD15C,0.05937*%
%ADD16C,0.15748*%
%ADD17OC8,0.05600*%
%ADD18C,0.17716*%
%ADD19C,0.18504*%
%ADD20C,0.20472*%
%ADD21C,0.06600*%
%ADD22C,0.06000*%
%ADD23C,0.07500*%
%ADD24OC8,0.07500*%
%ADD25OC8,0.07050*%
%ADD26C,0.16750*%
%ADD27C,0.01400*%
%ADD28C,0.04000*%
D10*
X0017500Y0022500D02*
X0017502Y0022684D01*
X0017509Y0022868D01*
X0017520Y0023052D01*
X0017536Y0023235D01*
X0017556Y0023418D01*
X0017581Y0023600D01*
X0017610Y0023782D01*
X0017644Y0023963D01*
X0017682Y0024143D01*
X0017725Y0024322D01*
X0017772Y0024500D01*
X0017823Y0024677D01*
X0017879Y0024853D01*
X0017938Y0025027D01*
X0018003Y0025199D01*
X0018071Y0025370D01*
X0018143Y0025539D01*
X0018220Y0025707D01*
X0018301Y0025872D01*
X0018386Y0026035D01*
X0018474Y0026197D01*
X0018567Y0026356D01*
X0018664Y0026512D01*
X0018764Y0026667D01*
X0018868Y0026819D01*
X0018976Y0026968D01*
X0019087Y0027114D01*
X0019202Y0027258D01*
X0019321Y0027399D01*
X0019443Y0027537D01*
X0019568Y0027672D01*
X0019697Y0027803D01*
X0019828Y0027932D01*
X0019963Y0028057D01*
X0020101Y0028179D01*
X0020242Y0028298D01*
X0020386Y0028413D01*
X0020532Y0028524D01*
X0020681Y0028632D01*
X0020833Y0028736D01*
X0020988Y0028836D01*
X0021144Y0028933D01*
X0021303Y0029026D01*
X0021465Y0029114D01*
X0021628Y0029199D01*
X0021793Y0029280D01*
X0021961Y0029357D01*
X0022130Y0029429D01*
X0022301Y0029497D01*
X0022473Y0029562D01*
X0022647Y0029621D01*
X0022823Y0029677D01*
X0023000Y0029728D01*
X0023178Y0029775D01*
X0023357Y0029818D01*
X0023537Y0029856D01*
X0023718Y0029890D01*
X0023900Y0029919D01*
X0024082Y0029944D01*
X0024265Y0029964D01*
X0024448Y0029980D01*
X0024632Y0029991D01*
X0024816Y0029998D01*
X0025000Y0030000D01*
X0025184Y0029998D01*
X0025368Y0029991D01*
X0025552Y0029980D01*
X0025735Y0029964D01*
X0025918Y0029944D01*
X0026100Y0029919D01*
X0026282Y0029890D01*
X0026463Y0029856D01*
X0026643Y0029818D01*
X0026822Y0029775D01*
X0027000Y0029728D01*
X0027177Y0029677D01*
X0027353Y0029621D01*
X0027527Y0029562D01*
X0027699Y0029497D01*
X0027870Y0029429D01*
X0028039Y0029357D01*
X0028207Y0029280D01*
X0028372Y0029199D01*
X0028535Y0029114D01*
X0028697Y0029026D01*
X0028856Y0028933D01*
X0029012Y0028836D01*
X0029167Y0028736D01*
X0029319Y0028632D01*
X0029468Y0028524D01*
X0029614Y0028413D01*
X0029758Y0028298D01*
X0029899Y0028179D01*
X0030037Y0028057D01*
X0030172Y0027932D01*
X0030303Y0027803D01*
X0030432Y0027672D01*
X0030557Y0027537D01*
X0030679Y0027399D01*
X0030798Y0027258D01*
X0030913Y0027114D01*
X0031024Y0026968D01*
X0031132Y0026819D01*
X0031236Y0026667D01*
X0031336Y0026512D01*
X0031433Y0026356D01*
X0031526Y0026197D01*
X0031614Y0026035D01*
X0031699Y0025872D01*
X0031780Y0025707D01*
X0031857Y0025539D01*
X0031929Y0025370D01*
X0031997Y0025199D01*
X0032062Y0025027D01*
X0032121Y0024853D01*
X0032177Y0024677D01*
X0032228Y0024500D01*
X0032275Y0024322D01*
X0032318Y0024143D01*
X0032356Y0023963D01*
X0032390Y0023782D01*
X0032419Y0023600D01*
X0032444Y0023418D01*
X0032464Y0023235D01*
X0032480Y0023052D01*
X0032491Y0022868D01*
X0032498Y0022684D01*
X0032500Y0022500D01*
X0032498Y0022316D01*
X0032491Y0022132D01*
X0032480Y0021948D01*
X0032464Y0021765D01*
X0032444Y0021582D01*
X0032419Y0021400D01*
X0032390Y0021218D01*
X0032356Y0021037D01*
X0032318Y0020857D01*
X0032275Y0020678D01*
X0032228Y0020500D01*
X0032177Y0020323D01*
X0032121Y0020147D01*
X0032062Y0019973D01*
X0031997Y0019801D01*
X0031929Y0019630D01*
X0031857Y0019461D01*
X0031780Y0019293D01*
X0031699Y0019128D01*
X0031614Y0018965D01*
X0031526Y0018803D01*
X0031433Y0018644D01*
X0031336Y0018488D01*
X0031236Y0018333D01*
X0031132Y0018181D01*
X0031024Y0018032D01*
X0030913Y0017886D01*
X0030798Y0017742D01*
X0030679Y0017601D01*
X0030557Y0017463D01*
X0030432Y0017328D01*
X0030303Y0017197D01*
X0030172Y0017068D01*
X0030037Y0016943D01*
X0029899Y0016821D01*
X0029758Y0016702D01*
X0029614Y0016587D01*
X0029468Y0016476D01*
X0029319Y0016368D01*
X0029167Y0016264D01*
X0029012Y0016164D01*
X0028856Y0016067D01*
X0028697Y0015974D01*
X0028535Y0015886D01*
X0028372Y0015801D01*
X0028207Y0015720D01*
X0028039Y0015643D01*
X0027870Y0015571D01*
X0027699Y0015503D01*
X0027527Y0015438D01*
X0027353Y0015379D01*
X0027177Y0015323D01*
X0027000Y0015272D01*
X0026822Y0015225D01*
X0026643Y0015182D01*
X0026463Y0015144D01*
X0026282Y0015110D01*
X0026100Y0015081D01*
X0025918Y0015056D01*
X0025735Y0015036D01*
X0025552Y0015020D01*
X0025368Y0015009D01*
X0025184Y0015002D01*
X0025000Y0015000D01*
X0024816Y0015002D01*
X0024632Y0015009D01*
X0024448Y0015020D01*
X0024265Y0015036D01*
X0024082Y0015056D01*
X0023900Y0015081D01*
X0023718Y0015110D01*
X0023537Y0015144D01*
X0023357Y0015182D01*
X0023178Y0015225D01*
X0023000Y0015272D01*
X0022823Y0015323D01*
X0022647Y0015379D01*
X0022473Y0015438D01*
X0022301Y0015503D01*
X0022130Y0015571D01*
X0021961Y0015643D01*
X0021793Y0015720D01*
X0021628Y0015801D01*
X0021465Y0015886D01*
X0021303Y0015974D01*
X0021144Y0016067D01*
X0020988Y0016164D01*
X0020833Y0016264D01*
X0020681Y0016368D01*
X0020532Y0016476D01*
X0020386Y0016587D01*
X0020242Y0016702D01*
X0020101Y0016821D01*
X0019963Y0016943D01*
X0019828Y0017068D01*
X0019697Y0017197D01*
X0019568Y0017328D01*
X0019443Y0017463D01*
X0019321Y0017601D01*
X0019202Y0017742D01*
X0019087Y0017886D01*
X0018976Y0018032D01*
X0018868Y0018181D01*
X0018764Y0018333D01*
X0018664Y0018488D01*
X0018567Y0018644D01*
X0018474Y0018803D01*
X0018386Y0018965D01*
X0018301Y0019128D01*
X0018220Y0019293D01*
X0018143Y0019461D01*
X0018071Y0019630D01*
X0018003Y0019801D01*
X0017938Y0019973D01*
X0017879Y0020147D01*
X0017823Y0020323D01*
X0017772Y0020500D01*
X0017725Y0020678D01*
X0017682Y0020857D01*
X0017644Y0021037D01*
X0017610Y0021218D01*
X0017581Y0021400D01*
X0017556Y0021582D01*
X0017536Y0021765D01*
X0017520Y0021948D01*
X0017509Y0022132D01*
X0017502Y0022316D01*
X0017500Y0022500D01*
X0227000Y0177500D02*
X0227002Y0177661D01*
X0227008Y0177821D01*
X0227018Y0177982D01*
X0227032Y0178142D01*
X0227050Y0178302D01*
X0227071Y0178461D01*
X0227097Y0178620D01*
X0227127Y0178778D01*
X0227160Y0178935D01*
X0227198Y0179092D01*
X0227239Y0179247D01*
X0227284Y0179401D01*
X0227333Y0179554D01*
X0227386Y0179706D01*
X0227442Y0179857D01*
X0227503Y0180006D01*
X0227566Y0180154D01*
X0227634Y0180300D01*
X0227705Y0180444D01*
X0227779Y0180586D01*
X0227857Y0180727D01*
X0227939Y0180865D01*
X0228024Y0181002D01*
X0228112Y0181136D01*
X0228204Y0181268D01*
X0228299Y0181398D01*
X0228397Y0181526D01*
X0228498Y0181651D01*
X0228602Y0181773D01*
X0228709Y0181893D01*
X0228819Y0182010D01*
X0228932Y0182125D01*
X0229048Y0182236D01*
X0229167Y0182345D01*
X0229288Y0182450D01*
X0229412Y0182553D01*
X0229538Y0182653D01*
X0229666Y0182749D01*
X0229797Y0182842D01*
X0229931Y0182932D01*
X0230066Y0183019D01*
X0230204Y0183102D01*
X0230343Y0183182D01*
X0230485Y0183258D01*
X0230628Y0183331D01*
X0230773Y0183400D01*
X0230920Y0183466D01*
X0231068Y0183528D01*
X0231218Y0183586D01*
X0231369Y0183641D01*
X0231522Y0183692D01*
X0231676Y0183739D01*
X0231831Y0183782D01*
X0231987Y0183821D01*
X0232143Y0183857D01*
X0232301Y0183888D01*
X0232459Y0183916D01*
X0232618Y0183940D01*
X0232778Y0183960D01*
X0232938Y0183976D01*
X0233098Y0183988D01*
X0233259Y0183996D01*
X0233420Y0184000D01*
X0233580Y0184000D01*
X0233741Y0183996D01*
X0233902Y0183988D01*
X0234062Y0183976D01*
X0234222Y0183960D01*
X0234382Y0183940D01*
X0234541Y0183916D01*
X0234699Y0183888D01*
X0234857Y0183857D01*
X0235013Y0183821D01*
X0235169Y0183782D01*
X0235324Y0183739D01*
X0235478Y0183692D01*
X0235631Y0183641D01*
X0235782Y0183586D01*
X0235932Y0183528D01*
X0236080Y0183466D01*
X0236227Y0183400D01*
X0236372Y0183331D01*
X0236515Y0183258D01*
X0236657Y0183182D01*
X0236796Y0183102D01*
X0236934Y0183019D01*
X0237069Y0182932D01*
X0237203Y0182842D01*
X0237334Y0182749D01*
X0237462Y0182653D01*
X0237588Y0182553D01*
X0237712Y0182450D01*
X0237833Y0182345D01*
X0237952Y0182236D01*
X0238068Y0182125D01*
X0238181Y0182010D01*
X0238291Y0181893D01*
X0238398Y0181773D01*
X0238502Y0181651D01*
X0238603Y0181526D01*
X0238701Y0181398D01*
X0238796Y0181268D01*
X0238888Y0181136D01*
X0238976Y0181002D01*
X0239061Y0180865D01*
X0239143Y0180727D01*
X0239221Y0180586D01*
X0239295Y0180444D01*
X0239366Y0180300D01*
X0239434Y0180154D01*
X0239497Y0180006D01*
X0239558Y0179857D01*
X0239614Y0179706D01*
X0239667Y0179554D01*
X0239716Y0179401D01*
X0239761Y0179247D01*
X0239802Y0179092D01*
X0239840Y0178935D01*
X0239873Y0178778D01*
X0239903Y0178620D01*
X0239929Y0178461D01*
X0239950Y0178302D01*
X0239968Y0178142D01*
X0239982Y0177982D01*
X0239992Y0177821D01*
X0239998Y0177661D01*
X0240000Y0177500D01*
X0239998Y0177339D01*
X0239992Y0177179D01*
X0239982Y0177018D01*
X0239968Y0176858D01*
X0239950Y0176698D01*
X0239929Y0176539D01*
X0239903Y0176380D01*
X0239873Y0176222D01*
X0239840Y0176065D01*
X0239802Y0175908D01*
X0239761Y0175753D01*
X0239716Y0175599D01*
X0239667Y0175446D01*
X0239614Y0175294D01*
X0239558Y0175143D01*
X0239497Y0174994D01*
X0239434Y0174846D01*
X0239366Y0174700D01*
X0239295Y0174556D01*
X0239221Y0174414D01*
X0239143Y0174273D01*
X0239061Y0174135D01*
X0238976Y0173998D01*
X0238888Y0173864D01*
X0238796Y0173732D01*
X0238701Y0173602D01*
X0238603Y0173474D01*
X0238502Y0173349D01*
X0238398Y0173227D01*
X0238291Y0173107D01*
X0238181Y0172990D01*
X0238068Y0172875D01*
X0237952Y0172764D01*
X0237833Y0172655D01*
X0237712Y0172550D01*
X0237588Y0172447D01*
X0237462Y0172347D01*
X0237334Y0172251D01*
X0237203Y0172158D01*
X0237069Y0172068D01*
X0236934Y0171981D01*
X0236796Y0171898D01*
X0236657Y0171818D01*
X0236515Y0171742D01*
X0236372Y0171669D01*
X0236227Y0171600D01*
X0236080Y0171534D01*
X0235932Y0171472D01*
X0235782Y0171414D01*
X0235631Y0171359D01*
X0235478Y0171308D01*
X0235324Y0171261D01*
X0235169Y0171218D01*
X0235013Y0171179D01*
X0234857Y0171143D01*
X0234699Y0171112D01*
X0234541Y0171084D01*
X0234382Y0171060D01*
X0234222Y0171040D01*
X0234062Y0171024D01*
X0233902Y0171012D01*
X0233741Y0171004D01*
X0233580Y0171000D01*
X0233420Y0171000D01*
X0233259Y0171004D01*
X0233098Y0171012D01*
X0232938Y0171024D01*
X0232778Y0171040D01*
X0232618Y0171060D01*
X0232459Y0171084D01*
X0232301Y0171112D01*
X0232143Y0171143D01*
X0231987Y0171179D01*
X0231831Y0171218D01*
X0231676Y0171261D01*
X0231522Y0171308D01*
X0231369Y0171359D01*
X0231218Y0171414D01*
X0231068Y0171472D01*
X0230920Y0171534D01*
X0230773Y0171600D01*
X0230628Y0171669D01*
X0230485Y0171742D01*
X0230343Y0171818D01*
X0230204Y0171898D01*
X0230066Y0171981D01*
X0229931Y0172068D01*
X0229797Y0172158D01*
X0229666Y0172251D01*
X0229538Y0172347D01*
X0229412Y0172447D01*
X0229288Y0172550D01*
X0229167Y0172655D01*
X0229048Y0172764D01*
X0228932Y0172875D01*
X0228819Y0172990D01*
X0228709Y0173107D01*
X0228602Y0173227D01*
X0228498Y0173349D01*
X0228397Y0173474D01*
X0228299Y0173602D01*
X0228204Y0173732D01*
X0228112Y0173864D01*
X0228024Y0173998D01*
X0227939Y0174135D01*
X0227857Y0174273D01*
X0227779Y0174414D01*
X0227705Y0174556D01*
X0227634Y0174700D01*
X0227566Y0174846D01*
X0227503Y0174994D01*
X0227442Y0175143D01*
X0227386Y0175294D01*
X0227333Y0175446D01*
X0227284Y0175599D01*
X0227239Y0175753D01*
X0227198Y0175908D01*
X0227160Y0176065D01*
X0227127Y0176222D01*
X0227097Y0176380D01*
X0227071Y0176539D01*
X0227050Y0176698D01*
X0227032Y0176858D01*
X0227018Y0177018D01*
X0227008Y0177179D01*
X0227002Y0177339D01*
X0227000Y0177500D01*
X0282500Y0182500D02*
X0282502Y0182684D01*
X0282509Y0182868D01*
X0282520Y0183052D01*
X0282536Y0183235D01*
X0282556Y0183418D01*
X0282581Y0183600D01*
X0282610Y0183782D01*
X0282644Y0183963D01*
X0282682Y0184143D01*
X0282725Y0184322D01*
X0282772Y0184500D01*
X0282823Y0184677D01*
X0282879Y0184853D01*
X0282938Y0185027D01*
X0283003Y0185199D01*
X0283071Y0185370D01*
X0283143Y0185539D01*
X0283220Y0185707D01*
X0283301Y0185872D01*
X0283386Y0186035D01*
X0283474Y0186197D01*
X0283567Y0186356D01*
X0283664Y0186512D01*
X0283764Y0186667D01*
X0283868Y0186819D01*
X0283976Y0186968D01*
X0284087Y0187114D01*
X0284202Y0187258D01*
X0284321Y0187399D01*
X0284443Y0187537D01*
X0284568Y0187672D01*
X0284697Y0187803D01*
X0284828Y0187932D01*
X0284963Y0188057D01*
X0285101Y0188179D01*
X0285242Y0188298D01*
X0285386Y0188413D01*
X0285532Y0188524D01*
X0285681Y0188632D01*
X0285833Y0188736D01*
X0285988Y0188836D01*
X0286144Y0188933D01*
X0286303Y0189026D01*
X0286465Y0189114D01*
X0286628Y0189199D01*
X0286793Y0189280D01*
X0286961Y0189357D01*
X0287130Y0189429D01*
X0287301Y0189497D01*
X0287473Y0189562D01*
X0287647Y0189621D01*
X0287823Y0189677D01*
X0288000Y0189728D01*
X0288178Y0189775D01*
X0288357Y0189818D01*
X0288537Y0189856D01*
X0288718Y0189890D01*
X0288900Y0189919D01*
X0289082Y0189944D01*
X0289265Y0189964D01*
X0289448Y0189980D01*
X0289632Y0189991D01*
X0289816Y0189998D01*
X0290000Y0190000D01*
X0290184Y0189998D01*
X0290368Y0189991D01*
X0290552Y0189980D01*
X0290735Y0189964D01*
X0290918Y0189944D01*
X0291100Y0189919D01*
X0291282Y0189890D01*
X0291463Y0189856D01*
X0291643Y0189818D01*
X0291822Y0189775D01*
X0292000Y0189728D01*
X0292177Y0189677D01*
X0292353Y0189621D01*
X0292527Y0189562D01*
X0292699Y0189497D01*
X0292870Y0189429D01*
X0293039Y0189357D01*
X0293207Y0189280D01*
X0293372Y0189199D01*
X0293535Y0189114D01*
X0293697Y0189026D01*
X0293856Y0188933D01*
X0294012Y0188836D01*
X0294167Y0188736D01*
X0294319Y0188632D01*
X0294468Y0188524D01*
X0294614Y0188413D01*
X0294758Y0188298D01*
X0294899Y0188179D01*
X0295037Y0188057D01*
X0295172Y0187932D01*
X0295303Y0187803D01*
X0295432Y0187672D01*
X0295557Y0187537D01*
X0295679Y0187399D01*
X0295798Y0187258D01*
X0295913Y0187114D01*
X0296024Y0186968D01*
X0296132Y0186819D01*
X0296236Y0186667D01*
X0296336Y0186512D01*
X0296433Y0186356D01*
X0296526Y0186197D01*
X0296614Y0186035D01*
X0296699Y0185872D01*
X0296780Y0185707D01*
X0296857Y0185539D01*
X0296929Y0185370D01*
X0296997Y0185199D01*
X0297062Y0185027D01*
X0297121Y0184853D01*
X0297177Y0184677D01*
X0297228Y0184500D01*
X0297275Y0184322D01*
X0297318Y0184143D01*
X0297356Y0183963D01*
X0297390Y0183782D01*
X0297419Y0183600D01*
X0297444Y0183418D01*
X0297464Y0183235D01*
X0297480Y0183052D01*
X0297491Y0182868D01*
X0297498Y0182684D01*
X0297500Y0182500D01*
X0297498Y0182316D01*
X0297491Y0182132D01*
X0297480Y0181948D01*
X0297464Y0181765D01*
X0297444Y0181582D01*
X0297419Y0181400D01*
X0297390Y0181218D01*
X0297356Y0181037D01*
X0297318Y0180857D01*
X0297275Y0180678D01*
X0297228Y0180500D01*
X0297177Y0180323D01*
X0297121Y0180147D01*
X0297062Y0179973D01*
X0296997Y0179801D01*
X0296929Y0179630D01*
X0296857Y0179461D01*
X0296780Y0179293D01*
X0296699Y0179128D01*
X0296614Y0178965D01*
X0296526Y0178803D01*
X0296433Y0178644D01*
X0296336Y0178488D01*
X0296236Y0178333D01*
X0296132Y0178181D01*
X0296024Y0178032D01*
X0295913Y0177886D01*
X0295798Y0177742D01*
X0295679Y0177601D01*
X0295557Y0177463D01*
X0295432Y0177328D01*
X0295303Y0177197D01*
X0295172Y0177068D01*
X0295037Y0176943D01*
X0294899Y0176821D01*
X0294758Y0176702D01*
X0294614Y0176587D01*
X0294468Y0176476D01*
X0294319Y0176368D01*
X0294167Y0176264D01*
X0294012Y0176164D01*
X0293856Y0176067D01*
X0293697Y0175974D01*
X0293535Y0175886D01*
X0293372Y0175801D01*
X0293207Y0175720D01*
X0293039Y0175643D01*
X0292870Y0175571D01*
X0292699Y0175503D01*
X0292527Y0175438D01*
X0292353Y0175379D01*
X0292177Y0175323D01*
X0292000Y0175272D01*
X0291822Y0175225D01*
X0291643Y0175182D01*
X0291463Y0175144D01*
X0291282Y0175110D01*
X0291100Y0175081D01*
X0290918Y0175056D01*
X0290735Y0175036D01*
X0290552Y0175020D01*
X0290368Y0175009D01*
X0290184Y0175002D01*
X0290000Y0175000D01*
X0289816Y0175002D01*
X0289632Y0175009D01*
X0289448Y0175020D01*
X0289265Y0175036D01*
X0289082Y0175056D01*
X0288900Y0175081D01*
X0288718Y0175110D01*
X0288537Y0175144D01*
X0288357Y0175182D01*
X0288178Y0175225D01*
X0288000Y0175272D01*
X0287823Y0175323D01*
X0287647Y0175379D01*
X0287473Y0175438D01*
X0287301Y0175503D01*
X0287130Y0175571D01*
X0286961Y0175643D01*
X0286793Y0175720D01*
X0286628Y0175801D01*
X0286465Y0175886D01*
X0286303Y0175974D01*
X0286144Y0176067D01*
X0285988Y0176164D01*
X0285833Y0176264D01*
X0285681Y0176368D01*
X0285532Y0176476D01*
X0285386Y0176587D01*
X0285242Y0176702D01*
X0285101Y0176821D01*
X0284963Y0176943D01*
X0284828Y0177068D01*
X0284697Y0177197D01*
X0284568Y0177328D01*
X0284443Y0177463D01*
X0284321Y0177601D01*
X0284202Y0177742D01*
X0284087Y0177886D01*
X0283976Y0178032D01*
X0283868Y0178181D01*
X0283764Y0178333D01*
X0283664Y0178488D01*
X0283567Y0178644D01*
X0283474Y0178803D01*
X0283386Y0178965D01*
X0283301Y0179128D01*
X0283220Y0179293D01*
X0283143Y0179461D01*
X0283071Y0179630D01*
X0283003Y0179801D01*
X0282938Y0179973D01*
X0282879Y0180147D01*
X0282823Y0180323D01*
X0282772Y0180500D01*
X0282725Y0180678D01*
X0282682Y0180857D01*
X0282644Y0181037D01*
X0282610Y0181218D01*
X0282581Y0181400D01*
X0282556Y0181582D01*
X0282536Y0181765D01*
X0282520Y0181948D01*
X0282509Y0182132D01*
X0282502Y0182316D01*
X0282500Y0182500D01*
X0282500Y0022000D02*
X0282502Y0022184D01*
X0282509Y0022368D01*
X0282520Y0022552D01*
X0282536Y0022735D01*
X0282556Y0022918D01*
X0282581Y0023100D01*
X0282610Y0023282D01*
X0282644Y0023463D01*
X0282682Y0023643D01*
X0282725Y0023822D01*
X0282772Y0024000D01*
X0282823Y0024177D01*
X0282879Y0024353D01*
X0282938Y0024527D01*
X0283003Y0024699D01*
X0283071Y0024870D01*
X0283143Y0025039D01*
X0283220Y0025207D01*
X0283301Y0025372D01*
X0283386Y0025535D01*
X0283474Y0025697D01*
X0283567Y0025856D01*
X0283664Y0026012D01*
X0283764Y0026167D01*
X0283868Y0026319D01*
X0283976Y0026468D01*
X0284087Y0026614D01*
X0284202Y0026758D01*
X0284321Y0026899D01*
X0284443Y0027037D01*
X0284568Y0027172D01*
X0284697Y0027303D01*
X0284828Y0027432D01*
X0284963Y0027557D01*
X0285101Y0027679D01*
X0285242Y0027798D01*
X0285386Y0027913D01*
X0285532Y0028024D01*
X0285681Y0028132D01*
X0285833Y0028236D01*
X0285988Y0028336D01*
X0286144Y0028433D01*
X0286303Y0028526D01*
X0286465Y0028614D01*
X0286628Y0028699D01*
X0286793Y0028780D01*
X0286961Y0028857D01*
X0287130Y0028929D01*
X0287301Y0028997D01*
X0287473Y0029062D01*
X0287647Y0029121D01*
X0287823Y0029177D01*
X0288000Y0029228D01*
X0288178Y0029275D01*
X0288357Y0029318D01*
X0288537Y0029356D01*
X0288718Y0029390D01*
X0288900Y0029419D01*
X0289082Y0029444D01*
X0289265Y0029464D01*
X0289448Y0029480D01*
X0289632Y0029491D01*
X0289816Y0029498D01*
X0290000Y0029500D01*
X0290184Y0029498D01*
X0290368Y0029491D01*
X0290552Y0029480D01*
X0290735Y0029464D01*
X0290918Y0029444D01*
X0291100Y0029419D01*
X0291282Y0029390D01*
X0291463Y0029356D01*
X0291643Y0029318D01*
X0291822Y0029275D01*
X0292000Y0029228D01*
X0292177Y0029177D01*
X0292353Y0029121D01*
X0292527Y0029062D01*
X0292699Y0028997D01*
X0292870Y0028929D01*
X0293039Y0028857D01*
X0293207Y0028780D01*
X0293372Y0028699D01*
X0293535Y0028614D01*
X0293697Y0028526D01*
X0293856Y0028433D01*
X0294012Y0028336D01*
X0294167Y0028236D01*
X0294319Y0028132D01*
X0294468Y0028024D01*
X0294614Y0027913D01*
X0294758Y0027798D01*
X0294899Y0027679D01*
X0295037Y0027557D01*
X0295172Y0027432D01*
X0295303Y0027303D01*
X0295432Y0027172D01*
X0295557Y0027037D01*
X0295679Y0026899D01*
X0295798Y0026758D01*
X0295913Y0026614D01*
X0296024Y0026468D01*
X0296132Y0026319D01*
X0296236Y0026167D01*
X0296336Y0026012D01*
X0296433Y0025856D01*
X0296526Y0025697D01*
X0296614Y0025535D01*
X0296699Y0025372D01*
X0296780Y0025207D01*
X0296857Y0025039D01*
X0296929Y0024870D01*
X0296997Y0024699D01*
X0297062Y0024527D01*
X0297121Y0024353D01*
X0297177Y0024177D01*
X0297228Y0024000D01*
X0297275Y0023822D01*
X0297318Y0023643D01*
X0297356Y0023463D01*
X0297390Y0023282D01*
X0297419Y0023100D01*
X0297444Y0022918D01*
X0297464Y0022735D01*
X0297480Y0022552D01*
X0297491Y0022368D01*
X0297498Y0022184D01*
X0297500Y0022000D01*
X0297498Y0021816D01*
X0297491Y0021632D01*
X0297480Y0021448D01*
X0297464Y0021265D01*
X0297444Y0021082D01*
X0297419Y0020900D01*
X0297390Y0020718D01*
X0297356Y0020537D01*
X0297318Y0020357D01*
X0297275Y0020178D01*
X0297228Y0020000D01*
X0297177Y0019823D01*
X0297121Y0019647D01*
X0297062Y0019473D01*
X0296997Y0019301D01*
X0296929Y0019130D01*
X0296857Y0018961D01*
X0296780Y0018793D01*
X0296699Y0018628D01*
X0296614Y0018465D01*
X0296526Y0018303D01*
X0296433Y0018144D01*
X0296336Y0017988D01*
X0296236Y0017833D01*
X0296132Y0017681D01*
X0296024Y0017532D01*
X0295913Y0017386D01*
X0295798Y0017242D01*
X0295679Y0017101D01*
X0295557Y0016963D01*
X0295432Y0016828D01*
X0295303Y0016697D01*
X0295172Y0016568D01*
X0295037Y0016443D01*
X0294899Y0016321D01*
X0294758Y0016202D01*
X0294614Y0016087D01*
X0294468Y0015976D01*
X0294319Y0015868D01*
X0294167Y0015764D01*
X0294012Y0015664D01*
X0293856Y0015567D01*
X0293697Y0015474D01*
X0293535Y0015386D01*
X0293372Y0015301D01*
X0293207Y0015220D01*
X0293039Y0015143D01*
X0292870Y0015071D01*
X0292699Y0015003D01*
X0292527Y0014938D01*
X0292353Y0014879D01*
X0292177Y0014823D01*
X0292000Y0014772D01*
X0291822Y0014725D01*
X0291643Y0014682D01*
X0291463Y0014644D01*
X0291282Y0014610D01*
X0291100Y0014581D01*
X0290918Y0014556D01*
X0290735Y0014536D01*
X0290552Y0014520D01*
X0290368Y0014509D01*
X0290184Y0014502D01*
X0290000Y0014500D01*
X0289816Y0014502D01*
X0289632Y0014509D01*
X0289448Y0014520D01*
X0289265Y0014536D01*
X0289082Y0014556D01*
X0288900Y0014581D01*
X0288718Y0014610D01*
X0288537Y0014644D01*
X0288357Y0014682D01*
X0288178Y0014725D01*
X0288000Y0014772D01*
X0287823Y0014823D01*
X0287647Y0014879D01*
X0287473Y0014938D01*
X0287301Y0015003D01*
X0287130Y0015071D01*
X0286961Y0015143D01*
X0286793Y0015220D01*
X0286628Y0015301D01*
X0286465Y0015386D01*
X0286303Y0015474D01*
X0286144Y0015567D01*
X0285988Y0015664D01*
X0285833Y0015764D01*
X0285681Y0015868D01*
X0285532Y0015976D01*
X0285386Y0016087D01*
X0285242Y0016202D01*
X0285101Y0016321D01*
X0284963Y0016443D01*
X0284828Y0016568D01*
X0284697Y0016697D01*
X0284568Y0016828D01*
X0284443Y0016963D01*
X0284321Y0017101D01*
X0284202Y0017242D01*
X0284087Y0017386D01*
X0283976Y0017532D01*
X0283868Y0017681D01*
X0283764Y0017833D01*
X0283664Y0017988D01*
X0283567Y0018144D01*
X0283474Y0018303D01*
X0283386Y0018465D01*
X0283301Y0018628D01*
X0283220Y0018793D01*
X0283143Y0018961D01*
X0283071Y0019130D01*
X0283003Y0019301D01*
X0282938Y0019473D01*
X0282879Y0019647D01*
X0282823Y0019823D01*
X0282772Y0020000D01*
X0282725Y0020178D01*
X0282682Y0020357D01*
X0282644Y0020537D01*
X0282610Y0020718D01*
X0282581Y0020900D01*
X0282556Y0021082D01*
X0282536Y0021265D01*
X0282520Y0021448D01*
X0282509Y0021632D01*
X0282502Y0021816D01*
X0282500Y0022000D01*
X0018000Y0183000D02*
X0018002Y0183184D01*
X0018009Y0183368D01*
X0018020Y0183552D01*
X0018036Y0183735D01*
X0018056Y0183918D01*
X0018081Y0184100D01*
X0018110Y0184282D01*
X0018144Y0184463D01*
X0018182Y0184643D01*
X0018225Y0184822D01*
X0018272Y0185000D01*
X0018323Y0185177D01*
X0018379Y0185353D01*
X0018438Y0185527D01*
X0018503Y0185699D01*
X0018571Y0185870D01*
X0018643Y0186039D01*
X0018720Y0186207D01*
X0018801Y0186372D01*
X0018886Y0186535D01*
X0018974Y0186697D01*
X0019067Y0186856D01*
X0019164Y0187012D01*
X0019264Y0187167D01*
X0019368Y0187319D01*
X0019476Y0187468D01*
X0019587Y0187614D01*
X0019702Y0187758D01*
X0019821Y0187899D01*
X0019943Y0188037D01*
X0020068Y0188172D01*
X0020197Y0188303D01*
X0020328Y0188432D01*
X0020463Y0188557D01*
X0020601Y0188679D01*
X0020742Y0188798D01*
X0020886Y0188913D01*
X0021032Y0189024D01*
X0021181Y0189132D01*
X0021333Y0189236D01*
X0021488Y0189336D01*
X0021644Y0189433D01*
X0021803Y0189526D01*
X0021965Y0189614D01*
X0022128Y0189699D01*
X0022293Y0189780D01*
X0022461Y0189857D01*
X0022630Y0189929D01*
X0022801Y0189997D01*
X0022973Y0190062D01*
X0023147Y0190121D01*
X0023323Y0190177D01*
X0023500Y0190228D01*
X0023678Y0190275D01*
X0023857Y0190318D01*
X0024037Y0190356D01*
X0024218Y0190390D01*
X0024400Y0190419D01*
X0024582Y0190444D01*
X0024765Y0190464D01*
X0024948Y0190480D01*
X0025132Y0190491D01*
X0025316Y0190498D01*
X0025500Y0190500D01*
X0025684Y0190498D01*
X0025868Y0190491D01*
X0026052Y0190480D01*
X0026235Y0190464D01*
X0026418Y0190444D01*
X0026600Y0190419D01*
X0026782Y0190390D01*
X0026963Y0190356D01*
X0027143Y0190318D01*
X0027322Y0190275D01*
X0027500Y0190228D01*
X0027677Y0190177D01*
X0027853Y0190121D01*
X0028027Y0190062D01*
X0028199Y0189997D01*
X0028370Y0189929D01*
X0028539Y0189857D01*
X0028707Y0189780D01*
X0028872Y0189699D01*
X0029035Y0189614D01*
X0029197Y0189526D01*
X0029356Y0189433D01*
X0029512Y0189336D01*
X0029667Y0189236D01*
X0029819Y0189132D01*
X0029968Y0189024D01*
X0030114Y0188913D01*
X0030258Y0188798D01*
X0030399Y0188679D01*
X0030537Y0188557D01*
X0030672Y0188432D01*
X0030803Y0188303D01*
X0030932Y0188172D01*
X0031057Y0188037D01*
X0031179Y0187899D01*
X0031298Y0187758D01*
X0031413Y0187614D01*
X0031524Y0187468D01*
X0031632Y0187319D01*
X0031736Y0187167D01*
X0031836Y0187012D01*
X0031933Y0186856D01*
X0032026Y0186697D01*
X0032114Y0186535D01*
X0032199Y0186372D01*
X0032280Y0186207D01*
X0032357Y0186039D01*
X0032429Y0185870D01*
X0032497Y0185699D01*
X0032562Y0185527D01*
X0032621Y0185353D01*
X0032677Y0185177D01*
X0032728Y0185000D01*
X0032775Y0184822D01*
X0032818Y0184643D01*
X0032856Y0184463D01*
X0032890Y0184282D01*
X0032919Y0184100D01*
X0032944Y0183918D01*
X0032964Y0183735D01*
X0032980Y0183552D01*
X0032991Y0183368D01*
X0032998Y0183184D01*
X0033000Y0183000D01*
X0032998Y0182816D01*
X0032991Y0182632D01*
X0032980Y0182448D01*
X0032964Y0182265D01*
X0032944Y0182082D01*
X0032919Y0181900D01*
X0032890Y0181718D01*
X0032856Y0181537D01*
X0032818Y0181357D01*
X0032775Y0181178D01*
X0032728Y0181000D01*
X0032677Y0180823D01*
X0032621Y0180647D01*
X0032562Y0180473D01*
X0032497Y0180301D01*
X0032429Y0180130D01*
X0032357Y0179961D01*
X0032280Y0179793D01*
X0032199Y0179628D01*
X0032114Y0179465D01*
X0032026Y0179303D01*
X0031933Y0179144D01*
X0031836Y0178988D01*
X0031736Y0178833D01*
X0031632Y0178681D01*
X0031524Y0178532D01*
X0031413Y0178386D01*
X0031298Y0178242D01*
X0031179Y0178101D01*
X0031057Y0177963D01*
X0030932Y0177828D01*
X0030803Y0177697D01*
X0030672Y0177568D01*
X0030537Y0177443D01*
X0030399Y0177321D01*
X0030258Y0177202D01*
X0030114Y0177087D01*
X0029968Y0176976D01*
X0029819Y0176868D01*
X0029667Y0176764D01*
X0029512Y0176664D01*
X0029356Y0176567D01*
X0029197Y0176474D01*
X0029035Y0176386D01*
X0028872Y0176301D01*
X0028707Y0176220D01*
X0028539Y0176143D01*
X0028370Y0176071D01*
X0028199Y0176003D01*
X0028027Y0175938D01*
X0027853Y0175879D01*
X0027677Y0175823D01*
X0027500Y0175772D01*
X0027322Y0175725D01*
X0027143Y0175682D01*
X0026963Y0175644D01*
X0026782Y0175610D01*
X0026600Y0175581D01*
X0026418Y0175556D01*
X0026235Y0175536D01*
X0026052Y0175520D01*
X0025868Y0175509D01*
X0025684Y0175502D01*
X0025500Y0175500D01*
X0025316Y0175502D01*
X0025132Y0175509D01*
X0024948Y0175520D01*
X0024765Y0175536D01*
X0024582Y0175556D01*
X0024400Y0175581D01*
X0024218Y0175610D01*
X0024037Y0175644D01*
X0023857Y0175682D01*
X0023678Y0175725D01*
X0023500Y0175772D01*
X0023323Y0175823D01*
X0023147Y0175879D01*
X0022973Y0175938D01*
X0022801Y0176003D01*
X0022630Y0176071D01*
X0022461Y0176143D01*
X0022293Y0176220D01*
X0022128Y0176301D01*
X0021965Y0176386D01*
X0021803Y0176474D01*
X0021644Y0176567D01*
X0021488Y0176664D01*
X0021333Y0176764D01*
X0021181Y0176868D01*
X0021032Y0176976D01*
X0020886Y0177087D01*
X0020742Y0177202D01*
X0020601Y0177321D01*
X0020463Y0177443D01*
X0020328Y0177568D01*
X0020197Y0177697D01*
X0020068Y0177828D01*
X0019943Y0177963D01*
X0019821Y0178101D01*
X0019702Y0178242D01*
X0019587Y0178386D01*
X0019476Y0178532D01*
X0019368Y0178681D01*
X0019264Y0178833D01*
X0019164Y0178988D01*
X0019067Y0179144D01*
X0018974Y0179303D01*
X0018886Y0179465D01*
X0018801Y0179628D01*
X0018720Y0179793D01*
X0018643Y0179961D01*
X0018571Y0180130D01*
X0018503Y0180301D01*
X0018438Y0180473D01*
X0018379Y0180647D01*
X0018323Y0180823D01*
X0018272Y0181000D01*
X0018225Y0181178D01*
X0018182Y0181357D01*
X0018144Y0181537D01*
X0018110Y0181718D01*
X0018081Y0181900D01*
X0018056Y0182082D01*
X0018036Y0182265D01*
X0018020Y0182448D01*
X0018009Y0182632D01*
X0018002Y0182816D01*
X0018000Y0183000D01*
D11*
X0005500Y0202000D02*
X0005500Y0002500D01*
X0310000Y0002500D01*
X0310000Y0202000D01*
X0005500Y0202000D01*
X0289900Y0161700D02*
X0289900Y0161500D01*
D12*
X0227500Y0089500D03*
X0099500Y0059000D03*
D13*
X0089500Y0059000D03*
X0217500Y0089500D03*
D14*
X0189500Y0078000D03*
X0201500Y0111500D03*
X0189500Y0118000D03*
X0177000Y0119500D03*
X0137000Y0119500D03*
X0121500Y0122500D03*
X0109000Y0119500D03*
X0099000Y0119500D03*
X0074000Y0121500D03*
X0064000Y0110000D03*
X0074000Y0081500D03*
X0064000Y0070000D03*
X0066500Y0056500D03*
X0066500Y0046500D03*
X0201500Y0151500D03*
X0207500Y0192000D03*
X0167500Y0192000D03*
X0121500Y0162500D03*
X0109500Y0180000D03*
X0099500Y0180000D03*
X0075000Y0180000D03*
X0065000Y0180000D03*
X0259500Y0019000D03*
X0269500Y0019000D03*
D15*
X0239500Y0021469D02*
X0239500Y0015531D01*
X0229500Y0015531D02*
X0229500Y0021469D01*
X0092500Y0019531D02*
X0092500Y0025469D01*
X0082500Y0025469D02*
X0082500Y0019531D01*
X0072500Y0019531D02*
X0072500Y0025469D01*
X0062500Y0025469D02*
X0062500Y0019531D01*
X0052500Y0019531D02*
X0052500Y0025469D01*
X0042500Y0025469D02*
X0042500Y0019531D01*
D16*
X0114728Y0034453D03*
X0168075Y0034453D03*
D17*
X0154886Y0046264D03*
X0146618Y0046264D03*
X0136382Y0046264D03*
X0128114Y0046264D03*
X0128114Y0056106D03*
X0154886Y0055909D03*
D18*
X0141500Y0033000D03*
D19*
X0197791Y0035315D03*
X0217083Y0047323D03*
D20*
X0197791Y0058937D03*
D21*
X0245500Y0047000D03*
X0245500Y0087000D03*
D22*
X0243500Y0115500D02*
X0243500Y0121500D01*
X0233500Y0121500D02*
X0233500Y0115500D01*
X0223500Y0115500D02*
X0223500Y0121500D01*
D23*
X0183000Y0155000D03*
X0198500Y0176500D03*
X0168000Y0181000D03*
X0134500Y0193000D03*
X0067000Y0135000D03*
D24*
X0067000Y0155000D03*
X0134500Y0173000D03*
X0148000Y0181000D03*
X0178500Y0176500D03*
X0183000Y0135000D03*
D25*
X0267495Y0126800D03*
X0278690Y0121350D03*
X0267495Y0115900D03*
X0278690Y0110450D03*
X0267495Y0105000D03*
X0278690Y0099550D03*
X0267495Y0094100D03*
X0278690Y0088650D03*
X0267495Y0083200D03*
X0048005Y0083200D03*
X0036810Y0088650D03*
X0048005Y0094100D03*
X0036810Y0099550D03*
X0048005Y0105000D03*
X0036810Y0110450D03*
X0048005Y0115900D03*
X0036810Y0121350D03*
X0048005Y0126800D03*
D26*
X0042405Y0154000D03*
X0042405Y0056000D03*
X0273095Y0056000D03*
X0273095Y0154000D03*
D27*
X0281626Y0159914D02*
X0282414Y0159126D01*
X0283443Y0158700D01*
X0286253Y0158700D01*
X0287238Y0157716D01*
X0288965Y0157000D01*
X0290835Y0157000D01*
X0292562Y0157716D01*
X0293423Y0158576D01*
X0293499Y0124782D01*
X0292063Y0120762D01*
X0282658Y0116515D01*
X0284915Y0118772D01*
X0284915Y0123928D01*
X0281269Y0127575D01*
X0279485Y0127575D01*
X0278986Y0128074D01*
X0270586Y0136474D01*
X0269557Y0136900D01*
X0235160Y0136900D01*
X0224386Y0147674D01*
X0223357Y0148100D01*
X0205595Y0148100D01*
X0206800Y0149305D01*
X0206800Y0153695D01*
X0203695Y0156800D01*
X0199305Y0156800D01*
X0196200Y0153695D01*
X0196200Y0150900D01*
X0188022Y0150900D01*
X0188468Y0151346D01*
X0189450Y0153717D01*
X0189450Y0156283D01*
X0188468Y0158654D01*
X0186654Y0160468D01*
X0184283Y0161450D01*
X0181717Y0161450D01*
X0179346Y0160468D01*
X0177532Y0158654D01*
X0176550Y0156283D01*
X0176550Y0153717D01*
X0177532Y0151346D01*
X0177978Y0150900D01*
X0148360Y0150900D01*
X0138847Y0160412D01*
X0140062Y0160916D01*
X0141347Y0162200D01*
X0213700Y0162200D01*
X0213700Y0157443D01*
X0214126Y0156414D01*
X0214914Y0155626D01*
X0215943Y0155200D01*
X0256057Y0155200D01*
X0257086Y0155626D01*
X0257874Y0156414D01*
X0258300Y0157443D01*
X0258300Y0162600D01*
X0281200Y0162600D01*
X0281200Y0162057D01*
X0281200Y0160943D01*
X0281626Y0159914D01*
X0281370Y0160532D02*
X0258300Y0160532D01*
X0258300Y0161930D02*
X0281200Y0161930D01*
X0284000Y0161500D02*
X0289900Y0161500D01*
X0284000Y0161500D02*
X0284000Y0165400D01*
X0255500Y0165400D01*
X0255500Y0158000D01*
X0216500Y0158000D01*
X0216500Y0165000D01*
X0137400Y0165000D01*
X0137400Y0164900D01*
X0141077Y0161930D02*
X0213700Y0161930D01*
X0213700Y0160532D02*
X0186500Y0160532D01*
X0187988Y0159133D02*
X0213700Y0159133D01*
X0213700Y0157735D02*
X0188849Y0157735D01*
X0189428Y0156336D02*
X0198841Y0156336D01*
X0197442Y0154938D02*
X0189450Y0154938D01*
X0189376Y0153539D02*
X0196200Y0153539D01*
X0196200Y0152141D02*
X0188797Y0152141D01*
X0197600Y0148100D02*
X0200400Y0150900D01*
X0201500Y0151500D01*
X0197600Y0148100D02*
X0147200Y0148100D01*
X0126200Y0169100D01*
X0112200Y0169100D01*
X0102400Y0178900D01*
X0099600Y0178900D01*
X0099500Y0180000D01*
X0103895Y0183100D02*
X0132086Y0183100D01*
X0135948Y0179450D01*
X0131828Y0179450D01*
X0128050Y0175672D01*
X0128050Y0171210D01*
X0127786Y0171474D01*
X0126757Y0171900D01*
X0113360Y0171900D01*
X0104800Y0180460D01*
X0104800Y0182195D01*
X0103895Y0183100D01*
X0104087Y0182908D02*
X0132289Y0182908D01*
X0133769Y0181509D02*
X0104800Y0181509D01*
X0105149Y0180111D02*
X0135249Y0180111D01*
X0131091Y0178712D02*
X0106547Y0178712D01*
X0107946Y0177314D02*
X0129692Y0177314D01*
X0128294Y0175915D02*
X0109344Y0175915D01*
X0110743Y0174517D02*
X0128050Y0174517D01*
X0128050Y0173118D02*
X0112141Y0173118D01*
X0108417Y0168923D02*
X0079937Y0168923D01*
X0078538Y0170321D02*
X0107019Y0170321D01*
X0105620Y0171720D02*
X0077140Y0171720D01*
X0075741Y0173118D02*
X0104222Y0173118D01*
X0102823Y0174517D02*
X0074343Y0174517D01*
X0072944Y0175915D02*
X0096089Y0175915D01*
X0097305Y0174700D02*
X0094200Y0177805D01*
X0094200Y0182195D01*
X0095105Y0183100D01*
X0069395Y0183100D01*
X0070300Y0182195D01*
X0070300Y0178560D01*
X0082560Y0166300D01*
X0117805Y0166300D01*
X0117805Y0166300D01*
X0111643Y0166300D01*
X0110614Y0166726D01*
X0109826Y0167514D01*
X0109826Y0167514D01*
X0102168Y0175172D01*
X0101695Y0174700D01*
X0097305Y0174700D01*
X0094691Y0177314D02*
X0071546Y0177314D01*
X0070300Y0178712D02*
X0094200Y0178712D01*
X0094200Y0180111D02*
X0070300Y0180111D01*
X0070300Y0181509D02*
X0094200Y0181509D01*
X0094913Y0182908D02*
X0069587Y0182908D01*
X0066000Y0178900D02*
X0065000Y0180000D01*
X0066000Y0178900D02*
X0081400Y0163500D01*
X0120600Y0163500D01*
X0121500Y0162500D01*
X0125629Y0159133D02*
X0132207Y0159133D01*
X0131662Y0157684D02*
X0129935Y0158400D01*
X0128065Y0158400D01*
X0126338Y0157684D01*
X0125153Y0156500D01*
X0075243Y0156500D01*
X0074214Y0156074D01*
X0073426Y0155286D01*
X0069040Y0150900D01*
X0059307Y0150900D01*
X0058784Y0152162D01*
X0057462Y0153484D01*
X0055735Y0154200D01*
X0053865Y0154200D01*
X0052138Y0153484D01*
X0050816Y0152162D01*
X0050100Y0150435D01*
X0050100Y0148565D01*
X0050816Y0146838D01*
X0052138Y0145516D01*
X0053353Y0145012D01*
X0035915Y0127575D01*
X0034231Y0127575D01*
X0032400Y0125744D01*
X0032400Y0156740D01*
X0058760Y0183100D01*
X0060605Y0183100D01*
X0059700Y0182195D01*
X0059700Y0177805D01*
X0062805Y0174700D01*
X0066240Y0174700D01*
X0079814Y0161126D01*
X0080843Y0160700D01*
X0116200Y0160700D01*
X0116200Y0160305D01*
X0119305Y0157200D01*
X0123695Y0157200D01*
X0126800Y0160305D01*
X0126800Y0164540D01*
X0143240Y0148100D01*
X0074160Y0148100D01*
X0076960Y0150900D01*
X0125153Y0150900D01*
X0126338Y0149716D01*
X0128065Y0149000D01*
X0129935Y0149000D01*
X0131662Y0149716D01*
X0132984Y0151038D01*
X0133700Y0152765D01*
X0133700Y0154635D01*
X0132984Y0156362D01*
X0131662Y0157684D01*
X0131541Y0157735D02*
X0133605Y0157735D01*
X0132995Y0156336D02*
X0135004Y0156336D01*
X0136402Y0154938D02*
X0133575Y0154938D01*
X0133700Y0153539D02*
X0137801Y0153539D01*
X0139199Y0152141D02*
X0133441Y0152141D01*
X0132689Y0150742D02*
X0140598Y0150742D01*
X0141997Y0149344D02*
X0130765Y0149344D01*
X0127235Y0149344D02*
X0075403Y0149344D01*
X0076802Y0150742D02*
X0125311Y0150742D01*
X0129000Y0153700D02*
X0075800Y0153700D01*
X0070200Y0148100D01*
X0056200Y0148100D01*
X0054800Y0149500D01*
X0050807Y0152141D02*
X0032400Y0152141D01*
X0032400Y0153539D02*
X0052270Y0153539D01*
X0050227Y0150742D02*
X0032400Y0150742D01*
X0032400Y0149344D02*
X0050100Y0149344D01*
X0050357Y0147945D02*
X0032400Y0147945D01*
X0032400Y0146547D02*
X0051107Y0146547D01*
X0053025Y0145148D02*
X0032400Y0145148D01*
X0032400Y0143750D02*
X0052090Y0143750D01*
X0050691Y0142351D02*
X0032400Y0142351D01*
X0032400Y0140953D02*
X0049293Y0140953D01*
X0047894Y0139554D02*
X0032400Y0139554D01*
X0032400Y0138156D02*
X0046496Y0138156D01*
X0045097Y0136757D02*
X0032400Y0136757D01*
X0032400Y0135359D02*
X0043699Y0135359D01*
X0042300Y0133960D02*
X0032400Y0133960D01*
X0032400Y0132562D02*
X0040902Y0132562D01*
X0039503Y0131163D02*
X0032400Y0131163D01*
X0032400Y0129765D02*
X0038105Y0129765D01*
X0036706Y0128366D02*
X0032400Y0128366D01*
X0032400Y0126968D02*
X0033624Y0126968D01*
X0038000Y0125700D02*
X0057600Y0145300D01*
X0222800Y0145300D01*
X0234000Y0134100D01*
X0269000Y0134100D01*
X0277400Y0125700D01*
X0277400Y0121500D01*
X0278690Y0121350D01*
X0284915Y0121373D02*
X0292282Y0121373D01*
X0292781Y0122772D02*
X0284915Y0122772D01*
X0284673Y0124170D02*
X0293281Y0124170D01*
X0293497Y0125569D02*
X0283275Y0125569D01*
X0281876Y0126968D02*
X0293494Y0126968D01*
X0293491Y0128366D02*
X0278694Y0128366D01*
X0277295Y0129765D02*
X0293488Y0129765D01*
X0293485Y0131163D02*
X0275897Y0131163D01*
X0274498Y0132562D02*
X0293481Y0132562D01*
X0293478Y0133960D02*
X0273100Y0133960D01*
X0271701Y0135359D02*
X0293475Y0135359D01*
X0293472Y0136757D02*
X0269902Y0136757D01*
X0264800Y0128500D02*
X0266200Y0127100D01*
X0267495Y0126800D01*
X0264800Y0128500D02*
X0235400Y0128500D01*
X0221400Y0142500D01*
X0064600Y0142500D01*
X0049200Y0127100D01*
X0048005Y0126800D01*
X0038000Y0125700D02*
X0038000Y0121500D01*
X0036810Y0121350D01*
X0029600Y0118700D02*
X0029600Y0157900D01*
X0057600Y0185900D01*
X0133200Y0185900D01*
X0151400Y0168700D01*
X0223000Y0168700D01*
X0223000Y0164000D01*
X0250000Y0164000D01*
X0250000Y0169000D01*
X0267000Y0169000D01*
X0267000Y0168900D01*
X0266400Y0168900D01*
X0267000Y0168900D02*
X0296200Y0168900D01*
X0296300Y0124300D01*
X0294300Y0118700D01*
X0278800Y0111700D01*
X0278690Y0110450D01*
X0283033Y0105990D02*
X0307000Y0105990D01*
X0307000Y0107388D02*
X0284432Y0107388D01*
X0284915Y0107872D02*
X0284915Y0111389D01*
X0294969Y0115930D01*
X0294995Y0115931D01*
X0295476Y0116159D01*
X0295960Y0116377D01*
X0295978Y0116397D01*
X0296002Y0116408D01*
X0296359Y0116802D01*
X0296722Y0117189D01*
X0296732Y0117214D01*
X0296750Y0117234D01*
X0296928Y0117734D01*
X0297116Y0118231D01*
X0297115Y0118258D01*
X0298915Y0123296D01*
X0299101Y0123749D01*
X0299101Y0123818D01*
X0299124Y0123883D01*
X0299100Y0124373D01*
X0299000Y0168904D01*
X0299000Y0169457D01*
X0298999Y0169460D01*
X0298999Y0169463D01*
X0298786Y0169974D01*
X0298574Y0170486D01*
X0298571Y0170488D01*
X0298570Y0170491D01*
X0298178Y0170882D01*
X0297786Y0171274D01*
X0297783Y0171275D01*
X0297781Y0171277D01*
X0297269Y0171488D01*
X0296757Y0171700D01*
X0296754Y0171700D01*
X0296751Y0171701D01*
X0296196Y0171700D01*
X0267798Y0171700D01*
X0267557Y0171800D01*
X0249779Y0171800D01*
X0250700Y0175236D01*
X0250700Y0179764D01*
X0249528Y0184139D01*
X0247263Y0188061D01*
X0244061Y0191263D01*
X0240139Y0193528D01*
X0235764Y0194700D01*
X0231236Y0194700D01*
X0226861Y0193528D01*
X0222939Y0191263D01*
X0219737Y0188061D01*
X0217472Y0184139D01*
X0216300Y0179764D01*
X0216300Y0175236D01*
X0217301Y0171500D01*
X0202622Y0171500D01*
X0203968Y0172846D01*
X0204950Y0175217D01*
X0204950Y0177783D01*
X0203968Y0180154D01*
X0202154Y0181968D01*
X0199783Y0182950D01*
X0197217Y0182950D01*
X0194846Y0181968D01*
X0193032Y0180154D01*
X0192050Y0177783D01*
X0192050Y0175217D01*
X0193032Y0172846D01*
X0194378Y0171500D01*
X0182622Y0171500D01*
X0184950Y0173828D01*
X0184950Y0179172D01*
X0181172Y0182950D01*
X0175828Y0182950D01*
X0174450Y0181572D01*
X0174450Y0182283D01*
X0173468Y0184654D01*
X0171654Y0186468D01*
X0169283Y0187450D01*
X0166717Y0187450D01*
X0164346Y0186468D01*
X0162532Y0184654D01*
X0161550Y0182283D01*
X0161550Y0179717D01*
X0162532Y0177346D01*
X0164346Y0175532D01*
X0166717Y0174550D01*
X0169283Y0174550D01*
X0171654Y0175532D01*
X0172050Y0175928D01*
X0172050Y0173828D01*
X0174378Y0171500D01*
X0152514Y0171500D01*
X0149286Y0174550D01*
X0150672Y0174550D01*
X0154450Y0178328D01*
X0154450Y0183672D01*
X0150672Y0187450D01*
X0145328Y0187450D01*
X0141550Y0183672D01*
X0141550Y0181861D01*
X0135152Y0187908D01*
X0134786Y0188274D01*
X0134748Y0188289D01*
X0134718Y0188318D01*
X0134235Y0188502D01*
X0203503Y0188502D01*
X0202200Y0189805D02*
X0205305Y0186700D01*
X0209695Y0186700D01*
X0212800Y0189805D01*
X0212800Y0194195D01*
X0209695Y0197300D01*
X0205305Y0197300D01*
X0202200Y0194195D01*
X0202200Y0189805D01*
X0202200Y0189901D02*
X0032317Y0189901D01*
X0030995Y0191223D02*
X0033723Y0188495D01*
X0035200Y0184929D01*
X0035200Y0181071D01*
X0033723Y0177505D01*
X0030995Y0174777D01*
X0027429Y0173300D01*
X0023571Y0173300D01*
X0020005Y0174777D01*
X0017277Y0177505D01*
X0015800Y0181071D01*
X0015800Y0184929D01*
X0017277Y0188495D01*
X0020005Y0191223D01*
X0023571Y0192700D01*
X0027429Y0192700D01*
X0030995Y0191223D01*
X0030812Y0191299D02*
X0202200Y0191299D01*
X0202200Y0192698D02*
X0027435Y0192698D01*
X0023565Y0192698D02*
X0008500Y0192698D01*
X0008500Y0194096D02*
X0202200Y0194096D01*
X0203499Y0195495D02*
X0008500Y0195495D01*
X0008500Y0196893D02*
X0204898Y0196893D01*
X0210102Y0196893D02*
X0307000Y0196893D01*
X0307000Y0195495D02*
X0211501Y0195495D01*
X0212800Y0194096D02*
X0228982Y0194096D01*
X0225423Y0192698D02*
X0212800Y0192698D01*
X0212800Y0191299D02*
X0223001Y0191299D01*
X0221576Y0189901D02*
X0212800Y0189901D01*
X0211497Y0188502D02*
X0220178Y0188502D01*
X0219184Y0187103D02*
X0210099Y0187103D01*
X0204901Y0187103D02*
X0170120Y0187103D01*
X0172417Y0185705D02*
X0218376Y0185705D01*
X0217569Y0184306D02*
X0173612Y0184306D01*
X0174191Y0182908D02*
X0175786Y0182908D01*
X0181214Y0182908D02*
X0197116Y0182908D01*
X0199884Y0182908D02*
X0217142Y0182908D01*
X0216768Y0181509D02*
X0202612Y0181509D01*
X0203986Y0180111D02*
X0216393Y0180111D01*
X0216300Y0178712D02*
X0204565Y0178712D01*
X0204950Y0177314D02*
X0216300Y0177314D01*
X0216300Y0175915D02*
X0204950Y0175915D01*
X0204660Y0174517D02*
X0216493Y0174517D01*
X0216867Y0173118D02*
X0204081Y0173118D01*
X0202842Y0171720D02*
X0217242Y0171720D01*
X0194158Y0171720D02*
X0182842Y0171720D01*
X0184240Y0173118D02*
X0192919Y0173118D01*
X0192340Y0174517D02*
X0184950Y0174517D01*
X0184950Y0175915D02*
X0192050Y0175915D01*
X0192050Y0177314D02*
X0184950Y0177314D01*
X0184950Y0178712D02*
X0192435Y0178712D01*
X0193014Y0180111D02*
X0184011Y0180111D01*
X0182612Y0181509D02*
X0194388Y0181509D01*
X0174158Y0171720D02*
X0152281Y0171720D01*
X0150801Y0173118D02*
X0172760Y0173118D01*
X0172050Y0174517D02*
X0149321Y0174517D01*
X0152037Y0175915D02*
X0163963Y0175915D01*
X0162564Y0177314D02*
X0153436Y0177314D01*
X0154450Y0178712D02*
X0161966Y0178712D01*
X0161550Y0180111D02*
X0154450Y0180111D01*
X0154450Y0181509D02*
X0161550Y0181509D01*
X0161809Y0182908D02*
X0154450Y0182908D01*
X0153815Y0184306D02*
X0162388Y0184306D01*
X0163583Y0185705D02*
X0152417Y0185705D01*
X0151018Y0187103D02*
X0165880Y0187103D01*
X0172037Y0175915D02*
X0172050Y0175915D01*
X0179500Y0160532D02*
X0139136Y0160532D01*
X0140127Y0159133D02*
X0178012Y0159133D01*
X0177151Y0157735D02*
X0141525Y0157735D01*
X0142924Y0156336D02*
X0176572Y0156336D01*
X0176550Y0154938D02*
X0144322Y0154938D01*
X0145721Y0153539D02*
X0176624Y0153539D01*
X0177203Y0152141D02*
X0147119Y0152141D01*
X0130808Y0160532D02*
X0126800Y0160532D01*
X0126800Y0161930D02*
X0129410Y0161930D01*
X0128011Y0163329D02*
X0126800Y0163329D01*
X0126459Y0157735D02*
X0124230Y0157735D01*
X0118770Y0157735D02*
X0033395Y0157735D01*
X0032400Y0156336D02*
X0074848Y0156336D01*
X0073426Y0155286D02*
X0073426Y0155286D01*
X0073078Y0154938D02*
X0032400Y0154938D01*
X0034793Y0159133D02*
X0117371Y0159133D01*
X0116200Y0160532D02*
X0036192Y0160532D01*
X0037590Y0161930D02*
X0079010Y0161930D01*
X0077611Y0163329D02*
X0038989Y0163329D01*
X0040387Y0164727D02*
X0076213Y0164727D01*
X0074814Y0166126D02*
X0041786Y0166126D01*
X0043184Y0167524D02*
X0073416Y0167524D01*
X0072017Y0168923D02*
X0044583Y0168923D01*
X0045981Y0170321D02*
X0070619Y0170321D01*
X0069220Y0171720D02*
X0047380Y0171720D01*
X0048778Y0173118D02*
X0067822Y0173118D01*
X0066423Y0174517D02*
X0050177Y0174517D01*
X0051575Y0175915D02*
X0061589Y0175915D01*
X0060191Y0177314D02*
X0052974Y0177314D01*
X0054372Y0178712D02*
X0059700Y0178712D01*
X0059700Y0180111D02*
X0055771Y0180111D01*
X0057169Y0181509D02*
X0059700Y0181509D01*
X0060413Y0182908D02*
X0058568Y0182908D01*
X0054844Y0187103D02*
X0034299Y0187103D01*
X0034879Y0185705D02*
X0053445Y0185705D01*
X0052047Y0184306D02*
X0035200Y0184306D01*
X0035200Y0182908D02*
X0050648Y0182908D01*
X0049250Y0181509D02*
X0035200Y0181509D01*
X0034802Y0180111D02*
X0047851Y0180111D01*
X0046453Y0178712D02*
X0034223Y0178712D01*
X0033532Y0177314D02*
X0045054Y0177314D01*
X0043656Y0175915D02*
X0032133Y0175915D01*
X0030367Y0174517D02*
X0042257Y0174517D01*
X0040859Y0173118D02*
X0008500Y0173118D01*
X0008500Y0171720D02*
X0039460Y0171720D01*
X0038062Y0170321D02*
X0008500Y0170321D01*
X0008500Y0168923D02*
X0036663Y0168923D01*
X0035265Y0167524D02*
X0008500Y0167524D01*
X0008500Y0166126D02*
X0033866Y0166126D01*
X0032468Y0164727D02*
X0008500Y0164727D01*
X0008500Y0163329D02*
X0031069Y0163329D01*
X0029670Y0161930D02*
X0008500Y0161930D01*
X0008500Y0160532D02*
X0028272Y0160532D01*
X0027226Y0159486D02*
X0026800Y0158457D01*
X0026800Y0118143D01*
X0027226Y0117114D01*
X0028014Y0116326D01*
X0030948Y0113392D01*
X0030585Y0113028D01*
X0030585Y0107872D01*
X0033456Y0105000D01*
X0030585Y0102128D01*
X0030585Y0096972D01*
X0033456Y0094100D01*
X0030585Y0091228D01*
X0030585Y0086072D01*
X0033800Y0082856D01*
X0033800Y0072260D01*
X0026614Y0065074D01*
X0025826Y0064286D01*
X0025400Y0063257D01*
X0025400Y0032743D01*
X0025625Y0032200D01*
X0023071Y0032200D01*
X0019505Y0030723D01*
X0016777Y0027995D01*
X0015300Y0024429D01*
X0015300Y0020571D01*
X0016777Y0017005D01*
X0019505Y0014277D01*
X0023071Y0012800D01*
X0026929Y0012800D01*
X0030495Y0014277D01*
X0033223Y0017005D01*
X0033800Y0018398D01*
X0033800Y0015943D01*
X0034226Y0014914D01*
X0043640Y0005500D01*
X0008500Y0005500D01*
X0008500Y0199000D01*
X0307000Y0199000D01*
X0307000Y0005500D01*
X0271760Y0005500D01*
X0281786Y0015526D01*
X0282271Y0016011D01*
X0284505Y0013777D01*
X0288071Y0012300D01*
X0291929Y0012300D01*
X0295495Y0013777D01*
X0298223Y0016505D01*
X0299700Y0020071D01*
X0299700Y0023929D01*
X0298223Y0027495D01*
X0295495Y0030223D01*
X0291929Y0031700D01*
X0288071Y0031700D01*
X0284505Y0030223D01*
X0283000Y0028718D01*
X0283000Y0046140D01*
X0285986Y0049126D01*
X0286774Y0049914D01*
X0287200Y0050943D01*
X0287200Y0082857D01*
X0286774Y0083886D01*
X0284752Y0085908D01*
X0284915Y0086072D01*
X0284915Y0091228D01*
X0282044Y0094100D01*
X0284915Y0096972D01*
X0284915Y0102128D01*
X0282044Y0105000D01*
X0284915Y0107872D01*
X0284915Y0108787D02*
X0307000Y0108787D01*
X0307000Y0110185D02*
X0284915Y0110185D01*
X0285346Y0111584D02*
X0307000Y0111584D01*
X0307000Y0112982D02*
X0288443Y0112982D01*
X0291539Y0114381D02*
X0307000Y0114381D01*
X0307000Y0115779D02*
X0294636Y0115779D01*
X0296712Y0117178D02*
X0307000Y0117178D01*
X0307000Y0118576D02*
X0297229Y0118576D01*
X0297729Y0119975D02*
X0307000Y0119975D01*
X0307000Y0121373D02*
X0298228Y0121373D01*
X0298727Y0122772D02*
X0307000Y0122772D01*
X0307000Y0124170D02*
X0299110Y0124170D01*
X0299097Y0125569D02*
X0307000Y0125569D01*
X0307000Y0126968D02*
X0299094Y0126968D01*
X0299091Y0128366D02*
X0307000Y0128366D01*
X0307000Y0129765D02*
X0299088Y0129765D01*
X0299085Y0131163D02*
X0307000Y0131163D01*
X0307000Y0132562D02*
X0299081Y0132562D01*
X0299078Y0133960D02*
X0307000Y0133960D01*
X0307000Y0135359D02*
X0299075Y0135359D01*
X0299072Y0136757D02*
X0307000Y0136757D01*
X0307000Y0138156D02*
X0299069Y0138156D01*
X0299066Y0139554D02*
X0307000Y0139554D01*
X0307000Y0140953D02*
X0299063Y0140953D01*
X0299060Y0142351D02*
X0307000Y0142351D01*
X0307000Y0143750D02*
X0299056Y0143750D01*
X0299053Y0145148D02*
X0307000Y0145148D01*
X0307000Y0146547D02*
X0299050Y0146547D01*
X0299047Y0147945D02*
X0307000Y0147945D01*
X0307000Y0149344D02*
X0299044Y0149344D01*
X0299041Y0150742D02*
X0307000Y0150742D01*
X0307000Y0152141D02*
X0299038Y0152141D01*
X0299034Y0153539D02*
X0307000Y0153539D01*
X0307000Y0154938D02*
X0299031Y0154938D01*
X0299028Y0156336D02*
X0307000Y0156336D01*
X0307000Y0157735D02*
X0299025Y0157735D01*
X0299022Y0159133D02*
X0307000Y0159133D01*
X0307000Y0160532D02*
X0299019Y0160532D01*
X0299016Y0161930D02*
X0307000Y0161930D01*
X0307000Y0163329D02*
X0299012Y0163329D01*
X0299009Y0164727D02*
X0307000Y0164727D01*
X0307000Y0166126D02*
X0299006Y0166126D01*
X0299003Y0167524D02*
X0307000Y0167524D01*
X0307000Y0168923D02*
X0299000Y0168923D01*
X0298642Y0170321D02*
X0307000Y0170321D01*
X0307000Y0171720D02*
X0267750Y0171720D01*
X0281777Y0177005D02*
X0280300Y0180571D01*
X0280300Y0184429D01*
X0281777Y0187995D01*
X0284505Y0190723D01*
X0288071Y0192200D01*
X0291929Y0192200D01*
X0295495Y0190723D01*
X0298223Y0187995D01*
X0299700Y0184429D01*
X0299700Y0180571D01*
X0298223Y0177005D01*
X0295495Y0174277D01*
X0291929Y0172800D01*
X0288071Y0172800D01*
X0284505Y0174277D01*
X0281777Y0177005D01*
X0281649Y0177314D02*
X0250700Y0177314D01*
X0250700Y0178712D02*
X0281070Y0178712D01*
X0280490Y0180111D02*
X0250607Y0180111D01*
X0250232Y0181509D02*
X0280300Y0181509D01*
X0280300Y0182908D02*
X0249858Y0182908D01*
X0249431Y0184306D02*
X0280300Y0184306D01*
X0280828Y0185705D02*
X0248624Y0185705D01*
X0247816Y0187103D02*
X0281408Y0187103D01*
X0282284Y0188502D02*
X0246822Y0188502D01*
X0245424Y0189901D02*
X0283683Y0189901D01*
X0285895Y0191299D02*
X0243999Y0191299D01*
X0241577Y0192698D02*
X0307000Y0192698D01*
X0307000Y0194096D02*
X0238018Y0194096D01*
X0250700Y0175915D02*
X0282867Y0175915D01*
X0284265Y0174517D02*
X0250507Y0174517D01*
X0250133Y0173118D02*
X0287302Y0173118D01*
X0292698Y0173118D02*
X0307000Y0173118D01*
X0307000Y0174517D02*
X0295735Y0174517D01*
X0297133Y0175915D02*
X0307000Y0175915D01*
X0307000Y0177314D02*
X0298351Y0177314D01*
X0298930Y0178712D02*
X0307000Y0178712D01*
X0307000Y0180111D02*
X0299510Y0180111D01*
X0299700Y0181509D02*
X0307000Y0181509D01*
X0307000Y0182908D02*
X0299700Y0182908D01*
X0299700Y0184306D02*
X0307000Y0184306D01*
X0307000Y0185705D02*
X0299172Y0185705D01*
X0298592Y0187103D02*
X0307000Y0187103D01*
X0307000Y0188502D02*
X0297716Y0188502D01*
X0296317Y0189901D02*
X0307000Y0189901D01*
X0307000Y0191299D02*
X0294105Y0191299D01*
X0307000Y0198292D02*
X0008500Y0198292D01*
X0008500Y0191299D02*
X0020188Y0191299D01*
X0018683Y0189901D02*
X0008500Y0189901D01*
X0008500Y0188502D02*
X0017284Y0188502D01*
X0016701Y0187103D02*
X0008500Y0187103D01*
X0008500Y0185705D02*
X0016121Y0185705D01*
X0015800Y0184306D02*
X0008500Y0184306D01*
X0008500Y0182908D02*
X0015800Y0182908D01*
X0015800Y0181509D02*
X0008500Y0181509D01*
X0008500Y0180111D02*
X0016197Y0180111D01*
X0016777Y0178712D02*
X0008500Y0178712D01*
X0008500Y0177314D02*
X0017468Y0177314D01*
X0018867Y0175915D02*
X0008500Y0175915D01*
X0008500Y0174517D02*
X0020633Y0174517D01*
X0027226Y0159486D02*
X0055226Y0187486D01*
X0056014Y0188274D01*
X0057043Y0188700D01*
X0133160Y0188700D01*
X0133678Y0188715D01*
X0133716Y0188700D01*
X0133757Y0188700D01*
X0134235Y0188502D01*
X0136003Y0187103D02*
X0144982Y0187103D01*
X0143583Y0185705D02*
X0137483Y0185705D01*
X0138963Y0184306D02*
X0142185Y0184306D01*
X0141550Y0182908D02*
X0140443Y0182908D01*
X0128050Y0171720D02*
X0127192Y0171720D01*
X0109816Y0167524D02*
X0081335Y0167524D01*
X0071679Y0153539D02*
X0057330Y0153539D01*
X0058793Y0152141D02*
X0070281Y0152141D01*
X0084200Y0139700D02*
X0140200Y0139700D01*
X0178000Y0101900D01*
X0196200Y0101900D01*
X0218600Y0079500D01*
X0246600Y0079500D01*
X0260600Y0093500D01*
X0260600Y0110300D01*
X0266200Y0115900D01*
X0267495Y0115900D01*
X0283322Y0117178D02*
X0284127Y0117178D01*
X0284720Y0118576D02*
X0287223Y0118576D01*
X0284915Y0119975D02*
X0290320Y0119975D01*
X0282452Y0104591D02*
X0307000Y0104591D01*
X0307000Y0103193D02*
X0283851Y0103193D01*
X0284915Y0101794D02*
X0307000Y0101794D01*
X0307000Y0100396D02*
X0284915Y0100396D01*
X0284915Y0098997D02*
X0307000Y0098997D01*
X0307000Y0097599D02*
X0284915Y0097599D01*
X0284144Y0096200D02*
X0307000Y0096200D01*
X0307000Y0094802D02*
X0282745Y0094802D01*
X0282740Y0093403D02*
X0307000Y0093403D01*
X0307000Y0092005D02*
X0284139Y0092005D01*
X0284915Y0090606D02*
X0307000Y0090606D01*
X0307000Y0089208D02*
X0284915Y0089208D01*
X0284915Y0087809D02*
X0307000Y0087809D01*
X0307000Y0086411D02*
X0284915Y0086411D01*
X0285648Y0085012D02*
X0307000Y0085012D01*
X0307000Y0083614D02*
X0286887Y0083614D01*
X0287200Y0082215D02*
X0307000Y0082215D01*
X0307000Y0080817D02*
X0287200Y0080817D01*
X0287200Y0079418D02*
X0307000Y0079418D01*
X0307000Y0078020D02*
X0287200Y0078020D01*
X0287200Y0076621D02*
X0307000Y0076621D01*
X0307000Y0075223D02*
X0287200Y0075223D01*
X0287200Y0073824D02*
X0307000Y0073824D01*
X0307000Y0072426D02*
X0287200Y0072426D01*
X0287200Y0071027D02*
X0307000Y0071027D01*
X0307000Y0069629D02*
X0287200Y0069629D01*
X0287200Y0068230D02*
X0307000Y0068230D01*
X0307000Y0066832D02*
X0287200Y0066832D01*
X0287200Y0065433D02*
X0307000Y0065433D01*
X0307000Y0064034D02*
X0287200Y0064034D01*
X0287200Y0062636D02*
X0307000Y0062636D01*
X0307000Y0061237D02*
X0287200Y0061237D01*
X0287200Y0059839D02*
X0307000Y0059839D01*
X0307000Y0058440D02*
X0287200Y0058440D01*
X0287200Y0057042D02*
X0307000Y0057042D01*
X0307000Y0055643D02*
X0287200Y0055643D01*
X0287200Y0054245D02*
X0307000Y0054245D01*
X0307000Y0052846D02*
X0287200Y0052846D01*
X0287200Y0051448D02*
X0307000Y0051448D01*
X0307000Y0050049D02*
X0286830Y0050049D01*
X0285511Y0048651D02*
X0307000Y0048651D01*
X0307000Y0047252D02*
X0284112Y0047252D01*
X0283000Y0045854D02*
X0307000Y0045854D01*
X0307000Y0044455D02*
X0283000Y0044455D01*
X0283000Y0043057D02*
X0307000Y0043057D01*
X0307000Y0041658D02*
X0283000Y0041658D01*
X0283000Y0040260D02*
X0307000Y0040260D01*
X0307000Y0038861D02*
X0283000Y0038861D01*
X0283000Y0037463D02*
X0307000Y0037463D01*
X0307000Y0036064D02*
X0283000Y0036064D01*
X0283000Y0034666D02*
X0307000Y0034666D01*
X0307000Y0033267D02*
X0283000Y0033267D01*
X0283000Y0031869D02*
X0307000Y0031869D01*
X0307000Y0030470D02*
X0294898Y0030470D01*
X0296646Y0029072D02*
X0307000Y0029072D01*
X0307000Y0027673D02*
X0298045Y0027673D01*
X0298729Y0026275D02*
X0307000Y0026275D01*
X0307000Y0024876D02*
X0299308Y0024876D01*
X0299700Y0023478D02*
X0307000Y0023478D01*
X0307000Y0022079D02*
X0299700Y0022079D01*
X0299700Y0020681D02*
X0307000Y0020681D01*
X0307000Y0019282D02*
X0299373Y0019282D01*
X0298794Y0017884D02*
X0307000Y0017884D01*
X0307000Y0016485D02*
X0298203Y0016485D01*
X0296804Y0015087D02*
X0307000Y0015087D01*
X0307000Y0013688D02*
X0295281Y0013688D01*
X0284719Y0013688D02*
X0279948Y0013688D01*
X0281346Y0015087D02*
X0283196Y0015087D01*
X0280200Y0017900D02*
X0280200Y0047300D01*
X0284400Y0051500D01*
X0284400Y0082300D01*
X0278800Y0087900D01*
X0278690Y0088650D01*
X0272465Y0089208D02*
X0271406Y0089208D01*
X0272465Y0090267D02*
X0272465Y0086072D01*
X0276112Y0082425D01*
X0280315Y0082425D01*
X0281600Y0081140D01*
X0281600Y0052660D01*
X0277826Y0048886D01*
X0277400Y0047857D01*
X0277400Y0038660D01*
X0263400Y0052660D01*
X0263400Y0086740D01*
X0264726Y0088066D01*
X0264916Y0087875D01*
X0270073Y0087875D01*
X0272465Y0090267D01*
X0272465Y0087809D02*
X0264469Y0087809D01*
X0263400Y0086411D02*
X0272465Y0086411D01*
X0273525Y0085012D02*
X0263400Y0085012D01*
X0263400Y0083614D02*
X0274923Y0083614D01*
X0280525Y0082215D02*
X0263400Y0082215D01*
X0263400Y0080817D02*
X0281600Y0080817D01*
X0281600Y0079418D02*
X0263400Y0079418D01*
X0263400Y0078020D02*
X0281600Y0078020D01*
X0281600Y0076621D02*
X0263400Y0076621D01*
X0263400Y0075223D02*
X0281600Y0075223D01*
X0281600Y0073824D02*
X0263400Y0073824D01*
X0263400Y0072426D02*
X0281600Y0072426D01*
X0281600Y0071027D02*
X0263400Y0071027D01*
X0263400Y0069629D02*
X0281600Y0069629D01*
X0281600Y0068230D02*
X0263400Y0068230D01*
X0263400Y0066832D02*
X0281600Y0066832D01*
X0281600Y0065433D02*
X0263400Y0065433D01*
X0263400Y0064034D02*
X0281600Y0064034D01*
X0281600Y0062636D02*
X0263400Y0062636D01*
X0263400Y0061237D02*
X0281600Y0061237D01*
X0281600Y0059839D02*
X0263400Y0059839D01*
X0263400Y0058440D02*
X0281600Y0058440D01*
X0281600Y0057042D02*
X0263400Y0057042D01*
X0263400Y0055643D02*
X0281600Y0055643D01*
X0281600Y0054245D02*
X0263400Y0054245D01*
X0263400Y0052846D02*
X0281600Y0052846D01*
X0280388Y0051448D02*
X0264612Y0051448D01*
X0266010Y0050049D02*
X0278990Y0050049D01*
X0277729Y0048651D02*
X0267409Y0048651D01*
X0268807Y0047252D02*
X0277400Y0047252D01*
X0277400Y0045854D02*
X0270206Y0045854D01*
X0271604Y0044455D02*
X0277400Y0044455D01*
X0277400Y0043057D02*
X0273003Y0043057D01*
X0274401Y0041658D02*
X0277400Y0041658D01*
X0277400Y0040260D02*
X0275800Y0040260D01*
X0277198Y0038861D02*
X0277400Y0038861D01*
X0276000Y0036100D02*
X0260600Y0051500D01*
X0260600Y0087900D01*
X0266200Y0093500D01*
X0267495Y0094100D01*
X0257800Y0086740D02*
X0257800Y0050943D01*
X0258226Y0049914D01*
X0259014Y0049126D01*
X0273200Y0034940D01*
X0273200Y0019060D01*
X0270640Y0016500D01*
X0264495Y0016500D01*
X0264800Y0016805D01*
X0264800Y0021195D01*
X0262000Y0023995D01*
X0262000Y0043657D01*
X0261574Y0044686D01*
X0260786Y0045474D01*
X0249586Y0056674D01*
X0248557Y0057100D01*
X0240760Y0057100D01*
X0221160Y0076700D01*
X0247157Y0076700D01*
X0248186Y0077126D01*
X0257800Y0086740D01*
X0257800Y0086411D02*
X0257470Y0086411D01*
X0257800Y0085012D02*
X0256072Y0085012D01*
X0254673Y0083614D02*
X0257800Y0083614D01*
X0257800Y0082215D02*
X0253275Y0082215D01*
X0251876Y0080817D02*
X0257800Y0080817D01*
X0257800Y0079418D02*
X0250478Y0079418D01*
X0249079Y0078020D02*
X0257800Y0078020D01*
X0257800Y0076621D02*
X0221239Y0076621D01*
X0222637Y0075223D02*
X0257800Y0075223D01*
X0257800Y0073824D02*
X0224036Y0073824D01*
X0225434Y0072426D02*
X0257800Y0072426D01*
X0257800Y0071027D02*
X0226833Y0071027D01*
X0228231Y0069629D02*
X0257800Y0069629D01*
X0257800Y0068230D02*
X0229630Y0068230D01*
X0231028Y0066832D02*
X0257800Y0066832D01*
X0257800Y0065433D02*
X0232427Y0065433D01*
X0233825Y0064034D02*
X0257800Y0064034D01*
X0257800Y0062636D02*
X0235224Y0062636D01*
X0236622Y0061237D02*
X0257800Y0061237D01*
X0257800Y0059839D02*
X0238021Y0059839D01*
X0239419Y0058440D02*
X0257800Y0058440D01*
X0257800Y0057042D02*
X0248697Y0057042D01*
X0250616Y0055643D02*
X0257800Y0055643D01*
X0257800Y0054245D02*
X0252015Y0054245D01*
X0253413Y0052846D02*
X0257800Y0052846D01*
X0257800Y0051448D02*
X0254812Y0051448D01*
X0256210Y0050049D02*
X0258170Y0050049D01*
X0257609Y0048651D02*
X0259489Y0048651D01*
X0259007Y0047252D02*
X0260888Y0047252D01*
X0260406Y0045854D02*
X0262286Y0045854D01*
X0261669Y0044455D02*
X0263685Y0044455D01*
X0265083Y0043057D02*
X0262000Y0043057D01*
X0262000Y0041658D02*
X0266482Y0041658D01*
X0267880Y0040260D02*
X0262000Y0040260D01*
X0262000Y0038861D02*
X0269279Y0038861D01*
X0270677Y0037463D02*
X0262000Y0037463D01*
X0262000Y0036064D02*
X0272076Y0036064D01*
X0273200Y0034666D02*
X0262000Y0034666D01*
X0262000Y0033267D02*
X0273200Y0033267D01*
X0273200Y0031869D02*
X0262000Y0031869D01*
X0262000Y0030470D02*
X0273200Y0030470D01*
X0273200Y0029072D02*
X0262000Y0029072D01*
X0262000Y0027673D02*
X0273200Y0027673D01*
X0273200Y0026275D02*
X0262000Y0026275D01*
X0262000Y0024876D02*
X0273200Y0024876D01*
X0273200Y0023478D02*
X0262518Y0023478D01*
X0263916Y0022079D02*
X0273200Y0022079D01*
X0273200Y0020681D02*
X0264800Y0020681D01*
X0264800Y0019282D02*
X0273200Y0019282D01*
X0272024Y0017884D02*
X0264800Y0017884D01*
X0259500Y0019000D02*
X0259200Y0019300D01*
X0259200Y0043100D01*
X0248000Y0054300D01*
X0239600Y0054300D01*
X0207400Y0086500D01*
X0180800Y0086500D01*
X0168200Y0099100D01*
X0155600Y0099100D01*
X0141600Y0113100D01*
X0141600Y0114500D01*
X0137400Y0118700D01*
X0137000Y0119500D01*
X0130400Y0121500D02*
X0130400Y0117300D01*
X0151400Y0096300D01*
X0166800Y0096300D01*
X0179400Y0083700D01*
X0199000Y0083700D01*
X0253600Y0029100D01*
X0253600Y0016500D01*
X0256400Y0013700D01*
X0271800Y0013700D01*
X0276000Y0017900D01*
X0276000Y0036100D01*
X0283000Y0030470D02*
X0285102Y0030470D01*
X0283354Y0029072D02*
X0283000Y0029072D01*
X0280200Y0017900D02*
X0269000Y0006700D01*
X0046400Y0006700D01*
X0036600Y0016500D01*
X0036600Y0024900D01*
X0028200Y0033300D01*
X0028200Y0062700D01*
X0036600Y0071100D01*
X0036600Y0087900D01*
X0036810Y0088650D01*
X0032760Y0093403D02*
X0008500Y0093403D01*
X0008500Y0092005D02*
X0031361Y0092005D01*
X0030585Y0090606D02*
X0008500Y0090606D01*
X0008500Y0089208D02*
X0030585Y0089208D01*
X0030585Y0087809D02*
X0008500Y0087809D01*
X0008500Y0086411D02*
X0030585Y0086411D01*
X0031644Y0085012D02*
X0008500Y0085012D01*
X0008500Y0083614D02*
X0033043Y0083614D01*
X0033800Y0082215D02*
X0008500Y0082215D01*
X0008500Y0080817D02*
X0033800Y0080817D01*
X0033800Y0079418D02*
X0008500Y0079418D01*
X0008500Y0078020D02*
X0033800Y0078020D01*
X0033800Y0076621D02*
X0008500Y0076621D01*
X0008500Y0075223D02*
X0033800Y0075223D01*
X0033800Y0073824D02*
X0008500Y0073824D01*
X0008500Y0072426D02*
X0033800Y0072426D01*
X0032567Y0071027D02*
X0008500Y0071027D01*
X0008500Y0069629D02*
X0031169Y0069629D01*
X0029770Y0068230D02*
X0008500Y0068230D01*
X0008500Y0066832D02*
X0028372Y0066832D01*
X0026973Y0065433D02*
X0008500Y0065433D01*
X0008500Y0064034D02*
X0025722Y0064034D01*
X0025400Y0062636D02*
X0008500Y0062636D01*
X0008500Y0061237D02*
X0025400Y0061237D01*
X0025400Y0059839D02*
X0008500Y0059839D01*
X0008500Y0058440D02*
X0025400Y0058440D01*
X0025400Y0057042D02*
X0008500Y0057042D01*
X0008500Y0055643D02*
X0025400Y0055643D01*
X0025400Y0054245D02*
X0008500Y0054245D01*
X0008500Y0052846D02*
X0025400Y0052846D01*
X0025400Y0051448D02*
X0008500Y0051448D01*
X0008500Y0050049D02*
X0025400Y0050049D01*
X0025400Y0048651D02*
X0008500Y0048651D01*
X0008500Y0047252D02*
X0025400Y0047252D01*
X0025400Y0045854D02*
X0008500Y0045854D01*
X0008500Y0044455D02*
X0025400Y0044455D01*
X0025400Y0043057D02*
X0008500Y0043057D01*
X0008500Y0041658D02*
X0025400Y0041658D01*
X0025400Y0040260D02*
X0008500Y0040260D01*
X0008500Y0038861D02*
X0025400Y0038861D01*
X0025400Y0037463D02*
X0008500Y0037463D01*
X0008500Y0036064D02*
X0025400Y0036064D01*
X0025400Y0034666D02*
X0008500Y0034666D01*
X0008500Y0033267D02*
X0025400Y0033267D01*
X0022271Y0031869D02*
X0008500Y0031869D01*
X0008500Y0030470D02*
X0019252Y0030470D01*
X0017854Y0029072D02*
X0008500Y0029072D01*
X0008500Y0027673D02*
X0016644Y0027673D01*
X0016064Y0026275D02*
X0008500Y0026275D01*
X0008500Y0024876D02*
X0015485Y0024876D01*
X0015300Y0023478D02*
X0008500Y0023478D01*
X0008500Y0022079D02*
X0015300Y0022079D01*
X0015300Y0020681D02*
X0008500Y0020681D01*
X0008500Y0019282D02*
X0015834Y0019282D01*
X0016413Y0017884D02*
X0008500Y0017884D01*
X0008500Y0016485D02*
X0017297Y0016485D01*
X0018696Y0015087D02*
X0008500Y0015087D01*
X0008500Y0013688D02*
X0020927Y0013688D01*
X0029073Y0013688D02*
X0035452Y0013688D01*
X0034155Y0015087D02*
X0031304Y0015087D01*
X0032703Y0016485D02*
X0033800Y0016485D01*
X0033800Y0017884D02*
X0033587Y0017884D01*
X0036851Y0012290D02*
X0008500Y0012290D01*
X0008500Y0010891D02*
X0038249Y0010891D01*
X0039648Y0009493D02*
X0008500Y0009493D01*
X0008500Y0008094D02*
X0041046Y0008094D01*
X0042445Y0006696D02*
X0008500Y0006696D01*
X0043197Y0013863D02*
X0047560Y0009500D01*
X0197840Y0009500D01*
X0177814Y0029526D01*
X0177026Y0030314D01*
X0176600Y0031343D01*
X0176600Y0046182D01*
X0160804Y0062800D01*
X0159265Y0062800D01*
X0157538Y0063516D01*
X0156846Y0064207D01*
X0147116Y0062856D01*
X0136024Y0051764D01*
X0138660Y0051764D01*
X0141500Y0048924D01*
X0144340Y0051764D01*
X0148896Y0051764D01*
X0152118Y0048542D01*
X0152118Y0043986D01*
X0148896Y0040764D01*
X0144340Y0040764D01*
X0141500Y0043604D01*
X0138660Y0040764D01*
X0134104Y0040764D01*
X0132248Y0042619D01*
X0130400Y0040771D01*
X0130400Y0031343D01*
X0129974Y0030314D01*
X0111774Y0012114D01*
X0110986Y0011326D01*
X0109957Y0010900D01*
X0058443Y0010900D01*
X0057414Y0011326D01*
X0054511Y0014229D01*
X0053628Y0013863D01*
X0051372Y0013863D01*
X0049289Y0014726D01*
X0047694Y0016321D01*
X0047500Y0016790D01*
X0047306Y0016321D01*
X0045711Y0014726D01*
X0043628Y0013863D01*
X0043197Y0013863D01*
X0043372Y0013688D02*
X0055052Y0013688D01*
X0056451Y0012290D02*
X0044770Y0012290D01*
X0046169Y0010891D02*
X0196449Y0010891D01*
X0195051Y0012290D02*
X0111949Y0012290D01*
X0113348Y0013688D02*
X0193652Y0013688D01*
X0192254Y0015087D02*
X0114746Y0015087D01*
X0116145Y0016485D02*
X0190855Y0016485D01*
X0189457Y0017884D02*
X0117543Y0017884D01*
X0118942Y0019282D02*
X0188058Y0019282D01*
X0186660Y0020681D02*
X0120340Y0020681D01*
X0121739Y0022079D02*
X0185261Y0022079D01*
X0183863Y0023478D02*
X0123137Y0023478D01*
X0124536Y0024876D02*
X0182464Y0024876D01*
X0181066Y0026275D02*
X0125934Y0026275D01*
X0127333Y0027673D02*
X0179667Y0027673D01*
X0178268Y0029072D02*
X0128732Y0029072D01*
X0130038Y0030470D02*
X0176962Y0030470D01*
X0176600Y0031869D02*
X0130400Y0031869D01*
X0130400Y0033267D02*
X0176600Y0033267D01*
X0176600Y0034666D02*
X0130400Y0034666D01*
X0130400Y0036064D02*
X0176600Y0036064D01*
X0176600Y0037463D02*
X0130400Y0037463D01*
X0130400Y0038861D02*
X0176600Y0038861D01*
X0176600Y0040260D02*
X0130400Y0040260D01*
X0131287Y0041658D02*
X0133209Y0041658D01*
X0139555Y0041658D02*
X0143445Y0041658D01*
X0142047Y0043057D02*
X0140953Y0043057D01*
X0140374Y0050049D02*
X0142626Y0050049D01*
X0144024Y0051448D02*
X0138976Y0051448D01*
X0137106Y0052846D02*
X0150171Y0052846D01*
X0149386Y0053631D02*
X0152608Y0050409D01*
X0157164Y0050409D01*
X0160386Y0053631D01*
X0160386Y0058188D01*
X0157164Y0061409D01*
X0152608Y0061409D01*
X0149386Y0058188D01*
X0149386Y0053631D01*
X0149386Y0054245D02*
X0138505Y0054245D01*
X0139903Y0055643D02*
X0149386Y0055643D01*
X0149386Y0057042D02*
X0141302Y0057042D01*
X0142700Y0058440D02*
X0149639Y0058440D01*
X0151037Y0059839D02*
X0144099Y0059839D01*
X0145497Y0061237D02*
X0152436Y0061237D01*
X0155602Y0064034D02*
X0157019Y0064034D01*
X0157336Y0061237D02*
X0162289Y0061237D01*
X0163619Y0059839D02*
X0158734Y0059839D01*
X0160133Y0058440D02*
X0164948Y0058440D01*
X0166277Y0057042D02*
X0160386Y0057042D01*
X0160386Y0055643D02*
X0167607Y0055643D01*
X0168936Y0054245D02*
X0160386Y0054245D01*
X0159601Y0052846D02*
X0170265Y0052846D01*
X0171594Y0051448D02*
X0158202Y0051448D01*
X0154200Y0047300D02*
X0154886Y0046264D01*
X0155600Y0045900D01*
X0166800Y0034700D01*
X0168075Y0034453D01*
X0179400Y0031900D02*
X0179400Y0047300D01*
X0160200Y0067500D01*
X0145800Y0065500D01*
X0127600Y0047300D01*
X0128114Y0046264D01*
X0127600Y0045900D01*
X0127600Y0031900D01*
X0109400Y0013700D01*
X0059000Y0013700D01*
X0053400Y0019300D01*
X0053400Y0022100D01*
X0052500Y0022500D01*
X0053400Y0023500D01*
X0031000Y0045900D01*
X0031000Y0061300D01*
X0038000Y0068300D01*
X0042200Y0068300D01*
X0074400Y0100500D01*
X0089800Y0100500D01*
X0108000Y0118700D01*
X0109000Y0119500D01*
X0103700Y0119975D02*
X0068435Y0119975D01*
X0069833Y0121373D02*
X0103700Y0121373D01*
X0103700Y0121695D02*
X0103700Y0118360D01*
X0088640Y0103300D01*
X0073843Y0103300D01*
X0072814Y0102874D01*
X0041040Y0071100D01*
X0039400Y0071100D01*
X0039400Y0082437D01*
X0043035Y0086072D01*
X0043035Y0090267D01*
X0045427Y0087875D01*
X0050584Y0087875D01*
X0054230Y0091522D01*
X0054230Y0096678D01*
X0051359Y0099550D01*
X0054230Y0102422D01*
X0054230Y0107578D01*
X0051359Y0110450D01*
X0054009Y0113100D01*
X0059605Y0113100D01*
X0058700Y0112195D01*
X0058700Y0107805D01*
X0061805Y0104700D01*
X0066195Y0104700D01*
X0069300Y0107805D01*
X0069300Y0112195D01*
X0066195Y0115300D01*
X0063760Y0115300D01*
X0085360Y0136900D01*
X0125153Y0136900D01*
X0110243Y0136900D01*
X0109214Y0136474D01*
X0108426Y0135686D01*
X0104540Y0131800D01*
X0104265Y0131800D01*
X0102538Y0131084D01*
X0101216Y0129762D01*
X0100500Y0128035D01*
X0100500Y0126165D01*
X0101216Y0124438D01*
X0102538Y0123116D01*
X0104265Y0122400D01*
X0104405Y0122400D01*
X0103700Y0121695D01*
X0103367Y0122772D02*
X0071232Y0122772D01*
X0072630Y0124170D02*
X0101483Y0124170D01*
X0100747Y0125569D02*
X0074029Y0125569D01*
X0075427Y0126968D02*
X0100500Y0126968D01*
X0100637Y0128366D02*
X0076826Y0128366D01*
X0078224Y0129765D02*
X0101218Y0129765D01*
X0102727Y0131163D02*
X0079623Y0131163D01*
X0081021Y0132562D02*
X0105302Y0132562D01*
X0106700Y0133960D02*
X0082420Y0133960D01*
X0083818Y0135359D02*
X0108099Y0135359D01*
X0109898Y0136757D02*
X0085217Y0136757D01*
X0084200Y0139700D02*
X0060400Y0115900D01*
X0048005Y0115900D01*
X0052492Y0111584D02*
X0058700Y0111584D01*
X0058700Y0110185D02*
X0051623Y0110185D01*
X0053022Y0108787D02*
X0058700Y0108787D01*
X0059116Y0107388D02*
X0054230Y0107388D01*
X0054230Y0105990D02*
X0060515Y0105990D01*
X0054230Y0104591D02*
X0089932Y0104591D01*
X0091330Y0105990D02*
X0067485Y0105990D01*
X0068884Y0107388D02*
X0092729Y0107388D01*
X0094127Y0108787D02*
X0069300Y0108787D01*
X0069300Y0110185D02*
X0095526Y0110185D01*
X0096924Y0111584D02*
X0069300Y0111584D01*
X0068513Y0112982D02*
X0098323Y0112982D01*
X0099721Y0114381D02*
X0067114Y0114381D01*
X0065638Y0117178D02*
X0102518Y0117178D01*
X0103700Y0118576D02*
X0067036Y0118576D01*
X0064239Y0115779D02*
X0101120Y0115779D01*
X0106600Y0113100D02*
X0110800Y0113100D01*
X0115000Y0117300D01*
X0115000Y0124300D01*
X0119200Y0128500D01*
X0123400Y0128500D01*
X0130400Y0121500D01*
X0121500Y0122500D02*
X0120600Y0121500D01*
X0120600Y0118700D01*
X0112200Y0110300D01*
X0108000Y0110300D01*
X0089800Y0092100D01*
X0087000Y0092100D01*
X0091200Y0097700D02*
X0081400Y0097700D01*
X0063200Y0079500D01*
X0060400Y0079500D01*
X0065679Y0078020D02*
X0069985Y0078020D01*
X0068700Y0079305D02*
X0068700Y0081040D01*
X0064786Y0077126D01*
X0064446Y0076985D01*
X0064384Y0076838D01*
X0063062Y0075516D01*
X0062542Y0075300D01*
X0066195Y0075300D01*
X0069300Y0072195D01*
X0069300Y0067805D01*
X0066195Y0064700D01*
X0061805Y0064700D01*
X0058700Y0067805D01*
X0058700Y0072195D01*
X0061305Y0074800D01*
X0059465Y0074800D01*
X0057738Y0075516D01*
X0056416Y0076838D01*
X0055912Y0078053D01*
X0044574Y0066714D01*
X0043786Y0065926D01*
X0042757Y0065500D01*
X0039160Y0065500D01*
X0033800Y0060140D01*
X0033800Y0047060D01*
X0050206Y0030654D01*
X0051372Y0031137D01*
X0053628Y0031137D01*
X0055711Y0030274D01*
X0057306Y0028679D01*
X0058168Y0026596D01*
X0058168Y0018491D01*
X0060160Y0016500D01*
X0067620Y0016500D01*
X0066831Y0018404D01*
X0066831Y0026596D01*
X0067694Y0028679D01*
X0069289Y0030274D01*
X0071372Y0031137D01*
X0073628Y0031137D01*
X0075711Y0030274D01*
X0077306Y0028679D01*
X0077500Y0028210D01*
X0077694Y0028679D01*
X0079289Y0030274D01*
X0081372Y0031137D01*
X0083628Y0031137D01*
X0085711Y0030274D01*
X0087306Y0028679D01*
X0087500Y0028210D01*
X0087694Y0028679D01*
X0089289Y0030274D01*
X0091372Y0031137D01*
X0093628Y0031137D01*
X0095711Y0030274D01*
X0097306Y0028679D01*
X0098168Y0026596D01*
X0098168Y0018404D01*
X0097380Y0016500D01*
X0108240Y0016500D01*
X0124800Y0033060D01*
X0124800Y0041800D01*
X0122614Y0043986D01*
X0122614Y0048542D01*
X0125257Y0051185D01*
X0122614Y0053828D01*
X0122614Y0058384D01*
X0125836Y0061606D01*
X0130392Y0061606D01*
X0133614Y0058384D01*
X0133614Y0057274D01*
X0143683Y0067343D01*
X0143902Y0067633D01*
X0144074Y0067733D01*
X0144214Y0067874D01*
X0144550Y0068013D01*
X0144863Y0068197D01*
X0145060Y0068224D01*
X0145243Y0068300D01*
X0145606Y0068300D01*
X0156045Y0069750D01*
X0156216Y0070162D01*
X0157538Y0071484D01*
X0159265Y0072200D01*
X0159540Y0072200D01*
X0145788Y0085952D01*
X0142932Y0085595D01*
X0142784Y0085238D01*
X0141462Y0083916D01*
X0139735Y0083200D01*
X0137865Y0083200D01*
X0136138Y0083916D01*
X0134816Y0085238D01*
X0134100Y0086965D01*
X0134100Y0088835D01*
X0134816Y0090562D01*
X0134953Y0090700D01*
X0124560Y0090700D01*
X0094961Y0061102D01*
X0095350Y0060164D01*
X0095350Y0057836D01*
X0094459Y0055686D01*
X0092814Y0054041D01*
X0090664Y0053150D01*
X0088336Y0053150D01*
X0086186Y0054041D01*
X0084541Y0055686D01*
X0083650Y0057836D01*
X0083650Y0060164D01*
X0084541Y0062314D01*
X0086186Y0063959D01*
X0088336Y0064850D01*
X0090664Y0064850D01*
X0090753Y0064813D01*
X0091153Y0065212D01*
X0089938Y0065716D01*
X0088616Y0067038D01*
X0087900Y0068765D01*
X0087900Y0070635D01*
X0088616Y0072362D01*
X0089397Y0073144D01*
X0083040Y0079500D01*
X0079300Y0079500D01*
X0079300Y0079305D01*
X0076195Y0076200D01*
X0071805Y0076200D01*
X0068700Y0079305D01*
X0068700Y0079418D02*
X0067078Y0079418D01*
X0068476Y0080817D02*
X0068700Y0080817D01*
X0071384Y0076621D02*
X0064168Y0076621D01*
X0066273Y0075223D02*
X0087318Y0075223D01*
X0085919Y0076621D02*
X0076616Y0076621D01*
X0078015Y0078020D02*
X0084521Y0078020D01*
X0083122Y0079418D02*
X0079300Y0079418D01*
X0074400Y0082300D02*
X0074000Y0081500D01*
X0074400Y0082300D02*
X0084200Y0082300D01*
X0092600Y0073900D01*
X0092600Y0069700D01*
X0088679Y0072426D02*
X0069070Y0072426D01*
X0069300Y0071027D02*
X0088062Y0071027D01*
X0087900Y0069629D02*
X0069300Y0069629D01*
X0069300Y0068230D02*
X0088122Y0068230D01*
X0088822Y0066832D02*
X0068327Y0066832D01*
X0066928Y0065433D02*
X0090620Y0065433D01*
X0086368Y0064034D02*
X0037694Y0064034D01*
X0036296Y0062636D02*
X0084863Y0062636D01*
X0084095Y0061237D02*
X0034897Y0061237D01*
X0033800Y0059839D02*
X0083650Y0059839D01*
X0083650Y0058440D02*
X0033800Y0058440D01*
X0033800Y0057042D02*
X0083979Y0057042D01*
X0084200Y0055700D02*
X0087000Y0052900D01*
X0099600Y0052900D01*
X0099600Y0058500D01*
X0099500Y0059000D01*
X0095350Y0058440D02*
X0122670Y0058440D01*
X0122614Y0057042D02*
X0095021Y0057042D01*
X0094417Y0055643D02*
X0122614Y0055643D01*
X0122614Y0054245D02*
X0093018Y0054245D01*
X0089500Y0059000D02*
X0089800Y0059900D01*
X0123400Y0093500D01*
X0165400Y0093500D01*
X0180800Y0078100D01*
X0189200Y0078100D01*
X0189500Y0078000D01*
X0194800Y0078020D02*
X0200721Y0078020D01*
X0202119Y0076621D02*
X0194800Y0076621D01*
X0194800Y0075805D02*
X0194800Y0080195D01*
X0194095Y0080900D01*
X0197840Y0080900D01*
X0219762Y0058979D01*
X0218656Y0059275D01*
X0215509Y0059275D01*
X0212469Y0058460D01*
X0210728Y0057455D01*
X0210728Y0060640D01*
X0209846Y0063930D01*
X0208143Y0066880D01*
X0205734Y0069289D01*
X0202785Y0070992D01*
X0199494Y0071873D01*
X0196088Y0071873D01*
X0192798Y0070992D01*
X0189848Y0069289D01*
X0187440Y0066880D01*
X0185737Y0063930D01*
X0184855Y0060640D01*
X0184855Y0057234D01*
X0185737Y0053944D01*
X0187440Y0050994D01*
X0189848Y0048585D01*
X0192798Y0046882D01*
X0196088Y0046001D01*
X0199494Y0046001D01*
X0202785Y0046882D01*
X0205131Y0048237D01*
X0205131Y0045749D01*
X0205945Y0042710D01*
X0207519Y0039984D01*
X0209744Y0037759D01*
X0212469Y0036185D01*
X0215509Y0035371D01*
X0218656Y0035371D01*
X0221696Y0036185D01*
X0224421Y0037759D01*
X0226647Y0039984D01*
X0228220Y0042710D01*
X0229035Y0045749D01*
X0229035Y0048896D01*
X0228738Y0050002D01*
X0250800Y0027940D01*
X0250800Y0015943D01*
X0251226Y0014914D01*
X0254026Y0012114D01*
X0254814Y0011326D01*
X0255843Y0010900D01*
X0269240Y0010900D01*
X0267840Y0009500D01*
X0236560Y0009500D01*
X0237347Y0010288D01*
X0238372Y0009863D01*
X0240628Y0009863D01*
X0242711Y0010726D01*
X0244306Y0012321D01*
X0245168Y0014404D01*
X0245168Y0022596D01*
X0244306Y0024679D01*
X0242711Y0026274D01*
X0240628Y0027137D01*
X0238372Y0027137D01*
X0236289Y0026274D01*
X0234694Y0024679D01*
X0234500Y0024210D01*
X0234306Y0024679D01*
X0232711Y0026274D01*
X0230628Y0027137D01*
X0228372Y0027137D01*
X0226289Y0026274D01*
X0224694Y0024679D01*
X0223831Y0022596D01*
X0223831Y0022100D01*
X0197360Y0022100D01*
X0185061Y0034399D01*
X0185971Y0051873D01*
X0186000Y0051943D01*
X0186000Y0052427D01*
X0186025Y0052911D01*
X0186000Y0052982D01*
X0186000Y0053057D01*
X0185815Y0053504D01*
X0185653Y0053960D01*
X0185603Y0054016D01*
X0185574Y0054086D01*
X0185231Y0054428D01*
X0184907Y0054788D01*
X0184839Y0054820D01*
X0149047Y0090613D01*
X0148997Y0090700D01*
X0164240Y0090700D01*
X0178426Y0076514D01*
X0179214Y0075726D01*
X0180243Y0075300D01*
X0184705Y0075300D01*
X0187305Y0072700D01*
X0191695Y0072700D01*
X0194800Y0075805D01*
X0194218Y0075223D02*
X0203518Y0075223D01*
X0204916Y0073824D02*
X0192819Y0073824D01*
X0192930Y0071027D02*
X0168633Y0071027D01*
X0170031Y0069629D02*
X0190437Y0069629D01*
X0188790Y0068230D02*
X0171430Y0068230D01*
X0172828Y0066832D02*
X0187412Y0066832D01*
X0186604Y0065433D02*
X0174227Y0065433D01*
X0175625Y0064034D02*
X0185797Y0064034D01*
X0185390Y0062636D02*
X0177024Y0062636D01*
X0178422Y0061237D02*
X0185015Y0061237D01*
X0184855Y0059839D02*
X0179821Y0059839D01*
X0181219Y0058440D02*
X0184855Y0058440D01*
X0184907Y0057042D02*
X0182618Y0057042D01*
X0184016Y0055643D02*
X0185281Y0055643D01*
X0185415Y0054245D02*
X0185656Y0054245D01*
X0186022Y0052846D02*
X0186370Y0052846D01*
X0185949Y0051448D02*
X0187178Y0051448D01*
X0188384Y0050049D02*
X0185876Y0050049D01*
X0185803Y0048651D02*
X0189783Y0048651D01*
X0192157Y0047252D02*
X0185730Y0047252D01*
X0185658Y0045854D02*
X0205131Y0045854D01*
X0205131Y0047252D02*
X0203425Y0047252D01*
X0205477Y0044455D02*
X0185585Y0044455D01*
X0185512Y0043057D02*
X0205852Y0043057D01*
X0206552Y0041658D02*
X0185439Y0041658D01*
X0185366Y0040260D02*
X0207360Y0040260D01*
X0208642Y0038861D02*
X0185293Y0038861D01*
X0185221Y0037463D02*
X0210257Y0037463D01*
X0212921Y0036064D02*
X0185148Y0036064D01*
X0185075Y0034666D02*
X0244074Y0034666D01*
X0242676Y0036064D02*
X0221244Y0036064D01*
X0223908Y0037463D02*
X0241277Y0037463D01*
X0239879Y0038861D02*
X0225524Y0038861D01*
X0226806Y0040260D02*
X0238480Y0040260D01*
X0237082Y0041658D02*
X0227613Y0041658D01*
X0228313Y0043057D02*
X0235683Y0043057D01*
X0234285Y0044455D02*
X0228688Y0044455D01*
X0229035Y0045854D02*
X0232886Y0045854D01*
X0231488Y0047252D02*
X0229035Y0047252D01*
X0229035Y0048651D02*
X0230089Y0048651D01*
X0212435Y0058440D02*
X0210728Y0058440D01*
X0210728Y0059839D02*
X0218901Y0059839D01*
X0217503Y0061237D02*
X0210567Y0061237D01*
X0210193Y0062636D02*
X0216104Y0062636D01*
X0214706Y0064034D02*
X0209786Y0064034D01*
X0208978Y0065433D02*
X0213307Y0065433D01*
X0211909Y0066832D02*
X0208171Y0066832D01*
X0206793Y0068230D02*
X0210510Y0068230D01*
X0209112Y0069629D02*
X0205145Y0069629D01*
X0202652Y0071027D02*
X0207713Y0071027D01*
X0206315Y0072426D02*
X0167234Y0072426D01*
X0165836Y0073824D02*
X0186181Y0073824D01*
X0184782Y0075223D02*
X0164437Y0075223D01*
X0163039Y0076621D02*
X0178319Y0076621D01*
X0176921Y0078020D02*
X0161640Y0078020D01*
X0160242Y0079418D02*
X0175522Y0079418D01*
X0174124Y0080817D02*
X0158843Y0080817D01*
X0157445Y0082215D02*
X0172725Y0082215D01*
X0171327Y0083614D02*
X0156046Y0083614D01*
X0154648Y0085012D02*
X0169928Y0085012D01*
X0168530Y0086411D02*
X0153249Y0086411D01*
X0151851Y0087809D02*
X0167131Y0087809D01*
X0165732Y0089208D02*
X0150452Y0089208D01*
X0149054Y0090606D02*
X0164334Y0090606D01*
X0175200Y0096300D02*
X0137400Y0134100D01*
X0129000Y0134100D01*
X0110800Y0134100D01*
X0105200Y0128500D01*
X0105200Y0127100D01*
X0112200Y0128500D02*
X0115000Y0131300D01*
X0124800Y0131300D01*
X0127600Y0128500D01*
X0136000Y0128500D01*
X0147200Y0117300D01*
X0147200Y0114500D01*
X0159689Y0124170D02*
X0174175Y0124170D01*
X0174805Y0124800D02*
X0171700Y0121695D01*
X0171700Y0119200D01*
X0171465Y0119200D01*
X0169738Y0118484D01*
X0168416Y0117162D01*
X0167912Y0115947D01*
X0144160Y0139700D01*
X0220240Y0139700D01*
X0233026Y0126914D01*
X0233814Y0126126D01*
X0234843Y0125700D01*
X0239639Y0125700D01*
X0238668Y0124729D01*
X0237800Y0122634D01*
X0237800Y0114366D01*
X0238668Y0112271D01*
X0239600Y0111339D01*
X0239600Y0096060D01*
X0228640Y0085100D01*
X0226760Y0085100D01*
X0223350Y0088510D01*
X0223350Y0090664D01*
X0222459Y0092814D01*
X0220814Y0094459D01*
X0218664Y0095350D01*
X0216336Y0095350D01*
X0214186Y0094459D01*
X0212541Y0092814D01*
X0211650Y0090664D01*
X0211650Y0090410D01*
X0197786Y0104274D01*
X0196757Y0104700D01*
X0179160Y0104700D01*
X0173847Y0110012D01*
X0174593Y0110321D01*
X0174643Y0110300D01*
X0185557Y0110300D01*
X0186586Y0110726D01*
X0188560Y0112700D01*
X0191695Y0112700D01*
X0194800Y0115805D01*
X0194800Y0120195D01*
X0191695Y0123300D01*
X0187305Y0123300D01*
X0184200Y0120195D01*
X0184200Y0116260D01*
X0183840Y0115900D01*
X0180895Y0115900D01*
X0182300Y0117305D01*
X0182300Y0121695D01*
X0179195Y0124800D01*
X0174805Y0124800D01*
X0172777Y0122772D02*
X0161088Y0122772D01*
X0162486Y0121373D02*
X0171700Y0121373D01*
X0171700Y0119975D02*
X0163885Y0119975D01*
X0165283Y0118576D02*
X0169960Y0118576D01*
X0168431Y0117178D02*
X0166682Y0117178D01*
X0172400Y0114500D02*
X0173800Y0114500D01*
X0175200Y0113100D01*
X0185000Y0113100D01*
X0189200Y0117300D01*
X0189500Y0118000D01*
X0193376Y0114381D02*
X0196886Y0114381D01*
X0196200Y0113695D02*
X0196200Y0109305D01*
X0199305Y0106200D01*
X0203695Y0106200D01*
X0206800Y0109305D01*
X0206800Y0113695D01*
X0203695Y0116800D01*
X0199305Y0116800D01*
X0196200Y0113695D01*
X0196200Y0112982D02*
X0191978Y0112982D01*
X0194775Y0115779D02*
X0198284Y0115779D01*
X0194800Y0117178D02*
X0217800Y0117178D01*
X0217800Y0118576D02*
X0194800Y0118576D01*
X0194800Y0119975D02*
X0217800Y0119975D01*
X0217800Y0121373D02*
X0193622Y0121373D01*
X0192223Y0122772D02*
X0217857Y0122772D01*
X0217800Y0122634D02*
X0218668Y0124729D01*
X0220271Y0126332D01*
X0222366Y0127200D01*
X0224634Y0127200D01*
X0226729Y0126332D01*
X0228332Y0124729D01*
X0229200Y0122634D01*
X0229200Y0114366D01*
X0228332Y0112271D01*
X0226729Y0110668D01*
X0224634Y0109800D01*
X0222366Y0109800D01*
X0220271Y0110668D01*
X0218668Y0112271D01*
X0217800Y0114366D01*
X0217800Y0122634D01*
X0218437Y0124170D02*
X0179825Y0124170D01*
X0181223Y0122772D02*
X0186777Y0122772D01*
X0185378Y0121373D02*
X0182300Y0121373D01*
X0182300Y0119975D02*
X0184200Y0119975D01*
X0184200Y0118576D02*
X0182300Y0118576D01*
X0182173Y0117178D02*
X0184200Y0117178D01*
X0187444Y0111584D02*
X0196200Y0111584D01*
X0196200Y0110185D02*
X0174265Y0110185D01*
X0175073Y0108787D02*
X0196718Y0108787D01*
X0198116Y0107388D02*
X0176471Y0107388D01*
X0177870Y0105990D02*
X0239600Y0105990D01*
X0239600Y0107388D02*
X0204884Y0107388D01*
X0206282Y0108787D02*
X0239600Y0108787D01*
X0239600Y0110185D02*
X0225564Y0110185D01*
X0227645Y0111584D02*
X0239355Y0111584D01*
X0238373Y0112982D02*
X0228627Y0112982D01*
X0229200Y0114381D02*
X0237800Y0114381D01*
X0237800Y0115779D02*
X0229200Y0115779D01*
X0229200Y0117178D02*
X0237800Y0117178D01*
X0237800Y0118576D02*
X0229200Y0118576D01*
X0229200Y0119975D02*
X0237800Y0119975D01*
X0237800Y0121373D02*
X0229200Y0121373D01*
X0229143Y0122772D02*
X0237857Y0122772D01*
X0238437Y0124170D02*
X0228563Y0124170D01*
X0227492Y0125569D02*
X0239508Y0125569D01*
X0232973Y0126968D02*
X0225195Y0126968D01*
X0221805Y0126968D02*
X0156892Y0126968D01*
X0155494Y0128366D02*
X0231574Y0128366D01*
X0230176Y0129765D02*
X0154095Y0129765D01*
X0152697Y0131163D02*
X0228777Y0131163D01*
X0227379Y0132562D02*
X0151298Y0132562D01*
X0149900Y0133960D02*
X0225980Y0133960D01*
X0224582Y0135359D02*
X0148501Y0135359D01*
X0147103Y0136757D02*
X0223183Y0136757D01*
X0221785Y0138156D02*
X0145704Y0138156D01*
X0144306Y0139554D02*
X0220386Y0139554D01*
X0220000Y0134100D02*
X0232600Y0121500D01*
X0232600Y0118700D01*
X0233500Y0118500D01*
X0232600Y0117300D01*
X0232600Y0094900D01*
X0228400Y0090700D01*
X0227500Y0089500D01*
X0225449Y0086411D02*
X0229951Y0086411D01*
X0231349Y0087809D02*
X0224051Y0087809D01*
X0223350Y0089208D02*
X0232748Y0089208D01*
X0234146Y0090606D02*
X0223350Y0090606D01*
X0222794Y0092005D02*
X0235545Y0092005D01*
X0236943Y0093403D02*
X0221870Y0093403D01*
X0219987Y0094802D02*
X0238342Y0094802D01*
X0239600Y0096200D02*
X0205860Y0096200D01*
X0207258Y0094802D02*
X0215013Y0094802D01*
X0213130Y0093403D02*
X0208657Y0093403D01*
X0210055Y0092005D02*
X0212206Y0092005D01*
X0211650Y0090606D02*
X0211454Y0090606D01*
X0217500Y0089500D02*
X0218600Y0089300D01*
X0225600Y0082300D01*
X0229800Y0082300D01*
X0242400Y0094900D01*
X0242400Y0117300D01*
X0243500Y0118500D01*
X0239600Y0104591D02*
X0197019Y0104591D01*
X0198867Y0103193D02*
X0239600Y0103193D01*
X0239600Y0101794D02*
X0200265Y0101794D01*
X0201664Y0100396D02*
X0239600Y0100396D01*
X0239600Y0098997D02*
X0203062Y0098997D01*
X0204461Y0097599D02*
X0239600Y0097599D01*
X0221436Y0110185D02*
X0206800Y0110185D01*
X0206800Y0111584D02*
X0219355Y0111584D01*
X0218373Y0112982D02*
X0206800Y0112982D01*
X0206114Y0114381D02*
X0217800Y0114381D01*
X0217800Y0115779D02*
X0204716Y0115779D01*
X0219508Y0125569D02*
X0158291Y0125569D01*
X0183000Y0135000D02*
X0183600Y0134100D01*
X0220000Y0134100D01*
X0229709Y0142351D02*
X0293460Y0142351D01*
X0293463Y0140953D02*
X0231107Y0140953D01*
X0232506Y0139554D02*
X0293466Y0139554D01*
X0293469Y0138156D02*
X0233904Y0138156D01*
X0228310Y0143750D02*
X0293456Y0143750D01*
X0293453Y0145148D02*
X0226912Y0145148D01*
X0225513Y0146547D02*
X0293450Y0146547D01*
X0293447Y0147945D02*
X0223731Y0147945D01*
X0214204Y0156336D02*
X0204159Y0156336D01*
X0205558Y0154938D02*
X0293431Y0154938D01*
X0293428Y0156336D02*
X0257796Y0156336D01*
X0258300Y0157735D02*
X0287218Y0157735D01*
X0292582Y0157735D02*
X0293425Y0157735D01*
X0293434Y0153539D02*
X0206800Y0153539D01*
X0206800Y0152141D02*
X0293438Y0152141D01*
X0293441Y0150742D02*
X0206800Y0150742D01*
X0206800Y0149344D02*
X0293444Y0149344D01*
X0282407Y0159133D02*
X0258300Y0159133D01*
X0178000Y0096300D02*
X0175200Y0096300D01*
X0194179Y0080817D02*
X0197924Y0080817D01*
X0199322Y0079418D02*
X0194800Y0079418D01*
X0160960Y0062636D02*
X0146896Y0062636D01*
X0143172Y0066832D02*
X0100691Y0066832D01*
X0102090Y0068230D02*
X0145074Y0068230D01*
X0141773Y0065433D02*
X0099293Y0065433D01*
X0097894Y0064034D02*
X0140375Y0064034D01*
X0138976Y0062636D02*
X0096496Y0062636D01*
X0095097Y0061237D02*
X0125467Y0061237D01*
X0124069Y0059839D02*
X0095350Y0059839D01*
X0085982Y0054245D02*
X0033800Y0054245D01*
X0033800Y0055643D02*
X0084583Y0055643D01*
X0084200Y0055700D02*
X0067400Y0055700D01*
X0066500Y0056500D01*
X0066000Y0057100D01*
X0060400Y0057100D01*
X0060400Y0044500D01*
X0061800Y0043100D01*
X0061800Y0023500D01*
X0062500Y0022500D01*
X0066831Y0022079D02*
X0058168Y0022079D01*
X0058168Y0020681D02*
X0066831Y0020681D01*
X0066831Y0019282D02*
X0058168Y0019282D01*
X0058776Y0017884D02*
X0067047Y0017884D01*
X0066831Y0023478D02*
X0058168Y0023478D01*
X0058168Y0024876D02*
X0066831Y0024876D01*
X0066831Y0026275D02*
X0058168Y0026275D01*
X0057722Y0027673D02*
X0067278Y0027673D01*
X0068087Y0029072D02*
X0056913Y0029072D01*
X0055237Y0030470D02*
X0069763Y0030470D01*
X0075237Y0030470D02*
X0079763Y0030470D01*
X0078087Y0029072D02*
X0076913Y0029072D01*
X0085237Y0030470D02*
X0089763Y0030470D01*
X0088087Y0029072D02*
X0086913Y0029072D01*
X0095237Y0030470D02*
X0122210Y0030470D01*
X0120812Y0029072D02*
X0096913Y0029072D01*
X0097722Y0027673D02*
X0119413Y0027673D01*
X0118015Y0026275D02*
X0098168Y0026275D01*
X0098168Y0024876D02*
X0116616Y0024876D01*
X0115218Y0023478D02*
X0098168Y0023478D01*
X0098168Y0022079D02*
X0113819Y0022079D01*
X0112421Y0020681D02*
X0098168Y0020681D01*
X0098168Y0019282D02*
X0111022Y0019282D01*
X0109624Y0017884D02*
X0097953Y0017884D01*
X0113600Y0034700D02*
X0114728Y0034453D01*
X0113600Y0034700D02*
X0099600Y0048700D01*
X0099600Y0052900D01*
X0122723Y0048651D02*
X0071800Y0048651D01*
X0071800Y0048695D02*
X0068695Y0051800D01*
X0064305Y0051800D01*
X0061200Y0048695D01*
X0061200Y0044305D01*
X0064305Y0041200D01*
X0068695Y0041200D01*
X0071800Y0044305D01*
X0071800Y0048695D01*
X0071800Y0047252D02*
X0122614Y0047252D01*
X0122614Y0045854D02*
X0071800Y0045854D01*
X0071800Y0044455D02*
X0122614Y0044455D01*
X0123543Y0043057D02*
X0070552Y0043057D01*
X0069154Y0041658D02*
X0124800Y0041658D01*
X0124800Y0040260D02*
X0040600Y0040260D01*
X0039201Y0041658D02*
X0063846Y0041658D01*
X0062448Y0043057D02*
X0037803Y0043057D01*
X0036404Y0044455D02*
X0061200Y0044455D01*
X0061200Y0045854D02*
X0035006Y0045854D01*
X0033800Y0047252D02*
X0061200Y0047252D01*
X0061200Y0048651D02*
X0033800Y0048651D01*
X0033800Y0050049D02*
X0062554Y0050049D01*
X0063953Y0051448D02*
X0033800Y0051448D01*
X0033800Y0052846D02*
X0123596Y0052846D01*
X0124994Y0051448D02*
X0069047Y0051448D01*
X0070446Y0050049D02*
X0124122Y0050049D01*
X0133558Y0058440D02*
X0134781Y0058440D01*
X0136179Y0059839D02*
X0132160Y0059839D01*
X0130761Y0061237D02*
X0137578Y0061237D01*
X0141600Y0054300D02*
X0147200Y0054300D01*
X0154200Y0047300D01*
X0152118Y0047252D02*
X0175582Y0047252D01*
X0176600Y0045854D02*
X0152118Y0045854D01*
X0152118Y0044455D02*
X0176600Y0044455D01*
X0176600Y0043057D02*
X0151189Y0043057D01*
X0149791Y0041658D02*
X0176600Y0041658D01*
X0174253Y0048651D02*
X0152009Y0048651D01*
X0150611Y0050049D02*
X0172924Y0050049D01*
X0183200Y0052500D02*
X0146800Y0088900D01*
X0138800Y0087900D01*
X0134100Y0087809D02*
X0121669Y0087809D01*
X0120270Y0086411D02*
X0134330Y0086411D01*
X0135041Y0085012D02*
X0118872Y0085012D01*
X0117473Y0083614D02*
X0136866Y0083614D01*
X0140734Y0083614D02*
X0148127Y0083614D01*
X0149525Y0082215D02*
X0116075Y0082215D01*
X0114676Y0080817D02*
X0150924Y0080817D01*
X0152322Y0079418D02*
X0113278Y0079418D01*
X0111879Y0078020D02*
X0153721Y0078020D01*
X0155119Y0076621D02*
X0110481Y0076621D01*
X0109082Y0075223D02*
X0156518Y0075223D01*
X0157916Y0073824D02*
X0107684Y0073824D01*
X0106285Y0072426D02*
X0159315Y0072426D01*
X0157080Y0071027D02*
X0104887Y0071027D01*
X0103488Y0069629D02*
X0155172Y0069629D01*
X0146728Y0085012D02*
X0142559Y0085012D01*
X0134254Y0089208D02*
X0123067Y0089208D01*
X0124466Y0090606D02*
X0134859Y0090606D01*
X0122000Y0099100D02*
X0101000Y0099100D01*
X0084200Y0082300D01*
X0088716Y0073824D02*
X0067671Y0073824D01*
X0060329Y0073824D02*
X0051684Y0073824D01*
X0053082Y0075223D02*
X0058445Y0075223D01*
X0056632Y0076621D02*
X0054481Y0076621D01*
X0055879Y0078020D02*
X0055926Y0078020D01*
X0050757Y0080817D02*
X0039400Y0080817D01*
X0039400Y0082215D02*
X0052155Y0082215D01*
X0053554Y0083614D02*
X0040577Y0083614D01*
X0041975Y0085012D02*
X0054952Y0085012D01*
X0056351Y0086411D02*
X0043035Y0086411D01*
X0043035Y0087809D02*
X0057749Y0087809D01*
X0059148Y0089208D02*
X0051916Y0089208D01*
X0053315Y0090606D02*
X0060546Y0090606D01*
X0061945Y0092005D02*
X0054230Y0092005D01*
X0054230Y0093403D02*
X0063343Y0093403D01*
X0064742Y0094802D02*
X0054230Y0094802D01*
X0054230Y0096200D02*
X0066140Y0096200D01*
X0067539Y0097599D02*
X0053310Y0097599D01*
X0051911Y0098997D02*
X0068937Y0098997D01*
X0070336Y0100396D02*
X0052204Y0100396D01*
X0053603Y0101794D02*
X0071735Y0101794D01*
X0073584Y0103193D02*
X0054230Y0103193D01*
X0053891Y0112982D02*
X0059487Y0112982D01*
X0073000Y0107500D02*
X0073000Y0121500D01*
X0074000Y0121500D01*
X0096800Y0121500D01*
X0098200Y0120100D01*
X0099000Y0119500D01*
X0106600Y0113100D02*
X0091200Y0097700D01*
X0073000Y0107500D02*
X0049200Y0083700D01*
X0048005Y0083200D01*
X0049358Y0079418D02*
X0039400Y0079418D01*
X0039400Y0078020D02*
X0047960Y0078020D01*
X0046561Y0076621D02*
X0039400Y0076621D01*
X0039400Y0075223D02*
X0045163Y0075223D01*
X0043764Y0073824D02*
X0039400Y0073824D01*
X0039400Y0072426D02*
X0042366Y0072426D01*
X0046090Y0068230D02*
X0058700Y0068230D01*
X0058700Y0069629D02*
X0047488Y0069629D01*
X0048887Y0071027D02*
X0058700Y0071027D01*
X0058930Y0072426D02*
X0050285Y0072426D01*
X0044691Y0066832D02*
X0059673Y0066832D01*
X0061072Y0065433D02*
X0039093Y0065433D01*
X0043600Y0057100D02*
X0042405Y0056000D01*
X0043600Y0057100D02*
X0060400Y0057100D01*
X0041998Y0038861D02*
X0124800Y0038861D01*
X0124800Y0037463D02*
X0043397Y0037463D01*
X0044796Y0036064D02*
X0124800Y0036064D01*
X0124800Y0034666D02*
X0046194Y0034666D01*
X0047593Y0033267D02*
X0124800Y0033267D01*
X0123609Y0031869D02*
X0048991Y0031869D01*
X0047626Y0016485D02*
X0047374Y0016485D01*
X0046072Y0015087D02*
X0048928Y0015087D01*
X0149212Y0051448D02*
X0151569Y0051448D01*
X0183200Y0052500D02*
X0182200Y0033300D01*
X0196200Y0019300D01*
X0228400Y0019300D01*
X0229500Y0018500D01*
X0224197Y0023478D02*
X0195982Y0023478D01*
X0194584Y0024876D02*
X0224891Y0024876D01*
X0226291Y0026275D02*
X0193185Y0026275D01*
X0191787Y0027673D02*
X0250800Y0027673D01*
X0250800Y0026275D02*
X0242709Y0026275D01*
X0244109Y0024876D02*
X0250800Y0024876D01*
X0250800Y0023478D02*
X0244803Y0023478D01*
X0245168Y0022079D02*
X0250800Y0022079D01*
X0250800Y0020681D02*
X0245168Y0020681D01*
X0245168Y0019282D02*
X0250800Y0019282D01*
X0250800Y0017884D02*
X0245168Y0017884D01*
X0245168Y0016485D02*
X0250800Y0016485D01*
X0251155Y0015087D02*
X0245168Y0015087D01*
X0244872Y0013688D02*
X0252452Y0013688D01*
X0253851Y0012290D02*
X0244275Y0012290D01*
X0242876Y0010891D02*
X0269231Y0010891D01*
X0272955Y0006696D02*
X0307000Y0006696D01*
X0307000Y0008094D02*
X0274354Y0008094D01*
X0275752Y0009493D02*
X0307000Y0009493D01*
X0307000Y0010891D02*
X0277151Y0010891D01*
X0278549Y0012290D02*
X0307000Y0012290D01*
X0249668Y0029072D02*
X0190388Y0029072D01*
X0188990Y0030470D02*
X0248270Y0030470D01*
X0246871Y0031869D02*
X0187591Y0031869D01*
X0186193Y0033267D02*
X0245473Y0033267D01*
X0236291Y0026275D02*
X0232709Y0026275D01*
X0234109Y0024876D02*
X0234891Y0024876D01*
X0238200Y0017900D02*
X0239500Y0018500D01*
X0238200Y0017900D02*
X0238200Y0015100D01*
X0232600Y0009500D01*
X0201800Y0009500D01*
X0179400Y0031900D01*
X0044094Y0089208D02*
X0043035Y0089208D01*
X0032755Y0094802D02*
X0008500Y0094802D01*
X0008500Y0096200D02*
X0031356Y0096200D01*
X0030585Y0097599D02*
X0008500Y0097599D01*
X0008500Y0098997D02*
X0030585Y0098997D01*
X0030585Y0100396D02*
X0008500Y0100396D01*
X0008500Y0101794D02*
X0030585Y0101794D01*
X0031649Y0103193D02*
X0008500Y0103193D01*
X0008500Y0104591D02*
X0033048Y0104591D01*
X0032467Y0105990D02*
X0008500Y0105990D01*
X0008500Y0107388D02*
X0031068Y0107388D01*
X0030585Y0108787D02*
X0008500Y0108787D01*
X0008500Y0110185D02*
X0030585Y0110185D01*
X0030585Y0111584D02*
X0008500Y0111584D01*
X0008500Y0112982D02*
X0030585Y0112982D01*
X0029959Y0114381D02*
X0008500Y0114381D01*
X0008500Y0115779D02*
X0028561Y0115779D01*
X0027200Y0117178D02*
X0008500Y0117178D01*
X0008500Y0118576D02*
X0026800Y0118576D01*
X0026800Y0119975D02*
X0008500Y0119975D01*
X0008500Y0121373D02*
X0026800Y0121373D01*
X0026800Y0122772D02*
X0008500Y0122772D01*
X0008500Y0124170D02*
X0026800Y0124170D01*
X0026800Y0125569D02*
X0008500Y0125569D01*
X0008500Y0126968D02*
X0026800Y0126968D01*
X0026800Y0128366D02*
X0008500Y0128366D01*
X0008500Y0129765D02*
X0026800Y0129765D01*
X0026800Y0131163D02*
X0008500Y0131163D01*
X0008500Y0132562D02*
X0026800Y0132562D01*
X0026800Y0133960D02*
X0008500Y0133960D01*
X0008500Y0135359D02*
X0026800Y0135359D01*
X0026800Y0136757D02*
X0008500Y0136757D01*
X0008500Y0138156D02*
X0026800Y0138156D01*
X0026800Y0139554D02*
X0008500Y0139554D01*
X0008500Y0140953D02*
X0026800Y0140953D01*
X0026800Y0142351D02*
X0008500Y0142351D01*
X0008500Y0143750D02*
X0026800Y0143750D01*
X0026800Y0145148D02*
X0008500Y0145148D01*
X0008500Y0146547D02*
X0026800Y0146547D01*
X0026800Y0147945D02*
X0008500Y0147945D01*
X0008500Y0149344D02*
X0026800Y0149344D01*
X0026800Y0150742D02*
X0008500Y0150742D01*
X0008500Y0152141D02*
X0026800Y0152141D01*
X0026800Y0153539D02*
X0008500Y0153539D01*
X0008500Y0154938D02*
X0026800Y0154938D01*
X0026800Y0156336D02*
X0008500Y0156336D01*
X0008500Y0157735D02*
X0026800Y0157735D01*
X0027080Y0159133D02*
X0008500Y0159133D01*
X0033716Y0188502D02*
X0056565Y0188502D01*
X0125153Y0136900D02*
X0125153Y0136900D01*
X0036600Y0111700D02*
X0036810Y0110450D01*
X0036600Y0111700D02*
X0029600Y0118700D01*
D28*
X0054800Y0149500D03*
X0105200Y0127100D03*
X0112200Y0128500D03*
X0129000Y0134100D03*
X0147200Y0114500D03*
X0172400Y0114500D03*
X0178000Y0096300D03*
X0138800Y0087900D03*
X0122000Y0099100D03*
X0087000Y0092100D03*
X0060400Y0079500D03*
X0092600Y0069700D03*
X0141600Y0054300D03*
X0160200Y0067500D03*
X0129000Y0153700D03*
X0137400Y0164900D03*
X0289900Y0161700D03*
M02*
